<svg xmlns="http://www.w3.org/2000/svg" width="1024" height="700" viewBox="0 0 1024 700">
  <defs>
    <style>
      .cls-1, .cls-2, .cls-3, .cls-4, .cls-5, .cls-6 {
        fill-rule: evenodd;
      }

      .cls-2 {
        fill: #333;
      }

      .cls-3 {
        fill: #666;
      }

      .cls-4 {
        fill: #999;
      }

      .cls-5 {
        fill: #ccc;
      }

      .cls-6 {
        fill: #fff;
      }
    </style>
  </defs>
  <path id="Color_Fill_6" data-name="Color Fill 6" class="cls-1" d="M589,245c28.747-.383,62.061,37.318,50,70h-1l-1-1q-1-9-2-18h-3l-1,1q-0.5,7-1,14l-9,6h-1v-5c13-21.378,6.323-49.844-15-60,22.5,52.612-68.389,57.2-81,83v18l15,1V344h4c2.522,4.649,3.19,9.934,3,18,5.1-.2,8.465-0.019,11,2,0,0-.233,16.582,1,21,2.615,3.428,3.813,2.122,7,3v8l-11,2-2,5c3.457,7.1,9.176,8.681,13,15q-0.5,11-1,22l-7,2q1,5.5,2,11c4.076-.884,2.874-1.731,5,2-3.739,2-2.128.085-3,5l1,1,7,1v-6l18,1q1.5-24,3-48c8.27,5.18,24.687,5.147,36,8v4c-3.961-1.812-32.554,5.383-33,6-3.293,5.875-3.138,18.362-3,27,3.433,1.517,3.22.538,5,4q-1,8.5-2,17l-22,2c-9.283,5.28-21.575,34.378-15,48l7,2c-2.871-6.941-2.432-23.845-1-32h1c0.214,9.4,4.226,10.144,6,15v20l9,6c2.971,5.816,3.753,9.33,6,14l2-2c-2.182-6.914-1.679-21.443,2-26h1v2c7.911,21.255,5.114,48.219,13,66l15,2c3.262-1.105,11.239-10.539,18-8,6.87,2.58,12.542,17.806,26,21-5.292,46.42,14.013,23.367,36,35,3.848,9.376,12.24,13.568,18,21-17.511-1.592-66.08-.691-76,4h-1l-53-2c-4.338,1.255-11.63,4.5-20,3l-12-2c-43.018,14.781-148.58,13.009-196,9H270c-7.451-1.6-15.683-6.873-25-9-21.388-4.883-42.069,5.719-59-4l4-5c33.965-.015,49.578-23.774,68-42-1.746-19.8-29.766-31.535-22-51l7,7c13.234,5.5,19.8,14.727,29,24l4-1c-5.978-22.7,8.627-32.469-14-47-27.244,17.567-39.227-4.958-45-2-2.787,2.892-2.348,8.934-4,13h-1c-1.309-8.041-4.121-4.975-5-14l1-3c14.234,2.689,18.247-11.023,31-16q-1-7.5-2-15l13,1q-1-4-2-8H230q0.5-12,1-24c-9.966-1.376-30.581.8-40-4a41.905,41.905,0,0,0-2-15c13.252-.54,35.164,3.052,40-6l-2-1c-3.581-.485-1.36,1.5-4-2-4.291-5.618-4.3-11.389-4-22h-7v-1q1.5-15.5,3-31h1q0.5,4,1,8h1c1.439-6.887,5.716-6.972,9-12q-4-17.5-8-35c8.358,1.626,18.512,4.482,30,6l1,2-2,2c-7.571.723-12.624,6.152-23,4v1l4,14,12,7,9-5c0.03,3.385-.6,3.178,2,6,6.425-1.178,4.167-2.638,9-1q-0.5,16-1,32l-11,2q0.5,5,1,10l10,2c-0.167,5.78-.119,7.593,3,10,4.842,3.273,16.665,3.54,23,5q1,10.5,2,21h-6c2.4,25.394,14.85,23.234,35,31-28.519.746-28.163-9.677-38-27l-3,2q-0.5,5.5-1,11h3c0.82-1.824.45-.631,2,0l4,11c-2.042,1.8-.707.015-2,3-2.431-2.3-.711-1.817-5-3v1l4,5q0.5,3,1,6h5c0.815-4.948-.668-2.978,3-5,2.118,2.165,3.444,1.993,8,2l1-4q1,7,2,14h1q-0.5-6.5-1-13l4,1q0.5,9,1,18l2,1,10-11,13-3c8.29-9.092,10.462-20.777,18-31l3,1c2.373,7.728,2.861,22.441,5,35h1l3-3c21.9-9.7,11.718-27.823,19-38,4.968-6.943,12.9-12.642,17-21v-1q-0.5-9.5-1-19c3.6-10.224,13.432-24.286,11-37-8.022-3.2-34.633-10.21-39-8v-2q-1-12.5-2-25h5c0.1-8.658-15.534-50.038-20-55h-1l-6,11-14-1q-0.5-2.5-1-5l-8,5-6-5-13,6v-1c2.27-3.9,1.985-5.454,3-10l7-4c10.764-3.22,18.923,1.281,26,4v5l7-1c9.778-25.6,31.949-15.877,51-27l-2-4c-14.246-6.226-26.108-6.417-33-20l8-7c0.465-10.985-1.163-12.057-6-17,1.049-12.288,2.08-33.435,4-48-11.386,1.941-16.612,2.664-28,4v-1c4.823-4.228,9.987-6.794,13-10h1l5,7,6-3-1-2c-5.012-1.984-6.509-3.685-14-4q-0.5-3.5-1-7h1l21,13c2.636,5.637-5.861,29.438-1,42h1c0.117-14.57,1.922-31.888,1-37,5.051-1.819,5.982-3.666,11-2-1.048-6.027-2.785-6.464-8-8l3-4,11-5c-1.172-8.452.978-6.554,2-16-8.038,1.789-36.241,2.884-38-5l16-2c1.745,2.819,2.21,3.232,5,5,5.975-1.8,6.381-.973,7-6l10,5c0.815-4.948-.668-2.978,3-5,0.257,9.894.5,20.02,3,26l8,5c-3.638,3.737-11.747,19.632-3,23-0.411-6.086-1.818-7.63,1-14l2,1,2,5c-4.5,5.509-2.916,7.581-4,13a20.4,20.4,0,0,0-4-4v8l4-1v9h7V191l1,2c3.487,7.445.731,26.929,0,35,8.174,0.349,12.4,2.709,18,5q0.5-6.5,1-13l-6-1h6c0.27-13.3-1.035-27.141-6-35-7.444-1.217-13.543-2.067-14-11,5.458-1.205,17.117-3.732,20-8,2.318-5.148,1.149-17.387,0-20l-8-5c0.908-2.584,1.2-4.338,3-6,12.415-11.546,9.735-2.139,9-26l-7-5v-3c9.847-6.754,8.007-17.5,14-21q1,3.5,2,7l6-6,13-11V66l-6-3,2-3c7.335-2.931,6.541-7.566,16-9l13,11-6,5v2c9.953,7.289,29.924,21.665,33,35-7.879,4.595-9.712,12.708-6,24l11,4c-0.227-14.776-2.492-43.135,3-55l5-1v3c-6.664,1.722-7.167,54.661-5,65,19.183,1.727,34,11.108,47,19,3.277-3.029,4.828-3.5,8-1l3,2c-0.89,3.957-2.313,1.818,2,5h1q0.5-4,1-8l2,2q-1.5,33-3,66c1.555,2.949,7.818,2.3,10,6C589.465,237.32,589.178,240.22,589,245ZM532,79l18,7v1h-1c-8.763-2.818-18.692-2.427-25-6C528.37,80.866,529.658,80.589,532,79Zm-19,66-2,2,7,1v-1C516.016,145.4,516.611,145.7,513,145Zm16,3-3,2,2,3,4,1v1l-7-1q-0.5,3.5-1,7l14,2,1-1C538.232,155.026,537.671,150.225,529,148Zm-17,1c2.865,1.625,6.7,2.42,10,1Zm26,1,4,8c5.029,1.249,8.326,2.348,12,0l-2-3Zm-27,1c-0.759,9.662-4.206,14.938,4,17v-7C513.93,159.769,515.874,153.683,511,151Zm6,9h5q-0.5-4-1-8h-5v1Q516.5,156.5,517,160Zm16-5h0Zm25,3c0.7,6.9,2.283,4.776,1,9l7-2-2-3Zm-42,3v7l6,1v-7h-2Zm27,0c-1.477,3.009-2.013,5.685-2,11l7-2q-0.5-4.5-1-9h-4Zm11,0q1,2,2,4C555.088,161.349,556.038,162.955,554,161Zm-30,1q-0.5,4-1,8c5.647,1.037,11.108,2.634,17,1q-0.5-3.5-1-7Zm26,1q0.5,3,1,6Q550.5,166,550,163Zm16,3c-3.571,2.262-5.108,1.7-7,6,1.854,0.75,1.633.845,0,2q-0.5,1.5-1,3v1h1l9-4C567.944,169.462,567.8,168.253,566,166Zm-54,53c23.189-.3,41.112,4.594,60,7V205c1.483-5.38,2.364-33.259-2-39h-1c1.145,5.706.4,7.953-2,12-9.029,1.466-41.59,4.51-48,8C514.99,196.054,511.883,202.972,512,219Zm69-47-4,3q0.5,14.5,1,29h-1q-1-9-2-18h-1c0.811,8.949-3.827,40.248,6,43Q580.5,200.5,581,172Zm-28,2,3,1Zm-17,1-5,2v2c4.733-.432,7.061-0.434,9-4h-4Zm9,0,4,1ZM374,194v7h4v-4l-2-3h-2Zm6,3v13h1l1-1C382.427,202.585,383.305,200.154,380,197Zm-5,5q0.5,7.5,1,15h1v-3C378.539,209.378,379.164,204.274,375,202Zm37,18,10,1Zm115,13q-0.5-6-1-12l-14-1v10q0.5,1.5,1,3h14Zm1,0,23,3q-0.5-6.5-1-13l-22-2v12Zm-119-6v-5h-7v3l1,2h6Zm144-3q-0.5,6-1,12l20,4V229Zm21,6c0.056,4.538.2,5.747,2,8l3-1q0.5-3,1-6Zm8,2c1.8,2.042.015,0.707,3,2C583.2,231.958,584.985,233.293,582,232Zm-156,2-12,4-1,2q1,4.5,2,9a15.164,15.164,0,0,0,12-1C427.646,242.711,429.221,237.245,426,234Zm87,0q1,7,2,14l11,1V235Zm15,1v14c10.309-.595,15.409-1.018,22,3q0.5-7.5,1-15h-3Zm56,0c-1.423,2.372-1.649,2.636-2,7l6,3V235h-4Zm-32,3v14l20-3v-7h-2Zm27,0v4h2Q580,240,579,238Zm-4,3q-0.5,3.5-1,7h3l2-1v-1q-0.5-1-1-2C576.4,241.3,577.661,242.623,575,241Zm-180,3c-3.367,2.243-3.278.63-5,5l4,1,6-5v-1h-5Zm8,1-2,6,1,1c7.284-.419,7.766-1.059,7-5Zm180,1v3l3,1C584.679,246.173,586,247.92,583,246Zm6,1q-1.5,9-3,18c-7.851,1.309-8.158,5.873-14,8-40.625,14.791-29.112,2.462-46,42l4,10c24.958-4.857,92.276-39.831,71-76Zm-13,2-2,1c-0.275,7.3-2.442,9.5,4,13h1C579.3,255.876,579.418,250.7,576,249Zm-6,2q-1,4-2,8h1l2-1Q570.5,254.5,570,251Zm-11,1-2,1q0.5,1.5,1,3l8,2q0.5-1,1-2-1-2-2-4h-6Zm22,1q-0.5,5.5-1,11l6-2q0.5-5,1-10ZM373,364h16c0.815-4.948-.668-2.978,3-5,0.644,3.635.4,3.027,2,5h5q-0.5-7-1-14c7.042,1.134,8.155,1.243,15,0V333c-6.06-14.232-8.561-29.846-16-42-8.6,1.384-16.1,4.88-27,7-5.673,11.089-13.6,38.355-1,49h1c0.815-4.948-.668-2.978,3-5l2,6c-2.386,2.472-1.73,2.506-1,6,5.635-.3,11.111-0.276,14,2H373v8Zm-11-59-4,4c0.208,4.313.262,4.827,2,7Q361,310.5,362,305Zm-37,7-3,5h1C325.317,314.7,325.947,315.2,325,312Zm202,19,3,2v1h-1ZM402,354v10h8q0.5-5,1-10h-9Zm136,8q0.5-3.5,1-7l-16-1v10Zm-5,10v-6c-5.063-.023-4.571-0.848-7,1v3q0.5,1,1,2h6Zm2-7v8l4-1C538.84,366.2,539.492,366.658,535,365Zm-152,1c2.18,2.892,2.069,2.617,7,3v-3h-7Zm9,0c2,2.414,2.134,2.207,6,3v-3h-6Zm9,0c2.268,2.073,1.041,1.666,4,1Zm122,0c0.124,3.973-.9,2.068,1,5h1v-5h-2Zm-219,1h0Zm72,0c2.268,2.073,1.041,1.666,4,1Zm170,0q0.5,3,1,6h6v-6h-7Zm-170,3c2.268,2.073,1.041,1.666,4,1Zm6,0c1.964,3.728-.428,1.635,4,3v-3h-4Zm10,0v0Zm-24,1q1,7.5,2,15C370.311,380.183,370.367,374.017,368,371Zm19,0c1.344,2.682,2.318,2.921,3,0h-3Zm8,0c1.8,2.042.015,0.707,3,2C396.2,370.958,397.985,372.293,395,371Zm-23,15h8V374l-8-1v13Zm150-13q0.5,3,1,6h1q0.5-1,1-2C523.693,372.528,525.662,374.991,522,373Zm4,13h7V374h-7v12Zm9-12v13h3V374h-3Zm11,13h7V375C544.872,374.314,544.97,377.093,546,387ZM382,375v10h8V375h-8Zm10,1q0.5,4,1,8Q392.5,380,392,376Zm3,1q0.5,3.5,1,7Q395.5,380.5,395,377Zm2,0q0.5,3.5,1,7Q397.5,380.5,397,377Zm125,3q0.5,3,1,6,0.5-1,1-2,0.5-2,1-4h-3Zm-122,1v4h1Zm-171,7,2,4,3-2Zm136,4,1,3h-1v-3Zm173,70c-0.221-5.58-.825-6.056-3-9l7-3V440h-8q0.5-13,1-26c0.125,5.408-.655,4.987,3,7,1.024-10.483,7.977-10.307,12-18-1.9-4.336-.332-3.97-6-5l-11,5c-5.034,15.185-14.458,37.323-6,58q0.5-3,1-6h1q0.5,3.5,1,7h8ZM243,399c0.815,4.948-.668,2.978,3,5v-5h-3Zm6,0q0.5,3,1,6h1v-6h-2Zm5,0q0.5,3.5,1,7Q254.5,402.5,254,399Zm3,0q0.5,3.5,1,7h1v-7h-2Zm-36,5q-0.5,2.5-1,5l2,1Q221.5,407,221,404Zm-4,1q0.5,2.5,1,5Q217.5,407.5,217,405Zm26,2v8h3v-8h-3Zm6,1q0.5,4.5,1,9h1v-9h-2Zm5,0q0.5,5,1,10Q254.5,413,254,408Zm4,0q0.5,5,1,10Q258.5,413,258,408Zm-42,4q0.5,2.5,1,5h1v-5h-2Zm4,0q-0.5,2.5-1,5h4v-5h-3Zm340,8v2C560.977,420.255,560.912,421.78,560,420Zm-9,1v0Zm4,0v0Zm-20,3v10h3V424h-3Zm5,0q-0.5,4-1,8l2,1v-2C542.3,427.791,542.244,426.21,540,424Zm6,0c0.124,3.973-.9,2.068,1,5h1q0.5-1,1-2C547.627,425.1,548.027,425.364,546,424Zm16,0c-1.667,3.2-2.534,4.816,0,8h1Q562.5,428,562,424Zm-9,1v0Zm-331,2c-2.543,7.973-.205,18.554,4,23C226.486,441.506,231.223,428.661,222,427Zm334,29v3q0.5-1.5,1-3h-1Zm15,2v3h4l2-1v-1l-1-1h-5Zm7,0v3h8v-3h-8Zm11,1q0.5,1,1,2,0.5-1,1-2h-2Zm-59,12h8v-8h-9v1Q529.5,467.5,530,471Zm36-8-3,8h3l3-1v-7h-3Zm10,0h-5q-0.5,4-1,8l6,1v-9Zm2,0v8h8q0.5-4,1-8h-9Zm11,0q0.5,4,1,8Q589.5,467,589,463Zm-62,1q0.5,3.5,1,7Q527.5,467.5,527,464ZM233,479q-1,9.5-2,19l14-3-4-4C239.4,486.377,236.866,481.5,233,479Zm42,13v4h4v-4h-4Zm-33,19c2.138,2.3,4.8,2.5,8,1Zm48,2v3h8v-3h-8Zm-48,2c2.154,2.344,5.749,2.589,9,1Zm48,2v4h8v-4h-8Zm-47,1c2.138,2.3,4.8,2.5,8,1Zm39,0c2.164,2.206,2.889,2.206,6,1Zm-42,8c-8.535,4.254-15.35,5.895-18,16l20,11,21-10v-4C256.892,532.529,251.878,526.881,240,526Zm61,2c-1.423,2.372-1.649,2.636-2,7h1c3.014-2.462,3.71-2.386,5-7h-4Zm441,51h0Zm-53,54h0Z"/>
  <path id="Color_Fill_5" data-name="Color Fill 5" class="cls-2" d="M589,245c28.747-.383,62.061,37.318,50,70h-1l-1-1q-1-9-2-18h-3l-1,1q-0.5,7-1,14l-9,6h-1v-5c13-21.378,6.323-49.844-15-60,19.009,43.863-57.2,63.687-80,80q2.5-5.5,5-11v4c24.958-4.857,92.276-39.831,71-76l-12-2q-1.5,9-3,18c-10.106,1.759-13.841,8.008-26,10q-0.5-6-1-12c-9.739-2.927-11.054-9.3-18-12l-82,3c18.8-.145,36.13-0.686,54,1v1c-51.829-.392-101.255,6.255-144,10l3-1v-1l-10,2-1-3,8-7c0.465-10.985-1.163-12.057-6-17,1.049-12.288,2.08-33.435,4-48-11.386,1.941-16.612,2.664-28,4v-1c4.823-4.228,9.987-6.794,13-10h1l5,7,6-3-1-2c-5.012-1.984-6.509-3.685-14-4q-0.5-3.5-1-7h1l21,13c2.636,5.637-5.861,29.438-1,42h1c0.117-14.57,1.922-31.888,1-37,5.051-1.819,5.982-3.666,11-2-1.048-6.027-2.785-6.464-8-8l3-4,11-5c-1.172-8.452.978-6.554,2-16-8.038,1.789-36.241,2.884-38-5l16-2c1.745,2.819,2.21,3.232,5,5,5.975-1.8,6.381-.973,7-6l10,5c0.815-4.948-.668-2.978,3-5,0.257,9.894.5,20.02,3,26l8,5c-3.638,3.737-11.747,19.632-3,23-0.411-6.086-1.818-7.63,1-14l2,1,2,5c-4.5,5.509-2.916,7.581-4,13a20.4,20.4,0,0,0-4-4v8l4-1v9h7V191l1,2c3.487,7.445.731,26.929,0,35,8.174,0.349,12.4,2.709,18,5q0.5-6.5,1-13l-6-1h6q-0.5-13-1-26c10.5,3.733,53.706-2.7,59-5q0.5,4.5,1,9h2q1-7.5,2-15h6q0.5,9.5,1,19-0.5-9-1-18l4,1q0.5,10,1,20l9-1v16c23.189-.3,41.112,4.594,60,7V205c1.483-5.38,2.364-33.259-2-39h-1c1.145,5.706.4,7.953-2,12-11.9,2.366-29.168,10.326-43,4,7.167,0.454,14.2,2.129,19-1l-9-3c5.223-.419,3.984.656,6-3l-53-7c-22.9-3.893-50.681,3.984-70,7l6,9-13-4q-0.5-3.5-1-7c5.458-1.205,17.117-3.732,20-8q1-9.5,2-19l-10-6c0.908-2.584,1.2-4.338,3-6l11-5c0.163-5.786-.724-19.8-5-22v-1l16-7c15.722-3.115,36.655,4.024,47-4l-2-2c-16.809-3.654-58.541-1.4-63,10,2.042,1.8.707,0.015,2,3l-4-2v-4c9.847-6.754,8.007-17.5,14-21q1,3.5,2,7l6-6,13-11V66l-6-3,2-3c7.335-2.931,6.541-7.566,16-9l13,11-6,5v2c9.953,7.289,29.924,21.665,33,35-7.879,4.595-9.712,12.708-6,24l11,4c-0.227-14.776-2.492-43.135,3-55l5-1v3c-6.664,1.722-7.167,54.661-5,65,19.183,1.727,34,11.108,47,19,3.277-3.029,4.828-3.5,8-1l3,2c-0.89,3.957-2.313,1.818,2,5h1q0.5-4,1-8l2,2q-1.5,33-3,66c1.555,2.949,7.818,2.3,10,6C589.465,237.32,589.178,240.22,589,245ZM532,79l18,7v1h-1c-8.763-2.818-18.692-2.427-25-6C528.37,80.866,529.658,80.589,532,79Zm-68,53c-11.136,4.045-26.3.835-34,8h2s69.79,0.414,74-4v-1h-2C494.907,130.347,477.344,131.791,464,132Zm49,13-2,2,7,1v-1C516.016,145.4,516.611,145.7,513,145Zm16,3-3,2,2,3,4,1v1l-7-1q-0.5,3.5-1,7l14,2,1-1C538.232,155.026,537.671,150.225,529,148Zm-17,1c2.865,1.625,6.7,2.42,10,1Zm26,1,4,8c5.029,1.249,8.326,2.348,12,0l-2-3Zm-27,1c-0.759,9.662-4.206,14.938,4,17v-7c-0.789-.787-0.978-4.333-1-10h-3Zm6,9h5q-0.5-4-1-8h-5v1Q516.5,156.5,517,160Zm16-5h0Zm25,3c0.7,6.9,2.283,4.776,1,9l7-2-2-3Zm-42,3v7l6,1v-7h-2Zm27,0c-1.477,3.009-2.013,5.685-2,11l7-2q-0.5-4.5-1-9h-4Zm11,0q1,2,2,4C555.088,161.349,556.038,162.955,554,161Zm-30,1q-0.5,4-1,8c5.647,1.037,11.108,2.634,17,1q-0.5-3.5-1-7Zm26,1q0.5,3,1,6Q550.5,166,550,163Zm16,3c-3.571,2.262-5.108,1.7-7,6,1.854,0.75,1.633.845,0,2q-0.5,1.5-1,3v1h1l9-4C567.944,169.462,567.8,168.253,566,166Zm8,2q-0.5,5-1,10l2-1Q574.5,172.5,574,168Zm7,4-4,3q0.5,14.5,1,29h-1q-1-9-2-18h-1c0.811,8.949-3.827,40.248,6,43Q580.5,200.5,581,172Zm-28,2,3,1Zm-8,1,4,1Zm-15,1h4l-3,1c-1.963,2.066-.375,1.035-4,2q-0.5-1-1-2Zm-139,7q1,20,2,40c4.377,2.777,8.234,7.729,14,6C390.067,224,401.035,194.615,391,183Zm102,2q0.5,6.5,1,13Q493.5,191.5,493,185Zm-119,9v7h4v-4Zm6,3v13h1l1-1C382.427,202.585,383.305,200.154,380,197Zm-5,5q0.5,7.5,1,15h1v-3C378.539,209.378,379.164,204.274,375,202Zm37,18,10,1Zm115,13q-0.5-6-1-12l-14-1v10q0.5,1.5,1,3h14Zm1,0,23,3q-0.5-6.5-1-13l-22-2v12Zm-119-6v-5h-7v3l1,2h6Zm144-3q-0.5,6-1,12l20,4V229Zm21,6c0.056,4.538.2,5.747,2,8l3-1q0.5-3,1-6Zm8,2c1.8,2.042.015,0.707,3,2C583.2,231.958,584.985,233.293,582,232Zm-156,2-12,4-1,2q1,4.5,2,9a15.164,15.164,0,0,0,12-1C427.646,242.711,429.221,237.245,426,234Zm87,0q1,7,2,14l11,1V235Zm15,1v14c10.309-.595,15.409-1.018,22,3q0.5-7.5,1-15h-3Zm56,0c-1.423,2.372-1.649,2.636-2,7l6,3V235h-4Zm-32,3v14l20-3v-7h-2Zm27,0v4h2Q580,240,579,238Zm-4,3q-0.5,3.5-1,7h3l2-1v-1q-0.5-1-1-2C576.4,241.3,577.661,242.623,575,241Zm-180,3c-3.367,2.243-3.278.63-5,5l4,1,6-5v-1h-5Zm8,1-2,6,1,1c7.284-.419,7.766-1.059,7-5Zm180,1v3l3,1C584.679,246.173,586,247.92,583,246Zm-7,3-2,1c-0.275,7.3-2.442,9.5,4,13h1C579.3,255.876,579.418,250.7,576,249Zm-6,2q-1,4-2,8h1l2-1Q570.5,254.5,570,251Zm-11,1-2,1q0.5,1.5,1,3l8,2q0.5-1,1-2-1-2-2-4h-6Zm22,1q-0.5,5.5-1,11l6-2q0.5-5,1-10ZM363,266l1,2Zm1,2,3,1v1C363.977,268.741,365.8,270.018,364,268Zm8,7,6,2v1h-6v-3Zm180,1h0Zm-174,2,8,1Zm9,1h0Zm3,106V375h-8q-0.5,5-1,10h-1V374l-8-1q-0.5,2.5-1,5h-1c-0.208-4.313-.262-4.827-2-7-0.866,2.605.4,3.492-2,2v-8h5c0.1-8.658-15.534-50.038-20-55h-1l-6,11-14-1q-0.5-2.5-1-5l-8,5-5-4v-1l7-1v3c3.5-2.67,7.96-6.7,8-10l7,3v5l7-1c9.778-25.6,31.949-15.877,51-27-2.178-3.233-4.151-4.536-7-7l9,3v-3c6.828,5.3,10.51,15.563,13,25l-6-7q1,4,2,8l7,1,5-4q-2-11-4-22h1l1,2,7,19c26.849-3.523,36.481-3.343,51-17,0.122,5.948,1.257,9.354,6,8,0.694,0.1,18.612.172,23-3l1,3q0.5,4.5,1,9v-2c3.044-4.607,3.526-9.726,8-13-1.17,26.84-1.907,46.369,6,76,2.914,10.919-5,25-5,25l4,2c-27.525.3-123.388,6.362-137-5h8Zm44-105,6,17-2-1Zm-61,84h16c0.815-4.948-.668-2.978,3-5,0.644,3.635.4,3.027,2,5h5q-0.5-7-1-14c7.042,1.134,8.155,1.243,15,0V333c-6.06-14.232-8.561-29.846-16-42-8.6,1.384-16.1,4.88-27,7-5.673,11.089-13.6,38.355-1,49h1c0.815-4.948-.668-2.978,3-5l2,6c-2.386,2.472-1.73,2.506-1,6,5.635-.3,11.111-0.276,14,2H373v8Zm81-68h0Zm76,4q0.5,1.5,1,3h-1v-3Zm-1,4q0.5,1,1,2Q529.5,305,529,304Zm-216,1h16l-1,2c-11.583,2.527-18.154,6.3-22,14h-4v-1c2.27-3.9,1.985-5.454,3-10Zm49,0-4,4c0.208,4.313.262,4.827,2,7Q361,310.5,362,305Zm-33,1h0Zm199,1q0.5,1,1,2Q528.5,308,528,307Zm-1,3q0.5,1,1,2Q527.5,311,527,310Zm-218,6h0Zm219,3q0.5,1,1,2Q528.5,320,528,319Zm-16,1-1,4h1q0.5-2,1-4h-1Zm-1,5v0Zm16,6,3,2v1h-1Zm-3,22,15,1V344h4c2.522,4.649,3.19,9.934,3,18,5.1-.2,8.465-0.019,11,2,0,0-.233,16.582,1,21,2.615,3.428,3.813,2.122,7,3v8l-11,2-2,5c3.457,7.1,9.176,8.681,13,15q-0.5,11-1,22l-7,2q1,5.5,2,11c4.076-.884,2.874-1.731,5,2-3.739,2-2.128.085-3,5l1,1,7,1v-6l18,1q1.5-24,3-48c8.27,5.18,24.687,5.147,36,8v4c-3.961-1.812-32.554,5.383-33,6-3.293,5.875-3.138,18.362-3,27,3.433,1.517,3.22.538,5,4q-1,8.5-2,17c-30.422-.206-18.076,6.9-33,16q2.5-8.5,5-17c-11.9,1.271-25.8,1.852-36-1q-1-4.5-2-9-0.5,2.5-1,5,1-7,2-14h1q0.5,3.5,1,7h8c-0.221-5.58-.825-6.056-3-9l7-3V440h-8q0.5-13,1-26c0.125,5.408-.655,4.987,3,7,1.024-10.483,7.977-10.307,12-18q-0.5-2.5-1-5h-9c5.437-3.674,4.6-27.81,2-39l-2-1c-1.672,9.214-4.7,4.672-5,15l4-1q-0.5,7-1,14c0.459-6.064.861-9.825-3-12v13c3.086,1.864,2.261-.6,2,3-11.813,3.479-16.18,18.575-20,30q2.5-4,5-8v2l3,2c-3.029,5.549-2.393,91.958-1,98l-12-1,2,3,7,2-3,4-5,1v1l22,2q0.5,1.5,1,3H516v1h6l-4,3,9,1c1.406,10.451-4.738,11.971-6,17l4-1c6.327-1.265,5.2-2.712,8-7h1v1l-6,12c-12.667.015-15.829-2.159-25-8v4l11,17c29.445,0.9,49.362,11.5,70,19,5.41,1.967,26.241,7.468,24,4,42.513-14.022,20.774,5.122,53,13q-0.5,4-1,8c-18.6,1.19-20.654-5.64-40-6-1.392,1.923-.1.6-2,2,1.336,3.923,2.15,4.1,0,7l-10-9c-2.631-5.44-7.6-7.455-13-10,8.584,18.777,17.807,36.887,38,47,3.9-5.273,37.929,10.592,56,5v-1c-5.543-3.34-11.3-5.5-18-9,7.1-1.648,20.549-4.229,26,2l-7-1q0.5,1,1,2c10.421,0.633,19.212,12.367,24,19-32.1-2.837-72.916.1-101,4l-29-2c-4.336,1.156-12.557,4.828-21,3-2.072-.448-6.318-3.47-11-2-9.3,2.92-23.588,6.737-38,3v-1c10.336-3.738,13.392-10.075,21-16,3.32,4.032,9.077,6.565,16,7v-1l-4-11,2,1,4,7c-3.592-13.978-11.373-19.592-16-34l2-2,4,2,4,8c0.313-6.006.529-8.68-3-11-6.917-4.076-37.766-3.752-44,1l5,2-15,3c1.482,2.468,1.808,3.368,2,8l-16,5c11.219,9.515,18.561,20.571,24,36l-1,2c-15.385.132-27.141-9.6-39-6a184.524,184.524,0,0,1-50,8c1.11-2.835.865-1.454,1-4-7.428-1.414-19.22-6.616-28-3l12,2c-16.591-.163-69.674-4.868-80,1l14,2c-32.132,2.019-59.955-2.371-85-9-20.955-5.546-42.373,6.273-59-4l4-5c10.607-.153,16.158-3.781,22-6,5.7-2.164,16.765,6.039,29,4l30-6c2.355-3.707,6.706-12.363,0-8l-6,1,11-18c-1.692-17.915-22.15-41.863-35-50-2.194-1.389-1.9-2.791-3,0-2.132,2.432-.588-0.1-1,4l-2-1-1-3q1-5,2-10l7,7c13.234,5.5,19.8,14.727,29,24l4-1v-7c1.992,18.379,33.22,22.585,45,10-7.9-.532-10.01-0.541-16,1,7.124-15.917,13.362-43.7,29-51l-1,2c12.611-4.394,43.659-41.171,47-53,1.668-5.906-3.981-10.447,0-16,5-6.974,15.452-14.22,18-24q-1-8.5-2-17c2.406-6.8,5.636-15.436,8-23,18.349,9.89,71.615-7.828,97,9l2-2c-0.458-4.851,1.648-13.863,5-18l2,2q-1,3.5-2,7l2-1,4-7v10l2-1c3.275-10.27,5.562-14.009,4-25,5.031-1.6,4.748-4.85,2-10,3.079-.662,2.38.764,3-5-3.583-1.782-1.184.531-3-3,3.357-.919,2.179.932,3-4l-3,2q0.5-3.5,1-7c1.881,3.343,7.735,1.589,15,1q0.5-3.5,1-7l-16-1V339h1v14Zm-122,1v10h8q0.5-5,1-10h-9Zm120,0v0ZM288,474h-6c1.521,22.857,13.268,22.512,35,31-29.062.878-28.93-11.028-38-27l-4,4q0.5-3.5,1-7c-12.444-1.963-48.406-8.853-59,0l4,1c-10.957.341-23.163,0.531-30-3a41.905,41.905,0,0,0-2-15c13.252-.54,35.164,3.052,40-6l-2-1c-3.581-.485-1.36,1.5-4-2-4.291-5.618-4.3-11.389-4-22h-7v-1q1.5-15.5,3-31h1q0.5,4,1,8h1c1.439-6.887,5.716-6.972,9-12q-4-17.5-8-35c8.358,1.626,18.512,4.482,30,6l1,2-2,2c-7.571.723-12.624,6.152-23,4v1l4,14,12,7,9-5c0.03,3.385-.6,3.178,2,6,6.425-1.178,4.167-2.638,9-1q-0.5,16-1,32l-11,2q0.5,5,1,10l10,2c-0.167,5.78-.119,7.593,3,10,4.842,3.273,16.665,3.54,23,5Q287,463.5,288,474ZM533,372v-6c-5.063-.023-4.571-0.848-7,1v3q0.5,1,1,2h6Zm-150-6c2.18,2.892,2.069,2.617,7,3v-3h-7Zm9,0c2,2.414,2.134,2.207,6,3v-3h-6Zm9,0c2.268,2.073,1.041,1.666,4,1Zm-97,1h0Zm72,0c2.268,2.073,1.041,1.666,4,1Zm170,0q0.5,3,1,6h6v-6h-7Zm-170,3c2.268,2.073,1.041,1.666,4,1Zm6,0c1.964,3.728-.428,1.635,4,3v-3h-4Zm10,0v0Zm-5,1c1.344,2.682,2.318,2.921,3,0h-3Zm8,0c1.8,2.042.015,0.707,3,2C396.2,370.958,397.985,372.293,395,371Zm131,15h7V374h-7v12Zm20,1h7V375C544.872,374.314,544.97,377.093,546,387ZM392,376q0.5,4,1,8Q392.5,380,392,376Zm-24,1,1,3h-1v-3Zm27,0q0.5,3.5,1,7Q395.5,380.5,395,377Zm2,0q0.5,3.5,1,7Q397.5,380.5,397,377Zm3,4v4h1Zm-30,2c2.543,2.8,1.254,4.417,0,6v3h-2v-2q-0.5-3-1-6C370.156,383.809,368.41,385.733,370,383Zm50,2h0Zm-17,1h0Zm67,0h0Zm-241,2,2,4,3-2Zm136,4,1,3h-1v-3Zm30,6h4v1Zm-152,1c0.815,4.948-.668,2.978,3,5v-5h-3Zm6,0q0.5,3,1,6h1v-6h-2Zm5,0q0.5,3.5,1,7Q254.5,402.5,254,399Zm3,0q0.5,3.5,1,7h1v-7h-2Zm281,0h0Zm-2,1h0Zm-315,4q-0.5,2.5-1,5l2,1Q221.5,407,221,404Zm-4,1q0.5,2.5,1,5Q217.5,407.5,217,405Zm26,2v8h3v-8h-3Zm6,1q0.5,4.5,1,9h1v-9h-2Zm5,0q0.5,5,1,10Q254.5,413,254,408Zm4,0q0.5,5,1,10Q258.5,413,258,408Zm271,2c1.308,2.72.442,1.923-1,4Q528.5,412,529,410Zm-313,2q0.5,2.5,1,5h1v-5h-2Zm4,0q-0.5,2.5-1,5h4v-5h-3Zm185,0,1,2Zm122,3q0.5,1,1,2Q527.5,416,527,415Zm-281,4c-1.5,3.868-2.12,8.617-2,15h1l1-2V419Zm280,0v0Zm34,1v2C560.977,420.255,560.912,421.78,560,420Zm-9,1v0Zm4,0v3q0.5-1.5,1-3h-1Zm-20,3v10h3V424h-3Zm5,0q-0.5,4-1,8l2,1v-2C542.3,427.791,542.244,426.21,540,424Zm6,0c0.124,3.973-.9,2.068,1,5h1q0.5-1,1-2C547.627,425.1,548.027,425.364,546,424Zm16,0c-1.667,3.2-2.534,4.816,0,8h1Q562.5,428,562,424Zm-9,1v0Zm-331,2c-2.543,7.973-.205,18.554,4,23C226.486,441.506,231.223,428.661,222,427Zm301,5q0.5,1.5,1,3h-1v-3Zm-6,5q-0.5,9-1,18c-3.828-2.625-6.414-5.719-11-6l-3,1v25h1c5.939-4.389,7.5-13.408,10-21h1v11q0.5-3,1-6,0.5,1.5,1,3C517.114,454.837,522.058,443.682,517,437Zm8,8v0Zm28,3q0.5,2.5,1,5,0.5-1.5,1-3Zm-3,8c-0.086,5.555-.67,5.977,3,8v-1C552.159,460.419,551.474,457.764,550,456Zm6,0v0Zm15,2v3h4l2-1v-1l-1-1h-5Zm7,0v3h8v-3h-8Zm11,1q0.5,1,1,2,0.5-1,1-2h-2Zm-59,12h8v-8h-9v1Q529.5,467.5,530,471Zm36-8-3,8h3l3-1v-7h-3Zm10,0h-5q-0.5,4-1,8l6,1v-9Zm2,0v8h8q0.5-4,1-8h-9Zm11,0q0.5,4,1,8Q589.5,467,589,463Zm-395,3c0.112,4.406-.091,4.935,2,7Q195,469.5,194,466Zm71,1,18,6-2-3Zm237,10c2.794,1.847.137,0.722,4,1ZM282,514h5c0.815-4.948-.668-2.978,3-5,2.118,2.165,3.444,1.993,8,2l1-4q0.5,5.5,1,11h-1q-0.5-2.5-1-5h-8v3l8,1h-8v4l7,1-2,3-46-2h2c4.051,3.556,5.539,5.619,8,11-12.855-7.451-31.971-11.881-37,8l20,11c7.382-2.536,20.447-11.058,22-11a28.624,28.624,0,0,1,11,15l-13-12c-27.244,17.567-39.227-4.958-45-2-2.787,2.892-2.348,8.934-4,13h-1c-1.309-8.041-4.121-4.975-5-14l1-3c14.234,2.689,18.247-11.023,31-16q-1-7.5-2-15l13,1q-1-4-2-8H230q0.5-11.5,1-23l2,2q-1,9-2,18l14-3-4-4-3-7c13,4.364,28.669,12.877,41,12v-4c-1.274-.615-2.022-0.022-1-1,1.392-1.923.1-.6,2-2l4,13c-2.042,1.8-.707.015-2,3-3.826-3.084-7.658-1.381-15-2v5H253c-1.307,4-.51,5.9,1,9l32,6-3-3,5-1h-7l-3-13,3-1Q281.5,509.5,282,514Zm-45-32,1,2Zm111,1c6.167,1.6,12.441,35.107,7,38-15.44-9.886-45.912,67.193-56,73l6-17c-3.588-1.056-2.716.337-2-5l-11,12-2-2c5.077-19.626,13.376-42.01,14-57l2-1,2,4C325.357,516.33,341.37,505.97,348,483Zm41,2c0.241,11.029-1.786,17.206-4,25l5-2q2-9.5,4-19Zm170,6q-0.5,4.5-1,9h-1Q558,495.5,559,491Zm-44,4v0Zm47,0c2.01,4.757,6.033,12.3,7,15v20l9,6c2.954,5.8,3.8,9.346,6,14l2-2c-2.182-6.914-1.679-21.443,2-26h1v2c3.184,8.139,4.255,24.011,5,31h-1c-4.992-.44-4.295,1.667-9,0-7.731-16.648-36.263-11.953-40-38l2,1c2.209,6.423,6.369,10.007,12,13h1l-3-6,7,2C560.129,520.059,560.568,503.155,562,495Zm-46,5q0.5,2.5,1,5Q516.5,502.5,516,500Zm40,0v0Zm-279,4,1,2Zm172,0c-18.675,10.356-24.287,19.945-17,45h8l-7,11,12-2q0.5-14,1-28,0.5,14,1,28l16-3q0.5-6,1-12,0.5,5.5,1,11,1-8.5,2-17,2.5,10.5,5,21l5-1C479.919,527.608,481.03,502.907,449,504Zm106,1v8h-1Q554.5,509,555,505Zm-252,3c1.84,2.3,2.432,3.774,1,7Q303.5,511.5,303,508Zm-61,3c2.138,2.3,4.8,2.5,8,1Zm311,3v0Zm-311,1c2.154,2.344,5.749,2.589,9,1Zm60,0q0.5,4,1,8h-1l-2-2C302.1,518.948,301.635,519.237,302,515Zm-59,3c2.138,2.3,4.8,2.5,8,1Zm55,15c0.907,2.573,2.588,1.482,0,3l-3,2Zm3,0h3v1C300.883,533.464,303.1,535.365,301,533Zm104,2-1,2,2-2h-1Zm-2,3-5,7,6-6Zm45,4,1,2Zm6,1h0Zm86,4c4.069,6,3.611,10.6,2,18h-4Q539,556,540,547Zm-224,5-1,2,2-2h-1Zm-41,5,1,3h-1v-3Zm1,3v0Zm1,4c3.343,6.552.228,14.77-3,21Zm45,1c-5.047,8.274-8.559,17.632-12,28l3-1C314.514,587.642,325.866,572.244,322,565Zm276,5,3,12h-1Q599,576,598,570Zm-154,2-5,2,22-1v-1H444Zm-207,4,2,3Zm41,1v7h-1v-3Zm118,2c-6.208,8.172-15.207,15.653-18,27C381.458,603.265,397.874,581.139,396,579Zm346,0h0Zm-143,5q0.5,1,1,2Q599.5,585,599,584Zm-158,3,2,1Zm164,3h0Zm-354,6q1,2,2,4l-2-1v-3Zm170,0-1,2v1c3.657-.494,9.807-0.841,12-3H421Zm-6,1-1,2v1l5-1v-1Zm-14,2v2c-1.817.8-6.043,6.5-7,11-3.966-2.611-.459-2.093-5,0-4.281,10.671-22.575,27.843-38,28v-1l2-3c6.308-3.014,14.462-13.182,18-19l-7,7-28,21,1-3-18,11,1-3-8,4v-1l4-8-1-1c-5.432,3.364-15.3,10.382-24,7h2c12.276-10.535,15.876-21.437,28-33-17.314,4.792-38.417,11.945-46,27,2.466,3.342,2.6,3.747,2,8l-24,7v1l51-6,20,4c25.588,0.738,49.7-9.574,59-19-4.056.742-1.3-1.992,1-4v-2c7.055,3.291,27.019-11.151,42-13l-5-2c13.812-1.627,43.532,3.823,56-3v-1l-58-1,1-2,50-3-53-1,1-3c4.841,1.424,10.163,1.1,12-4H413l-3,9v-8Zm-148,1,2,3Zm179,1-1,3v1c18.238-.879,48.9,2.655,64-4H432ZM250,618h3v3c-4.178.416-3.477,0.935-7,4v-3l2-3Zm408,0v0Zm-409,4q0.5,1,1,2Q249.5,623,249,622Zm214,0h0Zm97,1q1,9.5,2,19c2.366-.278,1.247.222,4-1l-1-1C565.381,634.8,565.144,626.6,560,623Zm99,2q0.5,1,1,2Q659.5,626,659,625Zm1,2,2,3Zm5,6,2,3Zm24,0h0Zm-457,5h3v1l-10,4Zm331,12q-0.5,1.5-1,3l2-3h-1Zm-253,4h0Zm-17,14,19,1Z"/>
  <path id="Color_Fill_4" data-name="Color Fill 4" class="cls-3" d="M469,51c7.217,1.032,13.26,6.371,17,11l-1,2c-6.3,2.188-4.5,4.9-9,0l-4-2,3-1V60c-8.122-1-9.542-1.012-17,1v2c14.727-.078,21.2,9.626,31,17l-4-6a125.285,125.285,0,0,1,21,19l-35-3-34,4,4-6-3,3-2-1q0.5-5.5,1-11h3q1,3.5,2,7l6-6,13-11V66l-6-3,2-3C462.437,58.01,464.769,54.311,469,51Zm54,25h3c-4.84,12.068-5.35,44.552-5,66l-4-1q-0.5-3.5-1-7c-28.47-3.727-67.388-5.136-92,4l-2-4,13-5c-2.633-8.932-.675-16.422,1-23l6-2c3,3.317.476,2.637,4,2,0.024-3.062-.962-1.4,1-4,10.963,3.383,15.1,1,25-2,13.732-4.162,28.847,4.174,35,6,1.865-8.4,2.087-5.784-1-13,3.909,2.889,5.814,5.211,7,11-7.879,4.595-9.712,12.708-6,24l11,4c-0.227-14.776-2.492-43.135,3-55Zm9,3,18,7v1h-1c-8.763-2.818-18.692-2.427-25-6C528.37,80.866,529.658,80.589,532,79ZM426,100v0Zm31,25,39,1Zm38,18,34,6c-3.177,2.628-1.931-.017-1,4l4,1v1l-7-1q-0.5,3.5-1,7l14,2,1-1c-1.051-7.331-1.635-8.083-6-14l1-1a175.046,175.046,0,0,1,34,16c2.045-1.994.781-1.595,4-3v7c-2.618,1.013-2.339,5.911-5,11l-17,3,7-4v-1l-17,2q0.5-2.5,1-5l-10-1,9-1q-0.5-3.5-1-7l-16-1v7l7,2c-29.765-.037-68.291-8.435-98,0-7.094,2.014-21.289,4.058-23,1l2,1c2.929-3.412,14.438-3.61,18-9q0.5-8,1-16C432.752,148.77,492.667,144.6,495,143Zm32,2h0Zm3,1h0Zm-18,3c2.865,1.625,6.7,2.42,10,1Zm-132,1,1,2Zm10,0c5.387,2.318,4.752,19.819,4,24l-6-1q-1-2.5-2-5c2.545-3.607,3.527-3.607,4-10-5-.6-3.847,1.035-5-5l5,2v-5Zm101,0,1,2,1-2h-2Zm47,0,4,8c5.029,1.249,8.326,2.348,12,0l-2-3Zm-173,1c7.978,2.779,10.155,2.295,18,3l-5,4,1,2h7v1c-10.871.338-31.592-3.328-34-8Zm146,0c-0.759,9.662-4.206,14.938,4,17v-7C513.93,159.769,515.874,153.683,511,151Zm6,9h5q-0.5-4-1-8h-5v1Q516.5,156.5,517,160Zm-126-7q0.5,4.5,1,9Q391.5,157.5,391,153Zm142,2h0Zm25,3c0.7,6.9,2.283,4.776,1,9l7-2-2-3Zm15,2q0.5,1,1,2Q573.5,161,573,160Zm-57,1v7l6,1v-7h-2Zm27,0c-1.477,3.009-2.013,5.685-2,11l7-2q-0.5-4.5-1-9h-4Zm11,0q1,2,2,4C555.088,161.349,556.038,162.955,554,161Zm28,0,3,2-3,4v-6Zm-6,1,3,2v1l-3,1v-4Zm-26,1q0.5,3,1,6Q550.5,166,550,163Zm16,3c-3.571,2.262-5.108,1.7-7,6,1.854,0.75,1.633.845,0,2q-0.5,1.5-1,3v1h1l9-4C567.944,169.462,567.8,168.253,566,166Zm11,1,5,2c-1.363,4.453-1.589,3.91-5,6v-8Zm7,0v0Zm-198,7c7.351,2.161,13.3,2.025,18,7l-1,2-3,2-2-1-1-5c-8.563-.609-17.335.38-17,6l-6-2,3-4Zm167,0,3,1Zm-205,1c38.567,18.717,7.844,20.131,21,55h1c0.117-14.57,1.922-31.888,1-37,3.918-1.356,11.478-4.58,12-3,5.642,8.008,1.784,24.967,6,35q0.5-6.5,1-13,1,7.5,2,15c-3.973.124-2.068-.9-5,1h2c6.147,2.594,10.908,2.649,15,7-14.748-.25-28.941.349-40,3l1,2,3,2-4-1q1.5-25,3-50c-11.386,1.941-16.612,2.664-28,4v-1c4.823-4.228,9.987-6.794,13-10h1l5,7,6-3-1-2c-5.012-1.984-6.509-3.685-14-4Q348.5,178.5,348,175Zm197,0,4,1Zm-136,1,11,6v1l-10-3Zm168,3c2.315,4.959,1.131,16.042-1,20Q576.5,189,577,179Zm-47,4,11,1Zm13,0h0Zm28,5v0Zm3,0q0.5,1,1,2Q574.5,189,574,188Zm-83,1,3,20-2-1C490.389,201.543,490.692,197.252,491,189Zm-90,1c2.964,1.832,3.006,3.439,5,6-4.5,5.509-2.916,7.581-4,13l-1-3c-4.134-1.527-2.4,1.293-4-3,3.872-.03,3.513,1.636,4-4C400.086,197.967,400.8,195.629,401,190Zm94,0q0.5,9,1,18v-2Q495.5,198,495,190Zm-98,1v0Zm13,37,15,3v1l-21-5h5v-5l-9,2q-1-5.5-2-11l4-1v9h7V191l1,2C413.487,200.445,410.731,219.929,410,228Zm102-9c21.366-.268,38.374,3.791,56,6q-0.5,1-1,2l-14-3q-0.5,6-1,12l20,5v1h-1l-19-4v14c7.33-.9,17.093-4.614,20,0-3.235.627-3.677,0.7-4,7,3.926,1.051,2.262-.945,3,4l-6-4c1.493-4.349.943-1.8,0-7h-5c-2.836,2.706-1.918.374-2,4l-7-2V237l-23-2q-0.5,7-1,14h-1V235l-13-1q0.5,5,1,10c-2.3.27-2.946,0.5-6,2l6,5c-22.644-.311-65.636-3.041-83,4h73l-88,3-36,4,6-1v-1l-25,4,2-4c5.839-2.021,8.707-4.243,10-11,10.306,0.132,12.86-3.1,21,1l10-9,2,1,1,3v1c-4.98.4-2.455-1.8-5,2l-1,3,1,1,9-2q-1-4.5-2-9l2,1c3.288,0.822,2.873,4.581,6,8l10-2q0.5-7,1-14l5-1h-5q0.5-6.5,1-13l-6-1h6V199c33.44-3.532,56.543-16.205,70,19l-3,1H443c23.96,0.164,49.917,3.749,67,0q1-6.5,2-13v13Zm-12-26v0Zm81,0v0Zm2,0v0Zm-209,1c0.279,6.617.4,5.2,4,8-3.7,1.652-5.105,9.149-2,15l2-4q0.5,4.5,1,9,0.5-6,1-12h1q0.5,7,1,14h1l1-1c0.724-6.986,2.912-19.888-1-25-2.624.728-.037,0.1-3-1q-0.5,2.5-1,5C378.365,196.521,378.017,196,374,194Zm200,0v0Zm-74,6v0Zm77,0h2q-0.5,2-1,4h-1v-4Zm-5,4c4.908,13.514-.169,16.51,8,27h-7l-4-5C573.794,223.353,572.365,211.27,572,204Zm10,2v0Zm-2,12v0Zm-168,2,10,1Zm115,13q-0.5-6-1-12l-14-1v10q0.5,1.5,1,3h14Zm1,0,23,3q-0.5-6.5-1-13l-22-2v12Zm39-6h0Zm22,18c12.411-.345,20.778,4.183,26,11-5.075-.5-1.029,1.293-5,1-1.616-3.416-1.628-3.346-5-5,18.5,42.536-53,63.133-77,77q1-4,2-8v4c24.958-4.857,92.276-39.831,71-76l-12-2q-1.5,9-3,18l-10,4c2.831-3.766,5.634-4.758,10-7q0.5-5,1-10l-6,1q0.5-5,1-10l6,2V235h-6v-1h3c-1.511-2.606-1.708-1.755-3-5l10,3ZM459,232h0Zm-35,2h0Zm-3,1h0Zm-3,1h0Zm161,0v17c-1.848-5.652-1.383-2.432-5-4l5-3q-0.5-2-1-4l-3-1q-0.5,2-1,4v-8C576.843,237,576.295,237.619,579,236Zm-168,7v0Zm-42,3v0Zm120,0c3.727,1.914,12.61,3.055,17,1Zm94,0v3l3,1C584.679,246.173,586,247.92,583,246Zm-47,2,8,1Zm37,3,2,5h-2v-5Zm4,2h2c-1.392,1.923-.1.6-2,2v-2Zm-154,2,3,1Zm-36,4,3,1Zm175,0,9,6-10-2Q561.5,261,562,259Zm51,0q0.5,1,1,2Q613.5,260,613,259Zm-33,1q0.5,1,1,2Q580.5,261,580,260Zm-216,1v0Zm210,1c3.583,1.782,1.184-.531,3,3h-1Zm-210,7h0Zm211,0c1.86,2.573.082,1.584-2,3Zm-9,3h2c-2.286,1.525-1.215,1.826-4,1Zm-194,3,4,2v1C371.528,276.693,373.991,278.662,372,275Zm262,0q0.5,1,1,2Q634.5,276,634,275Zm-8,1q0.5,1,1,2Q626.5,277,626,276Zm9,1q0.5,1,1,2Q635.5,278,635,277Zm-257,1h0Zm258,2q0.5,1,1,2Q636.5,281,636,280Zm-237,2,9,15v3l-2-1Zm-5,2c1.923,1.392.6,0.1,2,2Zm243,0q0.5,1,1,2Q637.5,285,637,284Zm-241,2,3,7c-5.734-2.39-18.849,2.845-29,5-4.951,10.687-3.355,24.118-8,36q-0.5-4-1-8-0.5,5-1,10c0.528-13.745-2.824-19.305-9-26h-1c-1.456,6.217-4.953,10.941-13,11-0.37-2.509-.222-2.081-2-5,3.077-3.137,3.8-1.084,10-2,3.608-9.452,18.889-22.087,27-24C378,288.584,384.5,299.194,396,286Zm242,2v0Zm-12,5v7h-1C624.961,294.837,624.508,296.179,626,293Zm7,1,2,2h-3Q632.5,295,633,294ZM390,385V375c-8.441.558-7.63,3.837-10-1-8.508-2.085-10.689-20.454-13-28,3.431-.841,1.769-1.808,6-4l2,6c-2.386,2.472-1.73,2.506-1,6,5.635-.3,11.111-0.276,14,2H373v8h16c0.815-4.948-.668-2.978,3-5,0.644,3.635.4,3.027,2,5h5q-0.5-7-1-14c7.042,1.134,8.155,1.243,15,0V333l-7-23h1l4,11h1a24.473,24.473,0,0,1,9-15c16.835,2.912,61.914-17.706,77-2l-14,1v1c8.1,0.067,12.407,1.882,17,5,7.2,25.522,5.6,46.65,11,73-17.779,3.856-107.854,1.724-112-3-1.457,5.081-11.015,6.613-16,4h6Zm249-86v0Zm-15,1v0Zm-94,1q0.5,1,1,2Q530.5,302,530,301Zm100,1c2.453,5.1.511,7.754-3,10Zm-317,3h12v1h-2l-19,8C305.82,308.682,308.96,307.869,313,305Zm49,0-4,4c0.208,4.313.262,4.827,2,7Q361,310.5,362,305Zm261,0q0.5,1.5,1,3h-1v-3Zm17,0c1.691,4.038.457,7.4-2,10Q639,310,640,305Zm-177,1c-12,5.115-26.193,3.029-34,12,11.558-5.419,27.888-7.713,42-11v-1h-8Zm-58,2,1,2Zm217,0v6l4-1-2,3-3,1h-1v-5Q621,310,622,308Zm-286,2h0Zm138,19c-2.919,5.222-3.625,13.522-2,21l12,1q-0.5-10.5-1-21Zm53,2,3,2v1h-1Zm-164,4,1,3h-1v-3Zm161,18,15,1v1l-16-1V339h1v14ZM362,341l1,3h-1v-3Zm177,3c7.023,1.093,9.908,10.7,6,18q-0.5-7.5-1-15c-3.59.722-2.873,0.7-5,2v-5Zm-49,8-2,1v1C490.467,352.617,490.44,354.109,490,352Zm-88,2v10h8q0.5-5,1-10h-9Zm-183,2c8.358,1.626,18.512,4.482,30,6l1,2-2,2c-7.571.723-12.624,6.152-23,4v1l4,14,12,7,9-5c0.03,3.385-.6,3.178,2,6,6.425-1.178,4.167-2.638,9-1q-0.5,16-1,32l-9,1c2.419-3.335,6.129-10.284,3-17q-0.5,4-1,8l-1-3c-0.208,4.313-.262,4.827-2,7h-1v-3c2.344-2.154,2.589-5.749,1-9h-1q-0.5,3.5-1,7-0.5-12.5-1-25l-1,2-3,10h-1q-1-4-2-8c-1.5.839-9.418,3.105-12,5,4.93,2.428,5.378,5.377,5,13l-2-1q-0.5-2-1-4h-1v6c6.789,1.308,7.827,3.066,15,7h-2l-25,3v2l5,1h-2l-8,1v-1q1.5-15.5,3-31h1q0.5,4,1,8h1c1.439-6.887,5.716-6.972,9-12Q223,373.5,219,356Zm319,6q0.5-2.5,1-5v6l-6,6c-3.06-6.689-8.042-3.759-11-1q0.5-3.5,1-7C524.881,364.343,530.735,362.589,538,362Zm-315-1,4,8,8,1,10-6v-1Zm342,35-11,2-2,5c2.445,4.988,11.9,26,1,33l-19,4q0.5-13,1-26c0.125,5.408-.655,4.987,3,7,1.024-10.483,7.977-10.307,12-18-2.843-8.707,5.84-23.894,3-28-1.363-1.971-5.39-.349-7-3l7,1v-6l-8-4c4.778-.836,8.7-1.628,12,1,0,0-.233,16.582,1,21,2.615,3.428,3.813,2.122,7,3v8ZM366,365h3v3l-3-2v-1Zm17,1c2.18,2.892,2.069,2.617,7,3v-3h-7Zm9,0c2,2.414,2.134,2.207,6,3v-3h-6Zm9,0c2.268,2.073,1.041,1.666,4,1Zm-97,1h0Zm72,0c2.268,2.073,1.041,1.666,4,1Zm137,0,3,3q-0.5,5.5-1,11l-2,1V367Zm32,1q0.5,1,1,2Q545.5,369,545,368Zm-169,2c2.268,2.073,1.041,1.666,4,1Zm6,0c1.964,3.728-.428,1.635,4,3v-3h-4Zm10,0v3l1-3h-1Zm130,0c1.9,1.373,1.636.973,3,3h-3v-3Zm-135,1c1.344,2.682,2.318,2.921,3,0h-3Zm8,0c1.8,2.042.015,0.707,3,2C396.2,370.958,397.985,372.293,395,371Zm131,0,7,2v1h-7v-3Zm9,2h0Zm-143,3q0.5,4,1,8Q392.5,380,392,376Zm3,1q0.5,3.5,1,7Q395.5,380.5,395,377Zm2,0q0.5,3.5,1,7Q397.5,380.5,397,377Zm125,1h3C522.343,379.393,524.366,379.845,522,378Zm-142,1c2.1,2.052,1.635,1.763,2,6l-2-1v-5Zm165,0v0Zm-21,5,2,5c1.978-3.718,1.621-2.838,7-3q-0.5,2-1,4c-5.938.092-7.309-.184-10-3l2-1v-2Zm-91,2,77,3c-16.984,1.68-109.368,4.211-119-1Zm102,1h2C535.255,387.977,536.78,387.912,535,387Zm-306,1,2,4,3-2Zm136,4,1,3h-1v-3Zm-116,7q0.5,3,1,6h1v-6h-2Zm5,0q0.5,3.5,1,7Q254.5,402.5,254,399Zm3,0q0.5,3.5,1,7h1v-7h-2Zm-36,5q-0.5,2.5-1,5l2,1Q221.5,407,221,404Zm22,0,1,2Zm-26,1q0.5,2.5,1,5Q217.5,407.5,217,405Zm41,3q0.5,5,1,10Q258.5,413,258,408Zm332,1,5,4c9.365-2.031,22.365,1.537,31,4v4c-3.2-1.34-28.951,3.018-33,4q1-2,2-4c9.678,0.657,13.025-.221,20-3v-2c-8.663-.582-17.241-2.7-21,3-5.637,6.654-.689,14.965-4,24V409Zm-374,3q0.5,2.5,1,5h1v-5h-2Zm4,0q-0.5,2.5-1,5h4v-5h-3Zm339,0c3.212,1.991,4.076,2.6,6,6q-0.5,11-1,22h-3v-3l2-3-4,2C558.957,420.745,560.43,423.135,559,412Zm-157,6c24.753,10.479,67.322-6.154,97,11,1.839,7.727,2.726,16.989,4,20-7.191,3.862-8.288,20.112-8,31,4.925,2.661,11.887,3.323,18,6h-2c-2.3,2-3.345,2.088-5,5,3.108,1.162,1.934,4.706,2,12l-7,2q2,7.5,4,15l-4-1q-2,15.5-4,31l-2-1c-2.917-8.423-3.167-31.205-9-38,3.4,26.964,2.867,39.916,14,58,30.545-.511,72.529,8.092,89,26,13.464,14.639,34.127,61.3,51,67q-0.5,1.5-1,3c-24.108-.115-44.744.914-66,1l-20-2c-9.009,2.832-16.635,4.054-31,4q0.5-1.5,1-3l13-6c15.831-4.1,36.795,4.775,50,1v-1c-3.182-4.353-6.8-8.029-8-14,12.316-.733,13.007-9.356,29-5v-1l-33-41c-3.361,5.333-5.3-.05-12-1v1l6,16c-34.557-12.593-99.5,13.554-138-2l50-3v-1H433l1-2,87-5q1-3,2-6c-8.972,4.091-67.374,12.123-85,5v-1c20.934-4.069,60.72,3.379,75-4-12.76-1.557-69.49,6.326-79-1h2l3-5,64-2c-10.541-1.673-58.445,3.685-66-2,3.961-2.586,1.738-3.42,4-8l36-3,2-2c-3-3.827-1.05-9.214-1-16,0.3-40.508,2.038-63.153-42-51-11.923,16.836-2.138,31.807-9,48l10-2-12,15,9,3c-6.579,10.019-10.528,19.3-21,28q1-3.5,2-7l-2,1-2,5c-1.305-2.521-1.155-1.428-1-4-2.212,2.063-1.882,1.382-3,5l-3-2-2-6v2l-19,22h-4c4.125-19.508,20.43-29.348,28-46a65.072,65.072,0,0,0-30,29l8-7c-14.1,28.831-32.2,39.705-59,56-1.839-3.547-2.336-1.57-7-3q-1-3.5-2-7l-5,3c6.749-21.6,26.663-19.378,36-36l-1-1c-19.723,13.07-44.359,21.725-67,33l-2-5c3.917-11.252,3.124-16.91-4-26-11.664-5.212-23.459-24.233-31-34,22.637,9.2,37.5,47.792,76,30,9.1-4.207,14.823-8.061,17-19l-6,5v-4l-9,8,3-11-3,2c3.418-23.389,19.133-37.806,33-51l44,1c0.631,5.789,1.194,5.026,4,8-12.435,1.626-22.009,18.888-24,31h1l3-2c6.312-17.94,12.811-14.187,25-24,6.457-5.2,8.468-27.608,11-36-7.415,4.5-10.571,12.907-20,15l1-3c17.076-20.9,25.136-14.353,50-26l-40,6v1l5,1v1c-9.791.645-12.355,4.744-20,7l10-18h-1l-4,4c-0.95-5.725-1.961-4.3-3-10q1-4.5,2-9c3.081,2.687,4.264,5.869,8,8l-4-6,1-1,12,6-20-16-3,2q-0.5,2.5-1,5h-1v-3C395.841,456.406,399.812,436.135,402,418Zm149,3v0Zm4,0v0Zm-20,3v10h3V424h-3Zm5,0q-0.5,4-1,8l2,1v-2C542.3,427.791,542.244,426.21,540,424Zm6,0c0.124,3.973-.9,2.068,1,5h1q0.5-1,1-2C547.627,425.1,548.027,425.364,546,424Zm16,0c-1.667,3.2-2.534,4.816,0,8h1Q562.5,428,562,424Zm-9,1v0Zm39,0q0.5,1,1,2Q592.5,426,592,425Zm-365,2c3.635,0.644,3.027.4,5,2h-2l-3,2v-4Zm364,1q0.5,1,1,2Q591.5,429,591,428Zm-372,3v0Zm30,3c3.8,3.388,6.45,3.321,11,4-0.167,5.78-.119,7.593,3,10,4.842,3.273,16.665,3.54,23,5l1,2q0.5,6,1,12H276c-14.175-4.321-41.833-10.737-55,0a205.167,205.167,0,0,1,42,2v2l-61-1-3-8h-1q0.5,5.5,1,11l-2-1v-2l-3-13h33c1.606-3.586,2.646-7.573,5-11l1,2c0.425,2.6-.976.546,1,3l1-3c0.656,3.807,1.05,4.838,3,7q0.5-4,1-8h2v8c6.635,1.78,11.006,5.969,16,1C254,447.956,250.21,443.813,249,434Zm-18,1,1,2Zm357,0c3.135,7.911,4.131,17.226,7,23q-1,8.5-2,17h-6q1-6,2-12,0.5,4,1,8Q589,453,588,435Zm-358,3c1.39,1.632,1.12,2.911,1,8l-2-1Q229.5,441.5,230,438Zm-10,2,6,10q0.5-2.5,1-5,0.5,3.5,1,7h-3l-2-3A12.9,12.9,0,0,1,220,440Zm322,0,4,1-2,1-2,3v-5Zm-317,1,1,2Zm362,16q0.5-6,1-12c0.813,8.933,1.631,16.518-6,18v-2c4.472-1.307,2.009.662,4-3l-17-2Zm-49,14v-8c-4.69.138-6.841,0.184-9-2l9,1c-0.282-5.84-1.278-6.379-3-10,9.353-.678,5.98-0.637,11-6v2c2.868,7.309-4.582,17.681-4,23h-4Zm19-23q0.5,1,1,2Q557.5,449,557,448Zm1,3q0.5,1,1,2Q558.5,452,558,451Zm2,1h4v3c-3.431,1.669-1.985,1.388-4,4v-7Zm-33,3v0Zm-338,3h4q0.5,8.5,1,17l-3-2A41.905,41.905,0,0,0,189,458Zm381,1c2.594,1.487,5.975,1.208,8,2v1C571.162,462.263,570.813,462.465,570,459Zm-368,2c0.208,4.313.262,4.827,2,7Q203,464.5,202,461Zm377,0h2C579.255,461.977,580.78,461.912,579,461Zm-50,4v6q-0.5-1.5-1-3Q528.5,466.5,529,465Zm48,2q0.5,2,1,4l-2-2Q576.5,468,577,467Zm-293,1h4v2C284.349,469.088,285.955,470.038,284,468Zm285,0c-0.739,2.88,1.3,1.878-3,4Zm-283,4h2c-1.8,2.042-.015.707-3,2Zm289,2h2c-2.286,1.525-1.215,1.826-4,1Zm-296,1h3q-0.5,3-1,6l-1-3C277.918,475.62,279.126,478.16,279,475Zm103,2c8.134,7.025,3.281,36.446-1,45-6.406,2.287-10.738,6.164-19,4l1-2c3.989-1.418,4.162-1.437,6-5l-3,2,14-21C383.457,493.008,380,481.154,382,477Zm-34,6c9.228,3.313,7.673,16.529,7,31l-19,21-27,11c-4.544,2.881-5.546,8.275-11,11l2-4,7-12c-3.455-.444,6.518-21.4,11-24l11-2,2-1C338.935,504.853,343.846,496.051,348,483Zm-118,1c2.187,2.033,2.9,15.909,3,17h-3V484Zm149,1v0Zm184,0c1.838,2.738-.131,4.538-3,6Zm-324,1,1,2Zm2,3,1,2Zm318,3q0.5,1,1,2Q559.5,493,559,492Zm-314,2c7.358,2.928,19.789,2.366,29,4l1,2-41-3C239.514,497.129,242.517,496.8,245,494Zm34,1c2.991,2.265,3.726,2.714,5,7-2.042,1.8-.707.015-2,3l-1-3C278.816,499.665,279.561,498.845,279,495Zm119,0c1.308,2.72.442,1.923-1,4Zm160,0q0.5,1,1,2Q558.5,496,558,495Zm4,0c3.693,8.224,4.213,30.439,7,35,3.109,5.088,10.1,2.178,8,11l-2-3v5c-4.986-2.32-9.857-4.76-13-9,1.083-4.41.476-2.672-3-7C563.915,525.29,560.923,503.365,562,495Zm-166,4c0.834,2.174.272,1.838-1,4Zm-162,1h4v1Zm63,0h0Zm5,3,2,2C302.077,503.608,303.4,504.9,302,503Zm92,0,1,2Zm-153,5c2.7,1.6,1.377.339,3,3C242.1,509.627,242.364,510.027,241,508Zm314,0q0.5,1.5,1,3h-1v-3Zm-318,1,2,6-2-1v-5Zm44,0v0Zm23,0,1,2Zm-60,4h2c-1.392,1.923-.1.6-2,2v-2Zm38,1h4v4C281.8,516.463,283.552,518.184,282,514Zm-43,2c1.869,3.464,2.116,4.072,0,7v-7Zm6,1h4v1Zm97,2c-3.532,6.571-8.26,9.876-13,15C332.954,532.26,346.031,524.064,342,519Zm-57,1h0Zm302,2h2c2.085,10.158.023,20.7-2,29h-4l-3-6c4.147,2.9,2.836,3.7,6,3C583.821,540.677,584.95,528.482,587,522Zm-352,2h0Zm5,1h0Zm-4,1h4v1Zm9,0h0Zm264,0h4v1Zm-275,1h0Zm71,0,4,1-1,2-3,1v-4Zm-76,1h2l-9,14,20,11c8.326-2.742,13.62-5.832,20-10l4,4c-9.752-2.145-13.553,10.5-28,7-7.465-1.811-16.151-13.91-21-11-2.787,2.892-2.348,8.934-4,13h-1c-1.309-8.041-4.121-4.975-5-14l1-3C219.089,541.358,222.4,535.188,229,528Zm279,8,1,2Zm-1,3v0Zm-181,3-18,35C309.269,560.638,316.563,554.437,326,542Zm182,1,1,2Zm82,1q0.5,1,1,2Q590.5,545,590,544Zm1,2q0.5,1,1,2Q591.5,547,591,546Zm-125,2,7,21c-12.534-.334-28.955-1.262-37,3,1.372-3.6.9-3.172,4-5l27-2c-1.722-1.231-2.62-1.329-4-3C466.023,559.189,466.255,554.1,466,548Zm126,0q0.5,1,1,2Q592.5,549,592,548Zm1,2q0.5,1,1,2Q593.5,551,593,550Zm-322,2,1,2Zm217,1q0.5,5,1,10c1.915,2.728,2.5,2.776,6,4Zm-212,8,1,3h-1v-3Zm-41,1,7,6C237.662,566.6,236.669,566.215,235,562Zm71,0c-0.146,3.456-3.3,8.145-7,11Zm-29,3v0Zm-42,1q0.5,1,1,2Q235.5,567,235,566Zm-1,5q0.5,1,1,2Q234.5,572,234,571Zm201,1,1,2Zm164,0v0Zm-364,1q0.5,1,1,2Q235.5,574,235,573Zm256,0v0Zm-216,2,1,2Zm-1,2,1,3h-1v-3Zm158,0c-0.22,1.467.414,1-1,3l-1-2Zm168,1q0.5,1,1,2Q600.5,579,600,578Zm142,1h0Zm-468,3,1,3h-1v-3Zm198,0h0Zm161,2c10.131,6.176,14.146,17.814,28,21q-0.5,2.5-1,5c-3.3-7.824-12.011-9.836-21-10,1.039,6.032-13.046,5.954-21,3q-0.5-4.5-1-9l8-3v-1l-7,1,2-3Zm-358,5,1,2Zm95,1-7,16,2-1Q367.5,597.5,370,590Zm127,0c-15.231,5.642-47.715-5.79-59,4,10.485-2.845,53.941,1.373,60-4h-1Zm2,0c1.8,2.042.015,0.707,3,2C500.2,589.958,501.985,591.293,499,590Zm5,1,2,1Zm25,3a45.209,45.209,0,0,1-6,7h2l23,1v-1C542.737,595.64,536.794,594.68,529,594Zm-278,3q0.5,1,1,2Q251.5,598,251,597Zm161,0,1,2Zm21,1c-0.22,1.467.414,1-1,3Zm-180,2q0.5,1,1,2Q253.5,601,253,600Zm158,0,1,2Zm87,8v0ZM250,618h2l-6,6C247.239,619.876,247.658,620.485,250,618Zm179,0,47,2C463.539,621.394,440.051,624.259,429,618Zm-52,2c-0.341,3.051-2.408,5.456-6,8l6-7v-1Zm-6,2h2l-7,6Zm53,0c21.07-.126,36.723,4.626,55,5l-2,3c-6.139.972-16.043,1.556-20,5,22.583-.414,21.506,10.248,31,22q-2.5-7-5-14l3,2c3.423,7.793,13.56,15.826,9,25-16.233-10.838-23.459-31.68-51-22l-11,10c1.555-3.2,2.842-4.846,2-8-11.916,7.878-21.043,10.313-43,10l3,3c-22.526-2.233-42.258,4.876-64,6-19.977,1.032-45.024-8.455-63,0l27,5c-19.067-.133-36.991-2.6-50-10,11.746-.667,22.024-4.1,31-6,33.917-7.166,42.448,8.941,73-2l-1,4c16.45-1.993,21-6.079,32-9-2.181-1.246-5.663-.121-4-3l8-1-2-4c7.276-2.285,9.232-8.5,15-12Zm265,11h0Zm-11,3c4.71,1.709,13.719.8,17,3l-22,1q0.5-1,1-2Zm-446,2h0Zm-3,1h0Zm-2,1h0Zm-2,1h0Zm-13,8,2,2-4,1Zm40,3h15l-2,4c-22.6,5.372-36.2,9.4-61,4v-1l5-6C211.445,664.061,240.939,659.034,252,652Zm454,0,9,9c-16.56-1.18-37.978,4.123-50-3C682.291,658.475,697.066,658.486,706,652Zm-509,2h3l-4,8,4,1h-5c-4.176-1.6-4.239-.378-4-2q-0.5-3-1-6Zm-5,6,2,1Zm239,2h3c-1.407,2.243-1.971,2.509-4,4Zm-226,1,5,1q-0.5,1-1,2Zm445,0,11,1Zm-219,4h2c-1.392,1.923-.1.6-2,2v-2Zm-14,7h0Zm9,0,7,1Z"/>
  <path id="Color_Fill_3" data-name="Color Fill 3" class="cls-4" d="M469,51c5.564,0.706,6.374,1.67,9,5-6.5-1.23-9.324.346-15,2C464.448,52.62,465.264,53.641,469,51Zm16,10c1.86,2.573.082,1.584-2,3Zm-24,7h2c-1.392,1.922-.1.6-2,2V68Zm0,4,9,1,14,12h-2l-15,2,23,2v1l-49,3,13-4-12,1,1-3Zm62,4h3v3c-3.891,1-3,.388-5,3,1.706,0.168,3.3,7.578,0,14q-0.5-6.5-1-13-0.5,7.5-1,15c-0.274-7.589-.271-16.282,2-21Zm-86,3V90h-1Q436.5,84.5,437,79Zm2,0c1.586,2.369,1.813,3.621,2,8h-1Q439.5,83,439,79Zm93,0,18,7v1h-1c-8.763-2.818-18.692-2.427-25-6C528.37,80.866,529.658,80.589,532,79ZM511,99l1,2Zm1,2q0.5,1.5,1,3h-1v-3Zm-76,9h8l1,5h1q0.5-5.5,1-11c2.807,1.617,4.261,2.124,6,5,2.012,1.587,1.027-.123,1,4,4.837-3.55,30.619-18.295,43-4l-1-5,8,3c0.462,8.224,2.4,13.249,1,21h-1c-12.382-6.74-53.635-7.493-65,1,13.191-2.916,38.177-5.939,51,0v1l-68,5v-1c6.165-1.533,12.181-2.637,14-8C432.132,124.277,435.267,116.4,436,110Zm73-5h0Zm-39,4h0Zm50,3v30c-0.616-7.206-2.826-7.862-6-12l4,2Q519,122,520,112Zm-65,33c10.176-.2,20.462.207,28,2v1l-42,5-2-4Zm41,2,1,2Zm18,1h0Zm22,0,8,4C538.939,150.8,538.164,151.173,536,148Zm-19,1h0Zm7,0h3l-2,2Q524.5,150,524,149Zm-132,1v0Zm42,0,1,2Zm-69,1c4.054,1.37,2.957.985,5,4Zm151,0,5,1Zm29,0c3.4,1.346,2.069.607,4,3C545.994,152.716,546.755,153.372,545,151Zm-82,1c9.808-.369,16.3,1.37,21,6-6.892,7.242-22.467,2.082-33,6,14.433-.418,39.515-2.695,48,4l-78,3-2-1,18-5v-1l-8,2c3.239-10.835,4.79-10.03,12-13l-6,10C443.579,156.68,451.1,156.941,463,152Zm-111,1c4.313,0.208,4.827.262,7,2l-7,1v-3Zm41,1,1,2Zm124,6,5,1v1h-1l-5-1v-7h1v6Zm7-6q0.5,1.5,1,3h-1v-3Zm29,0h0Zm-194,1h0Zm27,0v0Zm128,0q0.5,1,1,2Q514.5,156,514,155Zm19,0h0Zm5,0,14,7q-0.5,3.5-1,7-0.5-3-1-6c0.442,6.978,1.668,7.231-3,10,2.019-3.277,3.164-7.884,0-11-3.154-.865-3.177-0.3-6,1q-0.5,4-1,8-0.5-3.5-1-7c-5.781.123-11.85-.451-15-3l15,1C538.218,155.872,536.719,158.376,538,155Zm17,0c7.535,2.578,11.689,12.53,14,5h2v6l-3,1-9,1v-1l7-2-2-3C558.185,159.119,558.1,159.832,555,155Zm-45,2,1,2Zm42,2,4,2-3,1Q552.5,160.5,552,159Zm-181,1h0Zm13,0h0Zm129,0h0Zm9,2c1.525,4.056,1.8,5.993-2,8v-1C522.125,166.921,521.842,166.41,522,162Zm62,0q0.5,1,1,2Q584.5,163,584,162Zm-68,2q0.5,1.5,1,3h-1v-3Zm38,0c1.8,2.348,2.15,2.849,1,6h-1v-6Zm5,0h2C559.255,164.977,560.78,164.912,559,164Zm-49,3h0Zm74,0v0Zm-72,1h0Zm4,0h0Zm53,0v0Zm10,0,3,1-3,5h-1Q578.5,171,579,168Zm-163,2h0Zm135,2c-0.766,2.006,1.072,1.808-3,3v-1h2Q550.5,173,551,172Zm9,0h3l-2,2Q560.5,173,560,172Zm-212,3,10,5-2,1-7,1Q348.5,178.5,348,175Zm218,0q0.5,1.5,1,3l-11,3,2-3Zm-184,1,5,1v1h-6Zm27,1,3,3C409.3,178.4,410.623,179.661,409,177Zm-9,2,4,2-1,2-3,1v-5Zm177,0v0Zm-203,3h0Zm-22,2c3.449,2.351,4.186,3.968,6,8a176.34,176.34,0,0,1-19,3v-1C343.823,189.772,348.987,187.206,352,184Zm15,3,3,1q-1,4-2,8Q367.5,191.5,367,187Zm-3,1h0Zm207,0v0Zm-205,1c-0.706.945,0.165,1.56-2,1Zm11,1q0.5,3,1,6a15.779,15.779,0,0,1-5-5C377.118,191.2,374.939,193.571,377,190Zm24,0c3.488,1.966,4.645,4.9,4,8-3.918,1-2.183.979-6,1C400.544,196.431,400.93,194.863,401,190Zm7,1c6.21,5.185,1.53,20.79,4,31-2.5-2.265-4-26-4-26v-5Zm-37,2h2c-1.8,2.042-.015.707-3,2Zm57,42,9-2-9-1q0.5-6,1-12l-6-1h6c-1.036-28.388,44.613-34.96,56-15,0.414,5.129,1.9,7.859,5,13-15.334-.358-47.168-4.195-57,3,20.586-1.144,45.122-1.749,64,2q2.5,4.5,5,9l-55,2c17.075-.19,46.287-1.75,57,3q-1,4.5-2,9l-28,2v1l30,1-1,2c-48.962-.517-95.451,5.066-136,12v-2c24.182-7.778,65.8-3.214,90-13l-31,1Q427,242,428,235Zm-74-41c1.923,1.392.6,0.1,2,2Zm74,2v0Zm-56,1,1,2Zm204,0q0.5,1,1,2Q576.5,198,576,197Zm-209,3h3c-5.119,10.049,1.3,28.127-7,35C366.54,225.98,367.166,213.592,367,200Zm5,0v28h-1Q371.5,214,372,200Zm206,0q0.5,1,1,2Q578.5,201,578,200Zm5,0v0Zm-209,1h4l-4,2v-2Zm27,0,4,5c-3.583,1.782-1.184-.531-3,3l-1-3-3-2C401.583,202.218,399.184,204.531,401,201Zm-27,3,1,3h-1v-3Zm198,0v0Zm2,2v0Zm-62,13,18,1v1c-2.416,2.4-2.272,6.878-2,12l23,3q0.5-6,1-12h1q-0.5,6-1,12c6.316,0.611,15.682,2.064,19,6l-19-4q-0.5,2.5-1,5v-6l-23-2q-0.5,7-1,14h-1V235l-13-1q-0.5,2.5-1,5v-8h1c2.586,2.578,8.574,2.316,14,2q-0.5-6-1-12l-14-1q-0.5,5-1,10,0.5-10.5,1-21v10Zm-111-7q0.5,4.5,1,9l7,1c-5.023.115-6.45,0.668-8-1l-3-8Zm181,4v0Zm-207,1c2.411,2.507,1.9,4.647,0,8v-8Zm37,3,10,1Zm125,0h4v1Zm-7,1h0Zm16,0h0Zm-137,2q0.5,2.5,1,5h-4v-1C409.728,225.036,407.635,227.428,409,223Zm146,1h0Zm5,1h0Zm4,1h0Zm-152,2h0Zm164,0,2,3Zm-157,1h0Zm-40,1h11c-0.237,4.466-1.46,1.167,2,4-10.482-.28-19.626.393-27,3C368.467,232.112,373.118,232.569,379,230Zm210,15c13.56-.744,25.476,10.543,18,24q-0.5-2-1-4-0.5,2.5-1,5c0.357-8.85-.112-14.689-4-21l-12-2q-1.5,9-3,18l-6,1,6-4q0.5-5,1-10l-5,1q0.5-2,1-4l3,1-3-6,5,1V235a11.379,11.379,0,0,1-5-5l9,2ZM445,232v0Zm132,5,2,3q-0.5,1-1,2h-1q-1-2-2-4Zm-214,2,3,2Zm150,2q0.5,1,1,2Q513.5,242,513,241Zm-100,1v0Zm165,5c2.205,2.273-1.206,2.034-3,3C576.241,248.226,576.572,248.352,578,247Zm-28,1q1,2,2,4C549.934,250.037,550.965,251.625,550,248Zm-139,1,5,1v1h-7Zm157,0h3l-2,3v2h-1v-5Zm-199,1,1,3h-1v-3Zm195,0c-0.706.945,0.165,1.56-2,1Zm-7,1h4l-2,1c-3.271,1.29-1.113,1.874-4,0Zm20,2q0.5,1,1,2Q577.5,254,577,253Zm-103,1,10,1Zm-15,1,12,1Zm-39,1,26,1H407Zm-18,2,5,1Zm-39,2h0Zm243,11q0.5,1,1,2Q606.5,272,606,271Zm-234,5,2,2C372.077,276.608,373.4,277.9,372,276Zm23,11,3,5a11.3,11.3,0,0,1-4-4Zm-3,2h0Zm-20,1,6,3v1c-11.107,1.878-10.1,8.118-18,12l3-5c-7.712,2.81-6.889,6.707-10,14-0.644-3.635-.4-3.027-2-5h-1c-1.059,3.651-.814,2.941-3,5,0.893-7.229.2-2.9,0-8C353.558,299.246,364.529,295.733,372,290Zm218,2h2c-3.476,6.219-18.982,18.374-25,15C575.311,304.45,584.984,298.148,590,292Zm-210,1h0Zm246,0v6q-1-2-2-4Zm-243,2h4v1H377Zm241,5q0.5,1.5,1,3h-1v-3Zm-173,2,26,1h-2l-24,4c-16.16,4.257-30.036,11.248-38,17v-5C423.842,308.409,435.238,308.762,451,302Zm-138,3h10v1h-2l-17,8C305.82,308.682,308.96,307.869,313,305Zm327,0v0Zm-10,1c0.991,3,.689,2.675-1,5Q629.5,308.5,630,306Zm-154,2c9.822,1.152,17.569,4.439,23,10l-3,15h-1q-0.5-6-1-12h-4l-1,1c2.72,4.971,4.5,15.432,0,21v-2q-0.5-8.5-1-17c-5.5.956-12.279,0.672-16,6-3.341,6.17-1.627,16.241,0,23,13.135,4.574,32.352,2.567,37,16H473l36,1-3,6H441c15.153,1.049,53.877-3.087,65,5h-2c-9.528,8.066-86.137,2.927-93,2-0.346-48.951,2.752-61.9,43-72C461.8,309.043,470.953,310.689,476,308Zm90,0,2,2-39,18C535.91,317.917,556.3,315.5,566,308Zm-220,2,1,2Zm274,1q0.5,1.5,1,3h-1v-3Zm-260,1v0Zm-1,4v0Zm-16,3,1,2Zm19,5v0Zm48,2,1,2Zm58,3c-1.637,4.6-2.661,14.2,0,20h1Q468.5,339,468,329Zm17,2,1,2Zm42,0,3,2v1h-1Zm-42,5,1,2Zm9,0,1,2Zm-9,3,1,2Zm-56,1-3,4v26l2-1c0.152-6.608,1.2-20.336,5-24,3.265-2.892,3.989-1.725,4-3l1-2h-9Zm6,4,2,3Zm-61,1,1,3h-1v-3Zm59,2v3l1-3h-1Zm112,2v0Zm-147,1h4v1Zm11,0h3q-0.5,3-1,6c-1.836-1.8-5.179-2.173-7-4C408.01,351.421,406.991,352.046,409,350Zm115,3h4q-0.5,1-1,2Zm5,0,10,1v1C534.171,355.212,531.226,355.246,529,353Zm-153,1h0Zm-155,2h0Zm317,1v0ZM400,368l5-1c-3.734-2.86-3.935-2.065-4-9h1c0.478,5.941.2,4.715,4,7a15.661,15.661,0,0,0,5-4l-3,22c-6.288.7-8.012,0.535-10,0Q399,375.5,400,368Zm-172-8h0Zm3,1,15,1Zm298,1h4q0.5,1.5,1,3v1h-5l-2-2v-1Zm23,0c3.635,0.644,3.027.4,5,2Zm-172,1h3l-5,3,11-2-1,2-11,1v-3Zm12,0c1.9,1.373,1.636.973,3,3h-3v-3Zm-171,1,1,2Zm328,0c6.3,0.7,6.318,2.238,10,5q-0.5,8-1,16c2.666,3.395,4.557,2.022,7,4v1l-13-2,3-18q0.5,4.5,1,9,0.5-5,1-10Zm-302,1h0Zm151,0q0.5,3,1,6c-5.28,1.236-5.875,2.877-7,8h-1V368C397.037,368.3,396.054,370.5,398,365Zm-176,1c3.635,3.794,3.649,3.785,4,11l-2-1v-2Q223,370,222,366Zm82,1h0Zm88,3v0Zm134,1,7,2v1h-7v-3Zm-131,2h3l-2,4h-1v-4Zm154,0h4v2Zm-123,2c1.392,1.923.1,0.6,2,2Zm9,0-1,2h3Zm-209,2,1,2Zm168,2c1.177,2.821.748,1-1,3Zm2,0v0Zm-171,4,1,2Zm6,3,4,1v1Zm296,0c2.042,1.8.707,0.015,2,3h-2v-3Zm-279,1c3.011,2.212,7,20.485,3,29C250.746,404.966,246.476,396.448,248,387Zm168,0,81,2-95-1Zm-159,3c5.018,2.426,6.4,13.837,3,18q-0.5-6-1-12v3c-4.154,3.515-2.01,11.36-4,17q-1-11.5-2-23C256.827,391.679,255.08,393,257,390Zm-31,2,2,3h-3Zm139,0,1,3h-1v-3Zm-151,3c2.066,1.963,1.035.375,2,4l-2-1v-3Zm348,0h0Zm-5,1h0Zm-336,1c2.405,1.751,1.67,1.028,3,4Zm332,0h4c-3.578,2.9-4.742,3.226-4,8-2.7-1.6-1.377-.339-3-3q-0.5-2-1-4Zm-335,1c3.14,2.057,2.069.478,3,5l-2-1-1,2v-6Zm-5,3v0Zm335,6,3,3c-1.964,1.7-1.251,1.616-2,6-2.758-.374-7.135-0.8-9,1,3,1.952-1.477,10.129,0,16-2.215-2.17-2.1-4.305-2-9l-4,1q0.5-3.5,1-7c1.782,3.583-.531,1.184,3,3C538.775,411.5,543.379,412.094,548,407Zm42,2q0.5,4.5,1,9h-1v-9Zm-377,1v0Zm383,2,8,1v1Zm16,1h0Zm-51,1c5.9,3.107,2.666,5.168,1,11h-1V414Zm45,0h3l-3,1v-1Zm16,2h0Zm3,1q0.5,2,1,4c-4.849-2.118-5.506-.844-12,0v-1Zm-365,1v6h-6l1-2C258.507,420.22,258.232,421.658,260,418Zm-39,1h14l-1,2H218Zm228,1c19.125,1.112,42.374,2.058,47,18,2.967,10.227-4.371,50.943-4,42l3,5c3.932,14.242,1.5,30.614-2,46h-1c-2.63-40.622-28.575-40.252-65-36l-21-1q1-3.5,2-7l4,1-3-4c4.579,1.639,12.39,3.853,17,2v-1c-14.91-3.093-18.8-15.33-33-18q4-7.5,8-15v2c1.5,1.862,2.046,3.477,4,5v-6q-4-8-8-16,2.5-7,5-14C412.592,426.145,438.239,424.84,449,420Zm140,0q0.5,1.5,1,3h-1v-3Zm-376,1,2,6h-3Q212.5,424,213,421Zm396,2h0Zm-3,1h0Zm-3,1h0Zm-69,1q0.5,1.5,1,3h-1v-3Zm0,12v-5l11,4Zm-276-1c2.229,3.195,1.95,8.461,5,11,4.842,3.273,16.665,3.54,23,5q1,7,2,14h-1c-9.489-2.125-21.15-.419-27-6,3.283-1.4.263-1.48-1-4h8c-11.145-2.171-11.2-8.508-14-19Zm332,1v0Zm-365,3,1,2Zm-5,2,1,2Zm367,2q0.5,1.5,1,3h-1v-3Zm-361,3c1.308,2.72.442,1.923-1,4Q225.5,450,226,448Zm216,1c-2.506,4.25-5.508,13.436,0,17l16,2v-3c1.568-4.628,1.748-8.6-2-11Zm-181,1c3.263,3.068,13.712,5.394,19,3Zm276,4q0.5,1,1,2Q537.5,455,537,454Zm53,0q0.5,1.5,1,3h-1v-3Zm-362,1q1,3.5,2,7c-7.258.182-17.232,7.9-26,4q-0.5-4-1-8C211.823,458.249,223.294,458.592,228,455Zm364,0h3q-1,4.5-2,9Q592.5,459.5,592,455Zm-403,3h4v16l-2-1A41.905,41.905,0,0,0,189,458Zm94,4,3,2Zm-54,6,26,1v1c-9,.811-22.124,2.428-30-1Zm363,1c2.11,3.059,2.218,2.931,0,6v-6Zm-156,2c3.688,2.671,14.4,4.635,20,2Zm-88,12h2l4,7c1.8,8.847-2.715,27.231-11,34l4-17h-1c-5.009,17.533-16.982,27.545-33,34C322.189,519.633,340.5,507.43,348,483Zm214,6q0.5,1,1,2h-2Q561.5,490,562,489Zm-332,2v0Zm180,3,11,2v1l-14-1Zm41,0c44.7-.959,33.629,36.088,35,72-4.5-1.322-4.33-2.3-7-5,1.044-26.145,2.787-55.29-16-62-32.867-11.738-37.7,23.377-35,50a29.136,29.136,0,0,0-10,8c3.808-1.617,8.895-3.611,13-2h-2c-6.063,6.894-25.226,26.7-32,32,4.069-11.173,14.678-15.537,17-28-8.359,5.777-19.211,9.7-26,17l-16,23,16-36-2,1-3,5c2.674-15.128,17.108-30.362,35-24C408.763,505.553,419.863,507.444,451,494Zm111,1v6h-1Q561.5,498,562,495Zm-318,1h0Zm2,1,20,1v1Zm317,5q0.5,1,1,2Q563.5,503,563,502Zm-144,1h0Zm-2,1h2l-13,10Zm147,2q0.5,1,1,2Q564.5,507,564,506Zm1,2,4,3q-1,3.5-2,7Q566,513,565,508Zm-328,4q0.5,1,1,2Q237.5,513,237,512Zm324,0v0Zm-238,4h3q-2.5,2.5-5,5c-1.713,3.881-3.161,5.246-7,7Zm-84,1v0Zm322,2q0.5,1.5,1,3h-1v-3Zm5,0c2.507,3.2,3.837,9.721,6,13-6.154-1.788-8.3-3.762-11-9l5,2v-6Zm21,3h2v16Q588,530,587,522Zm-27,5h0Zm-333,2h0Zm160,0c10.5-.5,13.43,11.432,7,10-0.349,1.356-44.513,54.724-50,57l3-7c-4.518,1.705-4.86,2.584-10,2l8-25-10,10q-0.5-2.5-1-5l-8,9,6-18-3,2-3,4c3.322-13.257,17-31.608,28-37C363.5,529.054,376.3,533.461,387,529Zm198,1c3.013,3.011,1.725,7.154,1,12h-1V530Zm-13,2c3.987,1.761,4.719,2.4,6,7h-1v-2Zm-364,7c4.659,0.97,4.432,1.487,9,1l-4,7c2.264,0.75,1.4.767,1,9h-2c-0.75-6.729-1.569-4.721-5-8Q207.5,543.5,208,539Zm12,0c7.609,5.17,12.011,10.273,22,14,6.926-2.545,17.73-9.4,21-8h-2C251.3,556.666,220.179,555.178,220,539Zm196,18-1,2,2-2h-1Zm-139,9v0Zm166,1,27,1v1C461.3,569.3,448.564,570.187,443,567Zm28,1h0Zm11,0,1,2Zm16,0c3.478,3.487,4.842,8.093,5,15h-1v-2Zm5,3c5.607,2.706,13.1-.5,22,1,20.614,3.473,50.3,6.583,56,25l-1,1-7-7-7-2c-0.63,1.7-47.355-1.542-60-3Zm-252,3h0Zm201,3,8,1Zm290,2h0Zm-290,1,20,1Zm-83,1c2.465,8.012-8.316,24.817-14,29C357.713,598.822,363.463,589.53,369,581Zm76,3,35,1C473.125,586.046,443.078,587.317,445,584Zm188,0,3,1q0.5,2,1,4l-8-4Zm-9,2h4v1Zm-2,1h0Zm-157,1,25,2c-12.75.366-35.745,4.689-46-1Zm-195,4c24.376,6.151,32.379,23.393,63,0-2.847,7.683-6.341,8.334-3,15h6l-1,2c-14.834,5.646-28.35,14.842-46,18l-1-2,2-3,7-5C280.69,615.3,275.385,599.454,270,592Zm201,0,23,1-1,2-51-1Zm174,4,3,2Zm-394,1q0.5,1,1,2Q251.5,598,251,597Zm193,1,49,1C482.889,599.822,441.723,600.953,444,598Zm-73,1,1,2Zm-1,2,1,2Zm78,3,47,1-2,3c-10.542-1.345-40.7,4.831-55-2h2Zm54,0c8.515-.259,23.764-0.991,28,2C519.464,606.4,501.148,610.812,502,604Zm-135,2,1,2Zm161,2c5.817-.311,11.983-0.367,15,2-14.54.773-29.388,5.6-44,3l1-4C507,611.117,521.919,610.788,528,608Zm-50,2h2l-2,3c-10.456,2.147-32.572,3-42-1Zm5,1h13v2C491.937,613.264,480.589,614.93,483,611Zm-120,1c2.388,3.791-5.873,7.039-9,6Zm-29,4h3v1C333.838,617.014,335.582,617.132,334,616Zm13,0,6,3v1c-10.42,3.652-13.43,11.879-21,18h-1l2-5c-4.468-.236-2.27,1.081-5-1C332.69,623.8,338.967,620.917,347,616Zm-16,2h0Zm-83,1h2l-4,4Q247,621,248,619Zm108,1h2c-3.1,4.108-6.455,6.267-12,8Zm80,4,7,1Zm-107,1c0.069,1.8,1.141,1.23-2,3Zm85,2,55,3-43,3,24,2v1l-6,2-2,1,10,2v1l-29,3,12,1h-2c-10.178,6.318-34.947,3.74-44-3l12-2c-5.679-1.119-3.827-1.878-7-5v-1Zm275,6h0Zm1,4h0Zm-286,5,3,1Zm-22,6,42,4v1H397l17,2-1,2c-8.772-.792-23.407-0.5-29-5l10-1Zm327,7,6,6h-4C710.666,658.548,710.349,658.458,709,655Zm-433,5c16.951-.074,31.157,1.966,44,4,14.235,2.254,31.016-3.387,46-2v1c-21.22,4.492-47.169,1.622-71,2l-35,2v-1Zm258,3,19,1q-0.5,1-1,2c-6.3,2.266-15.954,5.065-22,0v-1Zm20,0,28,3C571.579,666.326,561.186,666.329,554,663Zm44,0h0Zm8,0h9q-0.5,1-1,2C608.211,665.158,603.9,666.6,606,663Zm20,1,12,1Z"/>
  <path id="Color_Fill_2" data-name="Color Fill 2" class="cls-5" d="M469,51h4v1Zm-3,1h3v1l-5,2Zm7,0h0Zm51,24c2.042,1.8.707,0.015,2,3h-2V76Zm-67,3,13,3,1,2h-2c-4.143,2.316-16.156,4.151-21,2l2-1Zm62,0v0Zm11,1h3l-1,2-5,1-3-2Zm6,0h0Zm2,1c3.635,0.644,3.027.4,5,2Zm-4,2,7,2v1h-5Zm14,3h0Zm-89,2,22,1-34,2Zm62,1v0Zm-51,16,17,3-22-1Zm22,1,3,8v-2c3.389-.591,1.859-0.292,5-3v2c2.891,2.957,3.5,3.136,4,9-2.117,1.875-.641.786-2,4h-4l-5-8c-0.4,4.03-.327,3.912-2,6-14.583,2.441-40.827-.635-52,6l-2-1q0.5-7,1-14c4.98,2.664,5.516,5.178,9,9q0.5-7,1-14h1v13l8-7c1.54,3.729,6.775,4.339,13,6l-7-8v-3h1C475.117,112.514,487.758,111.787,492,106Zm-32,9,1,2Zm58,3v0Zm2,1v0Zm-16,1,1,2Zm-50,7,23,1-1,2-46,3h2C437.814,128.82,446.347,130.067,454,127Zm66,3q0.5,1,1,2Q520.5,131,520,130Zm-96,3h0Zm-2,1h2C422.255,134.977,423.78,134.912,422,134Zm32,12,19,1c-8.034,1.288-20.915,5.347-29,2h2Zm-102,7h2l-2,3v-3Zm41,1,1,2Zm165,2c3.921,2.142,6.067,3.8,8,8C562.606,161.78,560.02,159.642,558,156Zm-41,4,5,1v1h-1Zm52,0q1,3,2,6C568.9,163.948,569.365,164.237,569,160Zm-43,1q0.5,1,1,2h-2Q525.5,162,526,161Zm58,1q0.5,1,1,2Q584.5,163,584,162Zm-139,3c13.133-.287,34.4-2.631,44,2l-64,3h2Zm119,0h2l-4,3h-1v-2Zm20,2v0Zm-236,8,5,7h-4Q348.5,178.5,348,175Zm55,5,1,2Zm-51,4,3,1-3,1c-1.348,4.557-4.14,6.085-7,9h-6v-1C343.823,189.772,348.987,187.206,352,184Zm232,3v0Zm-215,1,1,3h-1v-3Zm-4,2h0Zm9,1,3,4C374.576,193.085,375.384,194.358,374,191Zm29,0c2.174,3.52,2.733,4.452,1,7h-1v-7Zm-32,2h2c-1.8,2.042-.015.707-3,2Zm81,2,17,1v1l-12,1c8.536-.329,15.078.316,20,3,1.059,3.651.814,2.941,3,5-1.607,3.511-3.59,5.516-4,7,4.2,1.537,2.448-.184,4,4H430c3-8.43,3.092-15.341,11-19Zm-41,2,1,2Zm37,1c-4.759,2.148-8.192,1.877-11,6l18-6h-7Zm-80,2h0Zm210,0q0.5,1,1,2Q578.5,201,578,200Zm-203,1h0Zm25,3,1,2h-2Zm3,0,2,2h-3Zm7,10q1,4,2,8C409.835,219.882,410.007,218.556,410,214Zm-40,4,1,2Zm58,13q0.5-4.5,1-9c16.509-2.777,41.012-4.991,58,0-1.1,5.286-.9,5.559,3,9H428Zm84-12h0Zm4,0,5,1Zm-102,1h0Zm-9,1h0Zm122,0q0.5,1.5,1,3h-1v-3Zm24,3c2.11,3.059,2.218,2.931,0,6v-6Zm-142,1,1,2Zm119,10v14l-2-1V235l-13-2c12.631,0.01,14.876-.955,25,1v1H528ZM427,248q0.5-6,1-12l16-2q0.5,3,1,6h1v-6h44c-1.2,4.226-1.245,8.6-3,10Zm124-10q0.5-2.5,1-5c2.61,4.63,7.634,3.415,11,7Zm-11-4h4l-4,2v-2Zm7,1,3,2h-3v-2Zm41,0h2c-1.392,1.923-.1.6-2,2v-2Zm1,3q0.5,1,1,2Q589.5,239,589,238ZM454,249l34,1-51,2Zm-34,4,8,1Zm-16,1,10,1Zm183,0v0Zm-190,1,7,1-27,4C381.735,256.108,390.584,257.538,397,255Zm209,0q0.5,1,1,2Q606.5,256,606,255ZM372,290l3,2v1l-10,4C366.929,292.877,368.637,292.489,372,290Zm252,4q0.5,1,1,2Q624.5,295,624,294Zm-239,1h0Zm-4,1h0Zm-24,4h2l-4,3Zm267,0q0.5,1,1,2Q624.5,301,624,300Zm-172,3h11v1h-2l-35,11,1-3Zm-103,1c1.86,2.573.082,1.584-2,3Zm114,6c5.517,0.038,5.787-.282,8,3,2.855,8.278-15.356,31.449,0,42,8.158,5.37,21.911,2.215,26,12l-30-1,1,3c4.426,0.435,23.008.632,21,4l1,2c-16.292.7-33.982,0.343-49-2l2-4,20-1-22-1V344l-3,21c-0.624-10.791-.237-16.914,3-25l-1-1-13,1-3,17q-0.5-6.5-1-13c-0.352,12.687-3.062,25.677-10,32C412.056,317.284,423.5,326.673,463,310Zm-114,1,1,2Zm128,0,2,1q-0.5,4-1,8h-1v-9Zm143,0q0.5,1,1,2Q620.5,312,620,311Zm-66,3h2a11.3,11.3,0,0,1-4,4Q553,316,554,314Zm-79,7h0Zm62,1,2,1-9,4v-2ZM434,334v3l3-2v-1h-3Zm8,5v4h1ZM304,367h0Zm254,2q0.5,1.5,1,3h-1v-3Zm-1,5c2.395,4.2,1.448,5.668,0,10h-1Q556.5,379,557,374Zm-113,4,41,2-1,2C470.467,386.463,452.669,383.634,444,378Zm113,7q0.5,1,1,2h-2Q556.5,386,557,385Zm-309,2h0Zm184,0,21,2-29-1Zm126,0h0Zm5,0,2,2h-4Zm-303,5,2,4-2-1v-3Zm105,0,1,3h-1v-3Zm224,18v0Zm36,9q0.5,1,1,2Q625.5,420,625,419Zm-179,3c16.54-.536,36.411,1.344,43,11,8.856,12.245-.26,35.055,1,51l-5,1,1,2c2.681,0.312,2.393-.383,5,2l-3,1c4.822,1.322,2.883.661,4,3-6.82,1.047-74.1.221-78-2l19-5c-16.069-1.414-29.468-11.776-37-22,2.243-1.407,2.509-1.971,4-4h1c5.316,5.539,10.111,7.685,18,11-7.319-10.172-15.684-31.567-17-44h7l8,4C420.676,420.444,436.315,426.039,446,422ZM258,437c3.19,4.488,3.224,9.3,7,13-5.5-1.335-5.069-2.569-8-6q0.5,3,1,6l-2-1q-1-5.5-2-11Zm176,11c-0.382,6.592-1.316,10.265,1,15C435.579,457.333,437.272,451.393,434,448Zm8,0-3,3v16c6.359,1.055,13.52,2.8,20,1V453c-1.392-1.923-.1-0.6-2-2Zm-177,2h0Zm199,0q-2,11-4,22c-11.27.294-19.908-1.488-27-5q-1-4-2-8h-1v8C437.09,483.414,478.521,478.662,464,450Zm-192,1c7.015-.34,11.175.148,14,4Zm-5,3,14,2v1h-7Zm-46,2c3.609,1.65,2.349.274,4,4Zm6,0,2,5-2-1v-4Zm-15,1h0Zm6,0c3.776,1.609,2.321.433,4,4-2.584-.908-4.338-1.2-6-3Zm277,0q-0.5,7-1,14h-1v-5Q494,461.5,495,457Zm-306,1h3v4Zm2,8v0Zm157,17h2l4,7q-0.5,4.5-1,9h-1V489c-2.883,18.609-13.156,36.764-28,44v-3C331.966,512.253,343.044,501.45,348,483Zm100,12c40.237-1.3,40.416,27.843,35,59l-1-2c-5.025-14.262.584-33.9-7-45-3.719-5.444-10.342-7.252-18-9-30.34-6.925-26.195,26.513-35,45h-1C415.164,512.293,424.248,505,448,495Zm35,4h4c0.345,2.076.425,2.11,2,5l-1,1Zm-132,1-3,14h-1Zm31,30,12,1,1,2c-18.36,7.528-26.034,36.851-41,49,3.347-11.678,12.851-17.694,12-30l-3,2c-4.648,12.1-10.9,10.243-15,25-2.835-1.11-1.454-.865-4-1l7-24-2,1-7,10h-1q-0.5-2.5-1-5l-7,7c2.253-10.6,14.5-32.369,25-35ZM220,540l7,5q-0.5,1-1,2l-5-5C219.435,540.4,220.678,542.131,220,540Zm40,4c-0.622,2.171.224,1.822-3,4Zm146,0,11,1v1c-3.841,1.7-3.98,2.742-6,6l8-2-2,6-11,7,8-10c-12.374,6.906-20.4,17.609-31,26C387.6,564.139,395.908,553.393,406,544Zm-179,2,5,2-2,2Zm-13,1q0.5,1,1,2Q214.5,548,214,547Zm29,5h0Zm267,21c16.955-.606,40,1.039,48,10-15.91.574-40.038,3.09-52-3v-6Zm232,6h0ZM461,589l17,1Zm-5,4,26,1v1l-30-1Zm1,5,20,2-27-1Zm-8,7,26,1C466.426,606.387,455.047,608.889,449,605Zm0,7,26,1Zm-30,16,23,2v1c-8.664.313-22.611,1.457-28-2Zm-12,5,13,1Zm282,0h0Zm-269,1,11,1Zm-89,31,12,1C339.618,666.18,328.45,668.594,331,665Z"/>
  <path id="Color_Fill_1" data-name="Color Fill 1" class="cls-6" d="M526,82h0Zm-87,40,4,2-2,1Zm5,8h4v1Zm-3,1h0Zm7,36h0ZM342,192l1,2Zm106,30,21,2c-0.278,2.366.222,1.247-1,4h-2c-7.051,2.3-19.725,3.231-19-4-4.462,2.641-1.511,2.388-7,3v-3h2Zm8,16,16,1c-0.37,2.509-.222,2.081-2,5-8.836.615-18.111,2.25-24-2v-1Zm3,75h7l2,2-1,2-43,18c-2.1,6.864-1.77,16.039-7,20v-2C405.053,323.9,442.065,319.31,459,313Zm-5,20h3c-0.6,12.073,9.467,23.9,21,27l-1,4c-13.906.382-33.772-2.3-35-13h19v-1H443q1-5.5,2-11ZM304,367h0Zm142,57c22.3-.525,30.494,5.087,43,13,0.554,16.486-2.424,28.621-9,38l-3-2-11-13c-2.558-5.966-.732-11.827-3-16-10.979-3.786-23.408-6.182-31,3-7.376-2.811-16.535-5.969-20-13C417.118,433.378,440.5,426.862,446,424Zm-2,19c9.719-.17,12.715,2.269,18,6v6h-1c-2.508-9.35-14.036-8.228-24-7l2-3ZM189,458l1,2Zm276,12,7,2v1C467.557,472.517,467.134,472.541,465,470Zm-54,2,23,7-4-4c16.162-.442,41.29-1.734,48,6l-2,3C455.4,484.729,416,487.264,411,472Zm-61,11,2,2c-3.892,10.756-5.395,26.948-16,32v-1C341.061,505.164,348.222,496.052,350,483Zm-3,1,1,2Zm109,1c9.421-.153,17.789,1.8,22,7v1c-7.526-.582-40.491.037-45-4Zm-102,6,1,2Zm110,7h0Zm3,1h0Zm2,1h0Z"/>
</svg>
