<svg xmlns="http://www.w3.org/2000/svg" width="1024" height="600" viewBox="0 0 1024 600">
  <defs>
    <style>
      .cls-1, .cls-2, .cls-3, .cls-4, .cls-5 {
        fill-rule: evenodd;
      }

      .cls-2 {
        fill: #333;
      }

      .cls-3 {
        fill: #666;
      }

      .cls-4 {
        fill: #999;
      }

      .cls-5 {
        fill: #ccc;
      }
    </style>
  </defs>
  <path id="Color_Fill_5" data-name="Color Fill 5" class="cls-1" d="M876,40l6,9h7c-4.487,6.788-4.455,7.542-2,16-3.966-2.538-5.333-4.205-9-2l-8,6,3-11L862,48l12,1Q875,44.5,876,40ZM406,45l2,2-3,1Zm-41,8,7,5,8-3c-3.2,7.493-3.218,5.506,0,13-12.69-1.6-11.8,5.374-20,10q1-5.5,2-11l-9-4C360.386,60.477,361.931,59.888,365,53ZM632,63c1.923,1.392.6,0.1,2,2ZM616,73c2.617,1.775,1.362.063,1,3h-1V73ZM192,80l5,8,9,2c-5.528,2.121-8.451,5.883-6,13l-7-4-13,8q2.5-6.5,5-13l-6-7h10Zm539,2,1,3h-1l-1-1Zm27,0h0ZM665,521q-0.5,5.5-1,11c12.153-.641,25.53-0.311,30,7v5h1c9.043-1.776,18.042.213,27,1q0.5,5,1,10c17.84,0.034,53.252,7.165,62,18-1.152,3.273-1.381,2.718-3,5-41.816,7.31-89.124-7.506-132,0-24.43,4.277-39.787,16.569-68,21-56.112,8.812-121.507-7.816-167-16-24.974-4.493-51.434,4.6-78-1l-31-14c-19.682-4.391-42.106-2.643-59-7l-2-3,2-3c16.35-3.813,46.65-10.7,65-6,1.147-6.234,2.4-6.38,9-7q0.5-5.5,1-11h10v-6c-38.169-3.663-71.52,3.067-108,8l-67-4c-15.863,2.49-36.724,11.076-54,6-13-3.819-11.89-12.4-20-20-10.108-9.467-25.764,2.675-27-25,4.709-11.972,13.13-22.646,30-22l12,2c5.8-1.7,12.725-8.856,20-11,25.77-7.594,47.794,8.806,52,29,22.533-3.538,20.873,11.875,36,18-0.541-44.37,35.15-40.346,71-40,26.668-36.044,67.366-23.021,84,12,18.874-12.577,70.055-26.605,70,14l14-1c1.25-41.248,8.148-84.139,14-128q1-26.5,2-53l-6-26c-3.672-9.053-12.634-11.691-17-19-5.744-9.616-.826-41.228,2-46,9.1-3.12,15.479-7.491,28-8V181l-17-7,2-3,44-37c-3.581-7.064,3-11.807-1-16,1.332-4.807,3.6-3.362,5-6q1-13,2-26c-0.232,24,4.435,43.849,11,53l41,35q-0.5,1-1,2l-15,5v29a58.468,58.468,0,0,1,31,11v41c-13.753,9.827-14.622,21.266-20,40l6-1q0.5-2.5,1-5c4.323,3.662,5.012,3.329,10,5-2.8,5.533-1.685,3.822,1,10h-1c-8.284-3.342-6.916-1.067-14,2,0.667-4.136,1.241-5.065-1-8h-1c-9.888,38.469,9.069,115.307,10,149,18.459-.145,30.634,6.605,44,9,25.329,4.539,37.479-7.237,60,8,20.059-25.4,30.76-37.087,68-47,4.763-33.663,59.875-34,65-1,33.458-4.639,60.818,4.66,61,41,23.252-3.137,38.041,5.365,54,10,0.971-18.894,23.68-32.572,45-24l15,10c11.026,3.943,20.64-6.983,27,7,1.35,4.823.23,8.572-1,13l-10,8-14,2c-5.566,3.567-7.53,12.129-15,15l-19,1c-9.2,3.6-14.461,13.489-28,16-23.194,4.3-34.6-11.58-58-8-16.478,2.521-37.348,7.425-57,4-10.295-1.794-34.047-10.83-48-5C729.783,521.447,691.99,520.69,665,521ZM370,87h0Zm51,0,2,2h-3Zm186,4c2.687,3.427,3.294,4.447,7,7-2.452,3.137-1.915,4.981-3,8-4.973-2.953-4.633-2.659-10,0,0.97-6.459,1.752-4.432-1-9C604.035,94.656,604.629,95.046,607,91Zm140,0h2C747.255,91.977,748.78,91.912,747,91ZM595,93l2,2h-3Zm221,0,1,2h-2Zm-404,9h3v1l-3,1v-2Zm308,1,2,2-2,1v-3Zm-133,1c3.027,1.932,1.619.2,3,4h-4Q586.5,106,587,104Zm157,7,2,2-2,1v-3Zm-327,1,4,7,10-2-7,8,4,11-10-7-10,6v-1l4-8-9-10,10,3Zm266,4,2,2-1,1-2-1Q682.5,117,683,116Zm-25,1c3.016,2.991,1.621,3.7,7,5-2.882,3.805-1.989,3.712-4,8-4.615-2.518-2.633-2.32-8-1,0.347-4.822.6-4.408-1-8C656.962,119.989,655.748,120.3,658,117Zm132,4q0.5,1.5,1,3l-2-1Q789.5,122,790,121Zm-174,1,2,2-2,1v-3Zm106,5h2C722.255,127.977,723.78,127.912,722,127Zm-328,5,1,2Zm343,0q0.5,1,1,2Q737.5,133,737,132Zm-532,5,2,2-2,1v-3Zm446,0h2c-1.392,1.923-.1.6-2,2v-2Zm-404,2,8,5c-2.452,3.6-2.71,2.822-2,8-5.125-2.77-4.714-2.6-10,0,0.235-5.683.564-4.1-2-8C244.664,141.884,245,143.07,247,139Zm5,0h3v1l-3,1v-2Zm496,1h2C748.255,140.977,749.78,140.912,748,140Zm17,0q0.5,1,1,2Q765.5,141,765,140Zm-545,2c3.023,1.259,1.2-.018,3,2h-1Zm85,1h0Zm306,7h2c-1.392,1.923-.1.6-2,2v-2Zm69,2h2c-1.392,1.923-.1.6-2,2v-2Zm-321,5h0Zm-73,1,6,8,16-3-10,11,3,7h-1c-7.737-3.126-11.5-4.817-16,1l-7,4v-1l4-11-7-6v-1c5.391,0.511,6.206.774,10-1Q285,162,286,158Zm108,2h0Zm-70,1c1.923,1.392.6,0.1,2,2Zm89,0h2c-1.392,1.923-.1.6-2,2v-2Zm250,0q0.5,1,1,2Q663.5,162,663,161Zm-35,8,2,2C628.077,169.608,629.4,170.9,628,169Zm-367,1h3l-2,2Zm507,3h2c-1.392,1.923-.1.6-2,2v-2Zm-520,3h2l-2,3v-3Zm-52,11,2,2C196.077,187.608,197.4,188.9,196,187Zm74,0c3.583,1.782,1.184-.531,3,3h-3v-3Zm362,1h2C632.255,188.977,633.78,188.912,632,188Zm72,14q0.5,1,1,2Q704.5,203,704,202Zm-39,3c5.515,3.016,3.331,4.237,11,4l-3,9c-4.629,1.077-4.048,1.806-7,4h-1c-0.671-6.675-1.335-4.983-5-8v-1l5-3v-5Zm106,3,4,9,7,1c-3.753,5.424-2.689,5.679-4,11-6.107-3.21-4.926-1.791-11,1,0.321-7.176-.373-6-5-10,2.2-1.106,4.394-1.314,6-3Zm-405,3h0Zm187,10q-0.5-3.5-1-7l-11-2q-0.5,1-1,2v5Zm-97,1,12-2q-0.5-3.5-1-7l-11,2v7Zm99-7q-0.5,3.5-1,7l14,7v-5l-5-6Zm-104,1c-5.62,3.418-9.616,4.253-13,10v3h1l15-6v-7h-3Zm102,15q-0.5-4-1-8l-12-2v8Zm247-10q0.5,1,1,2Q800.5,222,800,221Zm-627,1c5.212,3.209,3.466,4.275,11,4l-4,5,3,8-9-4-6,5c1.41-7.244,2.307-7.453-2-12,2.2-1.106,4.394-1.314,6-3Q172.5,223.5,173,222Zm295,8v-8l-12,2v8Zm-15-6-13,7,2,3,12-1Q453.5,228.5,453,224Zm101,0v8c6.193,1.63,9.645,3.963,14,7v-6C565.782,232.58,561.513,226.205,554,224Zm-86,16q-0.5-4.5-1-9l-11,2v9h1Zm73-9v8c7.7,1.685,12.315,4.775,12-6Zm-102,3q-0.5,2.5-1,5h1l3-3Zm13,0-11,5,1,4,3,2,9-2C454.138,238.31,454.184,236.159,452,234Zm102,0v8l5,2,5-1q0.5-1.5,1-3-0.5-1-1-2Zm243,4h2c-1.392,1.923-.1.6-2,2v-2Zm-358,4v7l5-2-2-3Zm128,0-4,4h2l3,2Q567.5,245,567,242Zm47,0,2,2-2,1v-3Zm308,7c3.179,2.031,5.287,3.807,9,6-2.6,3.96-2.418,2.762-2,9-5.592-3.082-5.835-2.535-11,1,0.669-6.671.1-6.561-3-11,4.238-.312,3.964.062,6-2Q921.5,250.5,922,249ZM261,262c4.774,3.528,3.056,5.682,12,6-4.459,6.481-2.167,5.646-3,12-7.527-4.256-8.993-.382-16,3l3-9-5-4,8-2Q260.5,265,261,262Zm96,12,5,6h4c-2.571,4.2-3.014,4.044-1,9-7.021-2.282-4.392-1.894-11,1,1.517-5.623.321-5.884-3-9C355.261,278.435,355.409,279.5,357,274Zm406,5h2C763.255,279.977,764.78,279.912,763,279Zm-50,19c4.376,2.988,3.132,4.574,11,5-5.041,5.306-5.466,3.374-4,12-4.387-2.323-4.6-3.711-9-4l-6,4c2.267-6.978,2.462-6.62,0-13C711.137,301.948,711.016,302.24,713,298Zm28,0h2c-1.392,1.923-.1.6-2,2v-2Zm-621,7c4.7,1.8,3.39,2.246,9,2-1.407,3.759-1.337,3.328-1,8-5.146-1.16-4.62.259-8,3-0.815-6.246-2.121-5.455-5-9C118.561,307.64,118.028,307.59,120,305Zm551,1c2.617,1.775,1.362.063,1,3h-1v-3Zm-332,5h2C339.255,311.977,340.78,311.912,339,311Zm393,6h0Zm-514,3c2.649,1.987,1.963,1.127,3,5l-6,5-4-3C217.175,326.165,216.662,325.256,218,320Zm2,6,8,2c-3.381,3.792-2.527,4.592-4,9l-4-3-7,5Zm479,2q0.5,1,1,2h-2Q698.5,329,699,328Zm-447,6h2c-1.392,1.923-.1.6-2,2v-2Zm428,1c5.209,2.747,4.5,4.307,11,2-1.978,7.247-2.35,5.837,0,13l-9-3c-1.77,3-1.752,3.334-5,5,1.538-8,.694-6.016-4-11C678.132,339.891,678.833,340.529,680,335Zm-44,5,2,2C636.077,340.608,637.4,341.9,636,340Zm227,13c5.273,3.6,2.719,6.416,12,7-4.124,5.517-4.375,4.32-3,12-7.331-3.8-9.008-1.536-15,3l3-8-5-6c4.238-.312,3.964.062,6-2Q862,356,863,353Zm-470,1c3.709,2.728,4.487,4.275,10,3-2.161,6.3-2.233,4.7,0,11-6.438-2.289-6-.884-11,2-0.206-6.363-.3-6.21-5-8l6-3v-5Zm-83,8,1,2Zm1,17c3.964,4.111,2.865,6.381,11,7-3.467,4.883-3.775,4.559-2,11l-8-3-8,6c3.328-7.825,2.472-8.523-2-14C309.531,385.932,309.518,384.859,311,379Zm279,6h2c-1.392,1.923-.1.6-2,2v-2Zm89,1,2,2C679.077,386.608,680.4,387.9,679,386Zm-4,7,3,7,9,2c-4.993,3.822-6.413,3.088-4,10v1h-1c-7.5-5.469-7.664-5.075-18-3l4-8-5-4,9,1ZM40,419c12.774-.2,13.229,3.874,19,10,6.331-1.153,32.206-6.079,39-4,4.962,1.518,5.56,8.386,9,10,6.057,2.842,41.848,4.641,51,3l-1,2c-7.325,1.518-37.225,6.369-44,5-3.44-.695-13.923-3.972-20-2-9.754,3.165-36.07,13.206-48,11-9.8-1.813-13.866-8.805-17-16,0.354-7.977,2.731-11.33,6-16Z"/>
  <path id="Color_Fill_4" data-name="Color Fill 4" class="cls-2" d="M876,40l6,9h7c-4.487,6.788-4.455,7.542-2,16-3.966-2.538-5.333-4.205-9-2l-8,6,3-11L862,48l12,1Q875,44.5,876,40ZM405,46h3v1l-3,1V46Zm-40,7,7,5,8-3c-3.2,7.493-3.218,5.506,0,13-12.69-1.6-11.8,5.374-20,10q1-5.5,2-11l-9-4C360.386,60.477,361.931,59.888,365,53ZM632,63c1.923,1.392.6,0.1,2,2ZM616,73c2.617,1.775,1.362.063,1,3h-1V73ZM192,80l5,8,9,2c-5.528,2.121-8.451,5.883-6,13l-7-4-13,8q2.5-6.5,5-13l-6-7h10Zm539,2,1,3h-1l-1-1ZM370,87h0Zm132,2v0Zm105,2c2.687,3.427,3.294,4.447,7,7-2.452,3.137-1.915,4.981-3,8-4.973-2.953-4.633-2.659-10,0,0.97-6.459,1.752-4.432-1-9C604.035,94.656,604.629,95.046,607,91Zm140,0h2C747.255,91.977,748.78,91.912,747,91ZM595,93l2,2h-3Zm221,0,1,2h-2ZM551,350c-18.538-.258-46.308-5.6-62,1l62,1c4.119,33.748,9.33,76.989,10,102,18.459-.145,30.634,6.605,44,9,25.329,4.539,37.479-7.237,60,8,20.059-25.4,30.76-37.087,68-47,0.735-3.149,1.315-5.048,3-7,7.4,16.63,50.263,18.824,60,3,7.85,4.461,14.549-2.414,27,0,20.407,3.957,35.692,19.9,36,44,23.252-3.137,38.041,5.365,54,10,0.971-18.894,23.68-32.572,45-24l15,10c11.026,3.943,20.64-6.983,27,7,1.35,4.823.23,8.572-1,13-9.652,5.724-24.343,10.878-31,20l-2-1c-2.854-11.191-17.475-13.2-29-12-11.371,13.969-14.913,13.434-19,34-20.048,1.3-32.707-4.182-49-7l-43,4c-20.394,3.27-38.8-2.475-55-5-15.788-2.461-22.453,4.154-33,6l-73,2q-0.5,3-1,6H607l40-7c-1.016-4.433-.661-4.016-4-6l-39,1,4-6h-2l-78-2c-14.179-2.751-35.121-13.628-55-10-10.036,1.832-20.616,5.829-33,8l-36,1,2,3,8,2v1l-29-3-5,4c12.5,10.629,37.542,4.928,54,12-30.5-.608-86.021-22.785-110-13a11.379,11.379,0,0,0-5,5c33.321,0.886,59.614,10.024,89,16l42,6c-40.12-1.172-76.038-11.717-112-18-31.882-5.57-70.56,6.145-98,11-18.492,3.272-37.714-.376-54-3-22.442-3.617-41.759,3.643-60,5-4.2-22.669-47.317-37.9-70-39v-5c4.709-11.972,13.13-22.646,30-22l12,2c5.8-1.7,12.725-8.856,20-11,25.77-7.594,47.794,8.806,52,29,22.533-3.538,20.873,11.875,36,18-0.541-44.37,35.15-40.346,71-40,26.668-36.044,67.366-23.021,84,12,18.874-12.577,70.055-26.605,70,14l14-1a357.359,357.359,0,0,1,8-65l94-3c-30.256-.732-63.184-0.054-94,0q2-11,4-22l39-4v-1H468c-4.243-1.342-6.8-5.429-11-6q1-6.5,2-13l65-5c-21.666-2.867-43.174.67-66,1,1-24.448,2.74-54.579,0-76,15.494-.225,59.567-2.447,66-13,4.009-4.442,5.2-15.5,4-22-6.135.688-9.158,0.582-14-1q-1,7.5-2,15l-4-1V260l1-3,6-2v-1c-22.1-1.654-46.321-2.124-67,2v1c12.906,3.218,21.087,16.773,10,27h-1c-2.727-7.928-13.227-14.325-20-21-0.375-15.662-1.879-35.3,3-44,9.1-3.12,15.479-7.491,28-8V181l-12-5c9.67-10.411,28.968-16.472,45-20q-4.5-9-9-18c9.8-8.3,3.58-26.073,11-44-0.193,18.325,5.835,37.815,11,45l40,35q-0.5,1-1,2l-14,5v29a58.468,58.468,0,0,1,31,11v41c-13.753,9.827-14.622,21.266-20,40l6-1q0.5-2.5,1-5c4.323,3.662,5.012,3.329,10,5-2.8,5.533-1.685,3.822,1,10h-1c-8.284-3.342-6.916-1.067-14,2,0.667-4.136,1.241-5.065-1-8h-1C548.025,316.088,550.478,334.524,551,350ZM412,102h3v1l-3,1v-2Zm308,1,2,2-2,1v-3Zm-133,1c3.027,1.932,1.619.2,3,4h-4Q586.5,106,587,104Zm157,7,2,2-2,1v-3Zm-327,1,4,7,10-2-7,8,4,11-10-7-10,6v-1l4-8-9-10,10,3Zm266,4,2,2-1,1-2-1Q682.5,117,683,116Zm-25,1c3.016,2.991,1.621,3.7,7,5-2.882,3.805-1.989,3.712-4,8-4.615-2.518-2.633-2.32-8-1,0.347-4.822.6-4.408-1-8C656.962,119.989,655.748,120.3,658,117Zm132,4q0.5,1.5,1,3l-2-1Q789.5,122,790,121Zm-174,1,2,2-2,1v-3Zm106,5h2C722.255,127.977,723.78,127.912,722,127Zm-328,5,1,2Zm343,0q0.5,1,1,2Q737.5,133,737,132Zm-532,5,2,2-2,1v-3Zm446,0h2c-1.392,1.923-.1.6-2,2v-2Zm-404,2c2.958,2.443,3.531,3.564,8,5-2.452,3.6-2.71,2.822-2,8-5.125-2.77-4.714-2.6-10,0,0.235-5.683.564-4.1-2-8C244.664,141.884,245,143.07,247,139Zm5,0h3v1l-3,1v-2Zm496,1q0.5,1,1,2Q748.5,141,748,140Zm17,0q0.5,1,1,2Q765.5,141,765,140Zm-545,2c3.023,1.259,1.2-.018,3,2h-1Zm391,8h2c-1.392,1.923-.1.6-2,2v-2Zm69,2h2c-1.392,1.923-.1.6-2,2v-2Zm-321,5h0Zm-73,1,6,8,16-3-10,11,3,7h-1c-7.737-3.126-11.5-4.817-16,1l-7,4v-1l4-11-7-6v-1c5.391,0.511,6.206.774,10-1Q285,162,286,158Zm127,3h2c-1.392,1.923-.1.6-2,2v-2Zm250,0q0.5,1,1,2Q663.5,162,663,161Zm-35,8,2,2C628.077,169.608,629.4,170.9,628,169Zm-367,1h3l-2,2Zm507,3h2c-1.392,1.923-.1.6-2,2v-2Zm-520,3h2l-2,3v-3Zm-52,11,2,2C196.077,187.608,197.4,188.9,196,187Zm74,0c3.583,1.782,1.184-.531,3,3h-3v-3Zm362,1h2C632.255,188.977,633.78,188.912,632,188Zm33,17c5.515,3.016,3.331,4.237,11,4l-3,9c-4.629,1.077-4.048,1.806-7,4h-1c-0.671-6.675-1.335-4.983-5-8v-1l5-3v-5Zm106,3,4,9,7,1c-3.753,5.424-2.689,5.679-4,11-6.107-3.21-4.926-1.791-11,1,0.321-7.176-.373-6-5-10,2.2-1.106,4.394-1.314,6-3Zm-405,3h0Zm187,10q-0.5-3.5-1-7l-11-2q-0.5,1-1,2v5Zm-97,1,12-2q-0.5-3.5-1-7l-11,2v7Zm99-7q-0.5,3.5-1,7l14,7v-5l-5-6Zm-104,1c-5.62,3.418-9.616,4.253-13,10v3h1l15-6v-7h-3Zm102,15q-0.5-4-1-8l-12-2v8Zm247-10q0.5,1,1,2Q800.5,222,800,221Zm-627,1c5.212,3.209,3.466,4.275,11,4l-4,5,3,8-9-4-6,5c1.41-7.244,2.307-7.453-2-12,2.2-1.106,4.394-1.314,6-3Q172.5,223.5,173,222Zm295,8v-8l-12,2v8Zm-15-6-13,7,2,3,12-1Q453.5,228.5,453,224Zm101,0v8c6.193,1.63,9.645,3.963,14,7v-6C565.782,232.58,561.513,226.205,554,224Zm-86,16q-0.5-4.5-1-9l-11,2v9h1Zm73-9v8c7.7,1.685,12.315,4.775,12-6Zm-102,3q-0.5,2.5-1,5h1l3-3Zm13,0-11,5,1,4,3,2,9-2C454.138,238.31,454.184,236.159,452,234Zm102,0v8l5,2,5-1q0.5-1.5,1-3-0.5-1-1-2Zm243,4h2c-1.392,1.923-.1.6-2,2v-2Zm-358,4v7l5-2-2-3Zm128,0-4,4h2l3,2Q567.5,245,567,242Zm47,0,2,2-2,1v-3Zm308,7c3.179,2.031,5.287,3.807,9,6-2.6,3.96-2.418,2.762-2,9-5.592-3.082-5.835-2.535-11,1,0.669-6.671.1-6.561-3-11,4.238-.312,3.964.062,6-2Q921.5,250.5,922,249ZM261,262c4.774,3.528,3.056,5.682,12,6-4.459,6.481-2.167,5.646-3,12-7.527-4.256-8.993-.382-16,3l3-9-5-5,8-1Q260.5,265,261,262Zm96,12,5,6h4c-2.571,4.2-3.014,4.044-1,9-7.021-2.282-4.392-1.894-11,1,1.517-5.623.321-5.884-3-9C355.261,278.435,355.409,279.5,357,274Zm406,5h2C763.255,279.977,764.78,279.912,763,279Zm-50,19c4.376,2.988,3.132,4.574,11,5-5.041,5.306-5.466,3.374-4,12-4.387-2.323-4.6-3.711-9-4l-6,4c2.267-6.978,2.462-6.62,0-13C711.137,301.948,711.016,302.24,713,298Zm28,0h2c-1.392,1.923-.1.6-2,2v-2Zm-621,7c4.7,1.8,3.39,2.246,9,2-1.407,3.759-1.337,3.328-1,8-5.146-1.16-4.62.259-8,3-0.815-6.246-2.121-5.455-5-9C118.561,307.64,118.028,307.59,120,305Zm551,1c2.617,1.775,1.362.063,1,3h-1v-3ZM218,320c2.649,1.987,1.963,1.127,3,5l-6,5-4-3C217.175,326.165,216.662,325.256,218,320Zm287,4-25,3,2,2,59-4Zm-285,2,8,2c-3.381,3.792-2.527,4.592-4,9l-4-3-7,5Zm479,2q0.5,1,1,2Q699.5,329,699,328Zm-447,6h2c-1.392,1.923-.1.6-2,2v-2Zm428,1c5.209,2.747,4.5,4.307,11,2-1.978,7.247-2.35,5.837,0,13l-9-3c-1.77,3-1.752,3.334-5,5,1.538-8,.694-6.016-4-11C678.132,339.891,678.833,340.529,680,335Zm-44,5,2,2C636.077,340.608,637.4,341.9,636,340Zm227,13c5.273,3.6,2.719,6.416,12,7-4.124,5.517-4.375,4.32-3,12-7.331-3.8-9.008-1.536-15,3l3-8-5-6c4.238-.312,3.964.062,6-2Q862,356,863,353Zm-470,1c3.709,2.728,4.487,4.275,10,3-2.161,6.3-2.233,4.7,0,11-6.438-2.289-6-.884-11,2-0.206-6.363-.3-6.21-5-8l6-3v-5Zm-82,25c3.964,4.111,2.865,6.381,11,7-3.467,4.883-3.775,4.559-2,11l-8-3-8,6c3.328-7.825,2.472-8.523-2-14C309.531,385.932,309.518,384.859,311,379Zm364,14,3,7,9,2c-4.993,3.822-6.413,3.088-4,10v1h-1c-7.5-5.469-7.664-5.075-18-3l4-8-5-4,9,1Zm82,5c22.282-.735,30.3,5.531,39,18q-0.5,1.5-1,3c-17.494,8.921-39.58,5.4-54-4-1.073-7,.588-7.5,4-12ZM28,439c0.151-8.581,2.573-12.109,6-17,13.181-5.162,17.521-1.062,25,7,6.331-1.153,32.206-6.079,39-4,4.962,1.518,5.56,8.386,9,10,6.057,2.842,41.848,4.641,51,3l-1,2C120.443,447.592,77.155,440.043,28,439Zm461,7-29,4v1l50-5H489Zm-30,29-4,1v1l3,1,15-2Zm-24,50c30.418,3.07,61.255,9,98,9h64C555.842,538.247,463.5,542.809,435,525Zm114,0,10,1Zm114,4q0.5,1.5,1,3c11.119-.385,21.95.083,29,4v1c-13.019.283-50.489,4.59-57-1C645.771,535.707,657.219,533.635,663,529ZM409,543h4v1Zm201,0h8v1h-2c-7.694,4.54-35.628,8.819-47,4Zm81,0,30,2v1c-11.454.3-33.325,2.825-41-2Zm-278,1c44.717,0.8,86.83,11.917,137,12,21,0.035,64.914-10.306,77-6l-46,10C548.447,565.556,432.928,553.444,413,544Zm-112,4c5.3-.084,8.021.525,11,2,9.05,24.028,64.871,14.767,93,20,29.589,5.5,54.955,13.012,87,18,57.692,8.981,107-10.327,152-18,27.321-4.659,67.441,3.713,88-8v-6c16.645,4.947,43.2,4.966,53,17-1.152,3.273-1.381,2.718-3,5-41.816,7.31-89.124-7.506-132,0-24.43,4.277-39.787,16.569-68,21-56.112,8.812-121.507-7.816-167-16-24.974-4.493-51.434,4.6-78-1l-31-14c-19.682-4.391-42.106-2.643-59-7l-2-3,2-3Z"/>
  <path id="Color_Fill_3" data-name="Color Fill 3" class="cls-3" d="M365,53l7,5,8-3c-3.09,8.19-11,18.791-20,23q1-5.5,2-11l-8-2,1-3C362.112,60.4,362.435,58.924,365,53Zm13,13,1,2Zm238,7c2.042,1.8.707,0.015,2,3h-2V73ZM595,93l1,2Zm-183,9h3v1l-3,1v-2Zm175,2c3.027,1.932,1.619.2,3,4h-4Q586.5,106,587,104Zm-86,2c2.308,2.124,5.564,7.3,7,10h-5l-5-3C501.718,111.022,500.838,111.379,501,106Zm243,5,2,2C744.077,111.608,745.4,112.9,744,111Zm-327,1,4,7,10-2-7,8,4,11-10-7-10,6v-1l4-8-9-10,10,3Zm241,5c3.016,2.991,1.621,3.7,7,5-2.882,3.805-1.989,3.712-4,8-4.275-2.432-3.076-2.709-8-1C654.3,121.773,654.591,122.379,658,117Zm-157,5,10,3v1h-7Zm115,0,2,2C616.077,122.608,617.4,123.9,616,122Zm106,5h2C722.255,127.977,723.78,127.912,722,127ZM437,253V241l12,4c3.618-2.038,3.7-2.757,6-6,5.3,4.417,56.37-1.931,70-6l-6-4,6,1c-1.38-5.041-3.311-5.655-6-9h3c-8.81-14.992-49.939-6.271-53-11-2.651-5.836-2.285-26.759,1-31,3.149-5.872,9.487-6.663,14-11h-5l2-3a286.006,286.006,0,0,1,44-3c-3.7-15.879-15.646-22.933-29-30l12-1,44,42q-0.5,2-1,4l-12,4v29a59.517,59.517,0,0,1,31,11v41c-14.048,9.786-11.929,20.757-20,37-0.317-13.424,3.773-22.565,5-35l-2,1c-4.9,16.964-6.339,29.035-2,43-3.527-2.371-4.035-3.414-10-4q-0.5,1-1,2h2l7,5q-0.5,6.5-1,13c-26.977-.366-54.571.914-81,1l1-2,59-6c0.9-4.573.722-6.483-1-10l-20-4a270.208,270.208,0,0,1,30,1q0.5-1,1-2v-1c-26.423-3.472-52.573,1.76-78,2v-4h2c18.281-7.757,48.6-2.546,65-12,3.913-12.393,13.067-32.564,11-43C517.9,257.093,467.082,251.789,437,253ZM737,132q0.5,1,1,2Q737.5,133,737,132Zm-86,5h2c-1.392,1.923-.1.6-2,2v-2Zm114,3q0.5,1,1,2Q765.5,141,765,140ZM611,150h2c-1.392,1.923-.1.6-2,2v-2Zm70,2q0.5,1,1,2Q681.5,153,681,152Zm-395,6,6,8,16-3-10,11,3,7h-1c-7.737-3.126-11.5-4.817-16,1l-7,4v-1l4-11-7-6v-1c5.391,0.511,6.206.774,10-1Q285,162,286,158Zm127,3h2c-1.392,1.923-.1.6-2,2v-2Zm215,8,2,2C628.077,169.608,629.4,170.9,628,169Zm140,4h2c-1.392,1.923-.1.6-2,2v-2ZM666,208c3.446,2.022,4.824,5.9,3,10l-3,4V208Zm7,1h2l-3,9h-1v-6ZM553,221q-0.5-3.5-1-7l-11-2q-0.5,1-1,2c1.073,3.245-.168,2.828,2,5Zm2-6q-0.5,3.5-1,7l14,7v-5l-5-6Zm-2,16q-0.5-4-1-8l-12-2v8Zm1-7v8c6.193,1.63,9.645,3.963,14,7v-6C565.782,232.58,561.513,226.205,554,224Zm-52,3,12,1Zm39,4v8c7.7,1.685,12.315,4.775,12-6Zm13,3v8l5,2,5-1q0.5-1.5,1-3-0.5-1-1-2Zm-115,8v7l5-2-2-3Zm128,0-4,4h2l3,2Q567.5,245,567,242Zm356,7c3.566,4,4.99,6.011,5,14l-5-2V249Zm-377,5c-4.616,6.788-16.058,32.763-8,41l2-1c-0.045-17.137,6.215-26.009,9-40h-3Zm-285,8c4.774,3.528,3.056,5.682,12,6-4.459,6.481-2.167,5.646-3,12-7.527-4.256-8.993-.382-16,3C256.651,273.945,259.06,270.439,261,262Zm96,12,5,6h4c-2.571,4.2-3.014,4.044-1,9-7.021-2.282-4.392-1.894-11,1,1.517-5.623.321-5.884-3-9C355.261,278.435,355.409,279.5,357,274Zm200,22v0Zm156,2c3.464,2.208,5.675,3.727,10,6-4.782,4.563-4.409,3.222-3,11-4.387-2.323-4.6-3.711-9-4l-5,3C708.8,305.655,710.047,304.307,713,298Zm-593,7c5.42,2.756,4.848,9.065,0,12V305Zm437,1v0Zm114,0c2.042,1.8.707,0.015,2,3h-2v-3ZM218,320c2.649,1.987,1.963,1.127,3,5l-6,5-4-3C217.058,326.247,216.985,325.525,218,320Zm2,6,6,1q-1,5-2,10c-5.724-3.173-4.852-1.763-11,1l2-3Zm330,1q0.5,11.5,1,23h-1c-28.029-7.451-62.208.62-90,1l1-2c11.186-.676,22.014-2.7,29-8-2.718-4.129-2.732-5.776,0-11C507.148,326.536,529.019,326.95,550,327Zm-72,4h3q0.5,4.5,1,9l-1,1-3-1v-9Zm-226,3h2c-1.392,1.923-.1.6-2,2v-2Zm428,1c4.633,2.38,3.221,3.439,9,3v11h-1c-6.75-2.192-5.26-.007-11,3,1.538-8,.694-6.016-4-11C678.132,339.891,678.833,340.529,680,335ZM500,352c13.108-.383,43.6-3.825,51,3l7,67c-11.116.209-82.764-.227-87-4l25-5-4-6c7.613-6.47,16.338-5.685,27-10l-2-3-15-1c-0.026-9.739-.924-10.57,0-16l41-4-46-4H470l57-4c2.46-1.5.906-1.18,3-4q-0.5-1.5-1-3c-10.517-1.648-35.542.638-47-4Zm363,1c3.688,2.276,6.072,7.053,8,11q-0.5,3.5-1,7c-3.562-4.157-6.6-.861-12,3,1.2-6.055,3.74-8.271-2-11C860.016,359.39,861.71,359.9,863,353Zm-470,1c4.792,3.629,2.565,3.8,10,4-2.416,4.7-2.254,3.488-1,9-7.227-.805-4.068-0.532-10,3-0.206-6.363-.3-6.21-5-8l6-3v-5Zm131,21v1l5,2C527.013,375.351,527.873,376.037,524,375Zm-213,4c3.964,4.111,2.865,6.381,11,7-3.467,4.883-3.775,4.559-2,11l-8-3-7,6c1.6-8.695,1.761-8.646-3-14C309.531,385.932,309.518,384.859,311,379Zm217,1v0Zm-5,14v4l2-1Zm140,4,13,1,7,14h-1c-7.5-5.469-7.664-5.075-18-3l4-8Zm104,0h5v7c1.672-1.612,1.867-3.821,3-6h1q0.5,4,1,8c-4.7-.309-18.479.419-20,1q0.5-5,1-10h4c0.208,4.313.262,4.827,2,7l3-1v-6Zm-13,1h2q-0.5,3.5-1,7h-1v-7Zm-2,1q0.5,1,1,2Q752.5,401,752,400Zm25,0h2C777.255,400.977,778.78,400.912,777,400Zm-93,2q0.5,1,1,2h-2Q683.5,403,684,402Zm81,4,2,1Zm46,14,20,2c2.046,4.837,3,6.783,6,6-0.88,5.132.235,6.844-2,10-9.16,11.7-34.261,11.117-56,19-24.589,8.916-27.478,27.049-43,35-22.362,11.455-62.945-6.989-70-21,11.423-22.266,34.515-46.151,67-47l17,7C774.7,436.917,793.787,428.1,811,420Zm22,4q0.5,1,1,2Q833.5,425,833,424ZM628,461q0.5,9.5,1,19V461l9,1v25c10.84,2.316,16.531,7.15,25,11v2l-76,5c-9.894-1.592-19.832-5.979-33-4l-29,2c-11.04-1.666-19.39-6.106-27-8-22.618-5.631-49.372,6.105-64,9l-45-1v1l2,1,5,3v1c-41.685-1.951-70.634-7.122-100,12l-4-3,7-24-3-3-1,3q-1-8-2-16c-2.181.493-.925,0.96-2-1,0.992-.122.263-0.37,0-1-0.406-2.37-3.955-5.648-4-18l2-2v3l2-4q0.5,2.5,1,5v-2c26.824-28.975,54.781-8.083,69,20,18.874-12.577,70.055-26.605,70,14l14-1v-6c23.242-.186,45.522-12.639,59-4V471l3,1,1,3c1.6,4.288,1.045,10.108,4,13,1.764,1.29,10.739,6.409,15,4,3.394-1.919,10.412-10.229,17-13l22-3v-1c-14.248-1.8-26.77-5.542-37-8q-0.5-3-1-6l-18-2q-1,3.5-2,7h-4v-6l3-3H477c14.249-13.6,50.551-9.072,74-8-16.643-12.562-83.418,0-104,1,4.819-13.545,54.9-12.116,73-12q-0.5-1-1-2c-4.4-2.643-3.31-5.993-5-9l2-1c7.774-3.472,37.276-2.552,42,2,4.584,10.2,2.933,18.329,3,26,13.18-.137,23.684,2.41,34,5q0.5,3.5,1,7h1q0.5-3,1-6C606.909,463.474,615.813,461.427,628,461Zm209-35q0.5,1,1,2Q837.5,427,837,426Zm3,1v0Zm-708,9,17,3v4c-9.253.152-19.057-2.133-24,0q0.5-2.5,1-5A10.263,10.263,0,0,0,132,436Zm18,3,2,3C149.958,440.2,151.293,441.985,150,439Zm25,49q0.5,10.5,1,21l-2-1-15-21c-10.906-6.447-49.959.113-48-14-0.607-3.956-.731-3.279,2-6l6-8c0.814,0.919,15.75-4.011,26,0C157.621,463.939,166.58,486.481,175,488Zm69-24,1,3h-1v-3Zm515,49c-1.053-53.854,51.927-47.181,85-31,2.444-4.944,12.416-7.752,16-8v4l-5,9c-9.793,3.771-18.2,7.242-29,3,4.2,4.7,5.942,8.432,4,17h-2c0.375-9.322-1.023-12.284-6-16,2.947,7.759.98,18.484-1,27l-2-1c0.445-12.21-.793-20.134-5-27-4.9-1.688-8.638-4.174-13-1v29l-3-5q-0.5-8.5-1-17h-1c0.142,6.146.16,18.506-4,21q-1-7-2-14v2q-1,5.5-2,11l-2-1q-0.5-3.5-1-7h-1v7l-4-1q-0.5-3-1-6l-2,1v5C767.331,511.728,770.151,511.927,759,513Zm44-25c1.923,1.392.6,0.1,2,2ZM281,525c-13.741.025-19.53,1.158-28,4v-6c-1.962,2.189-2.282,3.194-3,7h-1q-1-2-2-4c-1.059,3.651-.814,2.941-3,5h-1q-0.5-3-1-6v2c-2.492,2.85-1.707,3.458-6,5q-0.5-2.5-1-5-0.5,2.5-1,5l-11,1c-3.7-5.323-5.35-1.908-14-1-0.452-14.869,2.573-25.216,8-34,22.251-7.28,53.088-3.881,62,16Q280,519.5,281,525Zm375-19,4,1v1h-7ZM286,520l1,3h-1v-3Zm53,0h4v1Zm4,1,6,1Zm6,1,6,1Zm6,1,5,1Zm5,1h4v1Zm6,1h0Zm-63,23h6c13.421,29.4,60.988,16.243,97,23,38.162,7.161,78.809,26.666,130,18l40-4c27.6-5.9,55.186-14.812,87-15,36.449-.216,54.048-1.666,79-11,12.1-4.527,39.451,9.787,43,14-1.152,3.273-1.381,2.718-3,5-41.687,7.291-89.159-7.494-132,0-24.432,4.274-39.782,16.58-68,21-56.165,8.8-121.457-7.829-167-16-24.978-4.482-51.427,4.584-78-1l-23-12-30-4v-1l3-15Zm-23,18h-8V553c4.192-.82,4.105-1.389,7-3h1v16Zm-17-1V552h4v2q0.5,5.5,1,11h-5Zm-5-12c2.037,2.554,2.164,5.89,2,11h-3Q257.5,558.5,258,553Zm263,3,36,2Zm-239,1v0Z"/>
  <path id="Color_Fill_2" data-name="Color Fill 2" class="cls-4" d="M413,102h2c-1.392,1.923-.1.6-2,2v-2Zm174,2c3.027,1.932,1.619.2,3,4h-4Q586.5,106,587,104Zm-170,8,4,7,10-2-7,8,4,11-10-7-8,5A64.919,64.919,0,0,1,417,112Zm327,0h0Zm-22,15h0ZM529,152c6.741,4.639,16.894,10.777,18,21-5.446,2-6.428,7.144-9,12C537.264,169.1,530.142,166.574,529,152Zm-243,6,6,8,16-3-10,11,3,7h-1c-7.737-3.126-11.5-4.817-16,1l-7,4,4-12-7-6,10-2Q285,162,286,158Zm127,3h2c-1.392,1.923-.1.6-2,2v-2Zm91,7c14.741-.633,25.194.2,30,11q1,10.5,2,21h1q0.5-1.5,1-3c1.143,25.872-3.084,69.823-36,52,13.151-.174,23.1-7.743,27-17,6.365-24.585-39.345-27.724-58-24-2.407-7.044-3.1-15.086-3-25C484.154,170.927,484.271,175.858,504,168Zm49,45c1.4,1.542,1.973,10.056,0,14V213Zm3,1q0.5,1,1,2Q556.5,215,556,214Zm3,1h2c-1.392,1.923-.1.6-2,2v-2Zm4,2,7,4v19c-6.014,4.1-11.644,12.632-18,15v-4l4-8h8c2.621-5.2,3.634-2.728,4-10-2.264.114-4.312-3.258-6-8l7,4Zm-3,17c3.023,1.259,1.2-.018,3,2h-3v-2Zm3,2q0.5,1,1,2Q563.5,237,563,236Zm-18,4h4c-0.969,5.866-18.441,54.082-22,56-5.048,3.163-57.419,6.736-64,4h2c15.214-9.635,46.508-3.161,62-12C531.776,270.056,538.809,255.161,545,240Zm23,5q0.5,1.5,1,3h-1v-3Zm-7,3h3l-3,4v-4Zm7,2h0Zm-17,10c1.86,1.186-5.264,28.963-7,37l-2-1C541.659,280.87,544.989,268.7,551,260ZM357,274c3.4,3.693,2.459,5.629,8,5l1,1c-2.871,3.963-2.9,4.153-1,9-7.021-2.282-4.392-1.894-11,1,1.216-5.031.368-5.587-2-9C355.41,278.408,355.586,278.909,357,274Zm157,45c10.688-.29,26.526-1.658,34,2v1l-45-1Zm36,9q0.5,10.5,1,21l-52-3c5.48-.9,7.458-2.571,11-5-3.915-4.717-4.2-4.469-4-11h2C516.984,325.455,537.474,327.788,550,328Zm131,7,2,1q-1,6-2,12l-2,1v-4h-2Zm3,4h3q-0.5,4.5-1,9l-2-1v-8Zm-7,11q0.5,1,1,2Q677.5,351,677,350Zm-164,3,38,1q-0.5,2.5-1,5Zm-120,1c3.971,4.517,2.7,10.245,1,16h-2c-0.35-7.273-1.156-5.846-5-9l6-1v-6Zm6,4c2.352,2.293,2.521,5.779,1,9h-1v-9Zm124,9c8.612-.46,27.362-1.135,30,5l-35-4Zm23,39q-0.5-3-1-6v5l-9-2h6q0.5-8.5,1-17c4.639,1.788,6.686,1.712,10-3q2,19,4,38l-40-3v-1a29.363,29.363,0,0,0,18-10h-3Zm-19-2h0Zm141,2q0.5,1.5,1,3h-1v-3Zm55,19c11.375,0.555,12.146,6.177,20,9l35,2-3,4c-10.954,2.422-25.881,8.429-40,6l-26-9-6,7c-7.7,3.145-22.85,11.08-25,13-0.361,6.052-.774,14.724,3,21l-5-1-6-12C682.53,443.29,698.93,435.82,723,425Zm-182,2c5.455-.275,10.235-0.187,13,2v1h-7Zm14,0,2,3Zm-47,12c14.156-.431,44.363-3.393,52,4l3,3v1l-62-3-54,5,1-3C463.925,440.973,490.582,445.97,508,439Zm-77,53c16.6-.259,21.7-2.827,38,1v1c-30.442,4.827-92.43,16.714-119-1-9.008-9.527-26.859-30.858-29-49h5c2.668,11.28,31.049,47.77,44,35-1.455-2.912.473-6.39,5-9l1,1c-0.082,3.605,1.723-1.161,3-2C386.259,464.231,432.45,457.281,431,492Zm78-43c26.925-.185,47.147,5.087,69,6l-2,3c-8.034.621-17.3,3.485-21,4-1.136-3.637-1.133-2.736-3-5-5.892,2.726-4.2,5.814-7,1l-47-3,1-2ZM326,472h0Zm2,1,1,2Zm39,1c0.4,2.9,1.137,1.654-1,4Zm314,4q0.5,1,1,2h-2Q680.5,479,681,478Zm-177,8c31.406,18.042,35.882-2.806,71,3l29,7-2,1c-17.767,7.773-84.715,3.332-98-1V486ZM353,501h4v1Zm396,59,10,2c-0.284,7.45,3.468,11.652,2,19l-111-3c-16.552,3-27.741,12.611-42,17l-26,2c-16.758,2.848-75.293,4.915-86-3,57.981,0.291,108.906-14.722,162-23C687.725,566.365,734.577,579.416,749,560Zm-432,4c24.294,5.438,57.2,2.7,86,8l41,11,1,3c-17.66-1.837-80-11.058-108-4l-1-4c-1.339,1.427-1.247,1.76-3,3C329.608,571.53,320.271,574.182,317,564Z"/>
  <path id="Color_Fill_1" data-name="Color Fill 1" class="cls-5" d="M426,117h5l-7,8,4,11c-5.644-2.66-6.942-6.189-13-6l3-11Zm72,53c14.99-.616,24.988,3.29,28,8,9.271,8.819,12.361,34.357,10,51q-0.5-1-1-2c-15.578-20.42-14.356-15.881-45-21-7.554-5.645-5.275-10-9-20v9c-6.379-3.161-14.036-5.775-10-14C479.026,177.873,489.021,174.3,498,170Zm39,92c2.086,7.619-4.455,22.655-7,30h-2v-4Zm-25,31h15q-0.5,1-1,2h-2c-9.507,4.761-30.457,3.839-43,4l1-2Zm38,36c-0.142,9.148.226,7.7,1,19H533l-11-1q0.5-1,1-2l12-4-10-4,6-2c-3.807-.656-4.838-1.05-7-3l3-2ZM495,440c23.664-.254,47.216.613,66,4v2c-37.876-.72-77.689,1.6-114,2l1-2Zm23,11c15.617-.313,29.969.609,41,4q-0.5,1-1,2l-46-4h2ZM399,465c3.635,0.644,3.027.4,5,2-1.672,1.612-1.867,3.821-3,6h-1Q399.5,469,399,465Zm15,21c10.395,1.75,18.876,4.849,30,8v1c-15.586,2.155-34.541,1.626-50,0,1.321-3.827,0-2.08,3-4Zm143,8,9,2h-2c-8.888,3.81-36.814,5.69-45,1Zm110,78,61,1q-0.5,1-1,2h-2c-20.272,9.643-57.342-4.419-77,2l-27,8c-12.165,3.073-44.845,8.373-51,4l64-14Zm-311,1,39,2-2,1C384.426,579.859,361.046,577.27,356,573Z"/>
</svg>
