<svg xmlns="http://www.w3.org/2000/svg" width="1024" height="700" viewBox="0 0 1024 700">
  <defs>
    <style>
      .cls-1, .cls-2, .cls-3, .cls-4, .cls-5, .cls-6 {
        fill-rule: evenodd;
      }

      .cls-2 {
        fill: #333;
      }

      .cls-3 {
        fill: #666;
      }

      .cls-4 {
        fill: #999;
      }

      .cls-5 {
        fill: #ccc;
      }

      .cls-6 {
        fill: #fff;
      }
    </style>
  </defs>
  <path id="Color_Fill_6" data-name="Color Fill 6" class="cls-1" d="M466,95c15.383,0.368,27.395,3.722,39,7q1,13,2,26c-23.785-1.273-48.947-1.3-71,2l-1-3c-2.268-4.772-2.166-21.785,1-25C443.122,94.1,454.575,99.227,466,95Z"/>
  <path id="Color_Fill_5" data-name="Color Fill 5" class="cls-2" d="M467,95c14.031,0.643,26.953,3.884,38,7q1,13,2,26c-23.785-1.273-48.947-1.3-71,2l-1-3c-3.885-8.57-.169-23.035,3-28C448.746,96.295,457.913,100.407,467,95Z"/>
  <path id="Color_Fill_4" data-name="Color Fill 4" class="cls-3" d="M471,96c14.608,1.726,31.2,5.669,36,11v21c-9.878-1.16-29.8-6.75-42-2l5,1c-13.37-.2-23.427,1.346-34,3l-1-3q-0.5-3-1-6h1l1,4q-0.5-10-1-20c2.16-4.915,5.022-6.882,11-8C447.294,99.789,461.325,102.525,471,96Zm-22,4v0Zm4,4v0Zm1,21h0Z"/>
  <path id="Color_Fill_3" data-name="Color Fill 3" class="cls-4" d="M471,97c7.233,0.805,29.849,4.294,32,8q1,3.5,2,7v-6l2,1v21c-7.1-.744-8.212-3.373-13-6-2.737,8.085-37.713-3.4-46,5l2,1-12,2h-1c-1.7-13.763-3.083-23.774,4-32,8.983,2.061,8.184,7.265,17,7l-7,14,2-1,7-10v8l2-3c1.627,4.038,2.1,4.294,6,6l-7-9,8-9-3-2Zm-7,3h2l-4,3h-1v-2Zm28,2,2,2Zm-48,1c-0.236,7.2.228,18.4,4,22Q446,114,444,103Zm15,0h2l-3,2Zm34,17,2,1Zm-36,6,10,1Z"/>
  <path id="Color_Fill_2" data-name="Color Fill 2" class="cls-5" d="M446,101c6.781,4.72,4.146,12.223,3,21,12.637-2.433,12.158-1.422,25-2-6.224-3.194-8.684-3.968-12-10,5.3-8.7,30.208-13.211,34,0h1q-0.5-3.5-1-7l4,2c2.7,1.6,1.377.339,3,3q1,4.5,2,9,0.5-3,1-6-0.5,5.5-1,11c-3.156-1.278-1.672-.46-2,4l-4-2-6-8c-3.984,10.738-33.158,9.905-46,6Q446.5,111.5,446,101Zm-8,2c2.23,1.2,2.486,1.094,4,3,2.419,4.216,4.336,18.847,2,21-1.871,2.008-3.768,2.263-7,3C436.723,118.565,435.51,112.926,438,103Zm28,6h0Zm-19,18h0Z"/>
  <path id="Color_Fill_1" data-name="Color Fill 1" class="cls-6" d="M469,105c9.695-.105,19.616-0.907,26,2l-3,13c-9.085,1.595-15.846,4.292-26,3l2-2c9.769,1.98,18.037-8.725,23-15-6.62,2.121-16.919,4.606-25,1h2Zm-22,1c2.726,2.584,2.984,13.079,1,17Q447.5,114.5,447,106Zm51,1c4.837,3.332,4.279,9.281,3,16-2.126-1.3-3.491-2-5-4l-1-5c1.464,0.966,1.541,3.189,2,1Q497.5,111,498,107Zm-15,2h2l-11,10-3-1c-5.816-1.88-5.941-2.484-6-8Zm-44,1c3.923,4.759,5.583,11.415,4,19l-6,1C437.361,125.226,435.712,115.557,439,110Zm64,3v0Z"/>
</svg>
