<svg xmlns="http://www.w3.org/2000/svg" width="1024" height="1024" viewBox="0 0 1024 1024">
  <defs>
    <style>
      .cls-1, .cls-2, .cls-3, .cls-4, .cls-5, .cls-6 {
        fill-rule: evenodd;
      }

      .cls-2 {
        fill: #333;
      }

      .cls-3 {
        fill: #666;
      }

      .cls-4 {
        fill: #999;
      }

      .cls-5 {
        fill: #ccc;
      }

      .cls-6 {
        fill: #fff;
      }
    </style>
  </defs>
  <path id="Color_Fill_6" data-name="Color Fill 6" class="cls-1" d="M1024,708v316H2V982c31.527,4.536,50.538-6.693,75-14l36-5,77-21q-0.5-2.5-1-5c-52.372.861-134.209,27.627-187,13V940c60.711,0.906,124.423,1.749,179-9,30.668-6.04,56.662-2.614,73-22q-0.5-1-1-2c-38.419,2.6-87.926,8.289-124,18H98c-34.1,0-65.156-2.067-96-4V909c70.259,11.635,159.715,4.282,221-8l41-5c8.013-2.249,11.3-9.569,17-14,13.012-10.115,28.642-19.607,47-24,20.272-4.851,41.8,6.038,60,2l37-13c24.747-6.668,47.858-12.251,71-18l17-1,52-20c20.526-6.233,43.494-4.457,66-11,23.392-6.8,53.037-22.917,72-36,0.263-44.02-2.316-79.155-1-121V575l-6-5c1.277-3.9,4.106-4.521,5-7,0,0-5.716-53.959-6-55l-14-1c-2.449-6.738-2.561-16.866-6-22-12.854-3.679-21.084-10.472-29-19,1.373-25.046.065-58.816,0-94,14.268-10.994,23.746-23.542,42-32h15c5.682-2.209,16.079-5.173,21-10-1.336-4.281-3.761-3.543-5-6q-0.5-13-1-26l-8-1q1-2.5,2-5l7-3c-0.6-10.47-5.933-14.3-8-22-4.44-16.546-.515-52.659-7-64-9.821-2.174-12.248-5.986-17-13q0.5-1.5,1-3c9.791-19.822,76.776-54.7,98-70-0.372-19.078-4.766-30.845,2-44,14.914-2.047,13.125-22.477,8-31,3.308-4.974,7.365-9.148,15-7q-0.5,12.5-1,25c6.294,11.9,18.079,11.618,21,29-5.9,3.615-15.079,18.033-7,28,7.456,12.644,58.117,38.95,74,42,2.431,11.691,9.039,17.037,16,24-0.409,16.249-11.038,25.33-17,38l9,11c-8.431,13.635-17.706,28.655-13,53l10,5q-1,3-2,6c-13.192.742-25.32,14.073-22,26,13.622,24.423,65.128,7.805,77,36,2.253,9.9-3.2,17.857-5,26-6.19,28.043.637,51.28,14,62-0.019,30.332-24.343,22.6-35,40q-1,7.5-2,15l-11,9v43c-6.132,41.169,4.287,103.781-3,140l8,8,21-8C972.457,686.556,997.311,705.59,1024,708ZM902,343a36.826,36.826,0,0,1-12,11q0.5,6,1,12c8,0.46,17.832.649,21-4,3.345-6.392,1-13.738-2-19h-8Zm23,4c-3,5.2-3.473,10.848-1,17,11.815,0.072,16.452-2.636,20-5v-1q-1-3-2-6C936.277,349.744,933.311,347.436,925,347Zm-229,1c-5.576,2.907-14.638,2.688-18,8v6h5q-0.5,1-1,2c-3.33-.219-2.3-0.933-5,1v2l1,1c17.2,0.566,35.3,1.848,44-7Zm205,14,5,1Zm-243,9,9-1v-6c-4.406.112-4.935-.091-7,2C657.922,368.024,658.635,367,658,371Zm279-2v12h6c1.556-5.675,1.278-6.191,0-12h-6Zm-46,2-3,13,5,3,17-1,4-4q-0.5-5.5-1-11H891Zm30,10h10q-0.5-5-1-10l-9,1v9Zm-235-8-11,3c-1.271,27.828,22.452,30.593,48,25q0.5-2.5,1-5l-5-9,4-2v-7A121.39,121.39,0,0,0,686,373Zm-19,5-13,3v4l7,6,7-1C668.992,385.548,669.539,381.176,667,378Zm-8,5h0Zm262,6q0.5,5,1,10h1l4-1,4-2v-7H921Zm16,0q-0.5,2.5-1,5l2,2,6-3v-2q-0.5-1-1-2h-6Zm-49,5c-0.2,5.1-.019,8.465,2,11l24-5q-1-4.5-2-9C901.042,390.912,896.712,393.251,888,394Zm-219,8c-8.217-.755-9.227-4.217-14-8l-2,1c-0.4,15.366-1.711,35.228,4,45,5.129-.5,8.658-1,13-4Q669.5,419,669,402Zm273-3c-2.536,2.962-18.473,37.469,2,32C944.323,421.935,946.1,404.484,942,399Zm-265,5-2,1q0.5,15,1,30h18l4-5C693.764,410.168,698.1,407.244,677,404Zm245,0v26l7-1c0.36-7.061,1.506-20.305-2-24Zm-221,3v22h15q-0.5-11-1-22H701Zm187,5c-0.321,6-.461,12.85,2,16,10.184-2.613,17.233,2.98,26,1V407C903.248,406.934,898.38,410.868,888,412ZM680,790l-19,7q0.5,2.5,1,5c10.01,0.4,12.968,4.705,21,3,1.359-6.091,2.645-7.383,2-14ZM458,849c-16.419,8.582-37.359,10.427-57,16l-1,2c1.6,2.7.339,1.377,3,3,9.864,6.061,56.394-11.291,60-21h-5Z"/>
  <path id="Color_Fill_5" data-name="Color Fill 5" class="cls-2" d="M937,381h6c1.556-5.675,1.278-6.191,0-12l-10-1q-1,10.5-2,21H921v-8h10q-0.5-5-1-10l-9,1q-0.5,4-1,8c0.591-13.389,1.605-36.286-7-41,6.205,17.534,3.137,46.328,3,68-12.752-.066-17.62,3.868-28,5q-0.5,2.5-1,5V351c-4.406,2.355-3.085,3.46-7-1-21.262,1.307-133.939-14.518-147,13-7.1,6.81-1.915,31.687-6,41l-7,2v1l9-2,5-12,5,1v1q-0.5,1-1,2c-2.6.425-.546-0.976-3,1,2.074,1.452,1,4.916,1,9,10.586-6.015,39.941-5.287,56-2v1c-8.4,1.521-8.78,1.907-16,5,1.752,4.026,1.819,4.076,1,8,2.076,0.345,2.11.425,5,2q-0.5,1-1,2l-85,10c7.4-16.991-3.125-30.9-21-28q-0.5,11.5-1,23c0.208-10.071-.123-20.667-2-28l-10-4,6,6h-4l-6-6c3.425-2.432,1.647-2.023-2-5l-4-13,6-11c1.491,4.962,1.054,3.873,7,4l2-1v-6c-6.952.206-7.2,0.453-8,0-24.88,7.805-3.235,55.931-8,77l2-1q1-4.5,2-9c0.044,6.193.762,6.779,3,10l-11,5c6.307-20.367-.755-49.883-1-74,14.268-10.994,23.746-23.542,42-32h15c5.682-2.209,16.079-5.173,21-10-1.336-4.281-3.761-3.543-5-6q-0.5-13-1-26l-8-1q1-2.5,2-5l7-3c-0.6-10.47-5.933-14.3-8-22-4.44-16.546-.515-52.659-7-64l-8-3c5.364-.141,6.4-0.5,9-3-5.758.09-7.4,0.43-10-5,12.523,5.4,19.373-8.046,29-7-4.94-5.365-20.624,5.162-37,5,5.793-21.276,78.87-58.551,99-73-0.372-19.078-4.766-30.845,2-44,7.391-.88,9.133-3.851,10-11h1c0.982,15.535-5.573,15.093-8,28l3,12c1.431,15.975-7.689,21.847-14,30,11.045-7.575,14.746-10.268,32-10l36,31c9.5,3.412,13.735-4.485,18-4l-6-7c14.313,5.706,21.617,13.789,38,17,2.083,9.991,6.328,12.375,11,19-3.775,3.026-1.753.108-1,5-12.727-2.095-16.395-6.446-25-4l4,5,23,14c-4.424,7.626-8.86,13.848-13,23l9,11c-8.431,13.635-17.706,28.655-13,53l10,5q-1,3-2,6c-13.192.742-25.32,14.073-22,26,13.622,24.423,65.128,7.805,77,36,2.253,9.9-3.2,17.857-5,26-6.19,28.043.637,51.28,14,62q-0.5,6-1,12c-0.232-17.374-10.294-12.765-14-23-6.176-17.057,1.967-50.6,3-62q-2-11-4-22l-8-5h-1v1c12.416,18.713,1.46,60.222,7,91-4.662-2.21-10.537-4.351-13-9,3.512,2.283,4.947,3.337,10,2q-0.5-16-1-32l-2,1c-1.408,1.764-3.242,2.707-5,4v8h-2q0.5-9,1-18c4.067,1.257,3.94.98,9-1v-2q-0.5-1-1-2h-6q-0.5,2-1,4,0.5-11,1-22v10ZM830,86l1,3h-1V86Zm-27,20v7l-1-1Q802.5,109,803,106Zm37,23h0Zm8,5h0Zm3,2h0Zm4,3h0Zm2,1,3,2Zm-89,34-4,1q0.5,1,1,2l26-3H768Zm143,6,2,3Zm2,3q0.5,1,1,2Q913.5,184,913,183ZM690,194q0.5,1,1,2Q690.5,195,690,194Zm220,1q0.5,1,1,2Q910.5,196,910,195Zm-217,3h0ZM902,343a36.826,36.826,0,0,1-12,11q0.5,6,1,12c8,0.46,17.832.649,21-4,3.345-6.392,1-13.738-2-19h-8Zm23,4c-3,5.2-3.473,10.848-1,17,11.815,0.072,16.452-2.636,20-5v-1q-1-3-2-6C936.277,349.744,933.311,347.436,925,347Zm-229,1c-5.576,2.907-14.638,2.688-18,8v6h5q-0.5,1-1,2c-3.33-.219-2.3-0.933-5,1v2l1,1c17.2,0.566,35.3,1.848,44-7Zm-25,5c-1.374,10.959-2.286,20.256-2,26-3.376-.316-11.35.146-15,2v4l7,6c5.428-.634,6.411-2.225,8-1,1.844,3.417,1.913,5.766,5,8C670.951,385.543,676.318,363.633,671,353Zm110,2c5.461,0.677,13.345-1.346,17,3l5,7,38,3c-25.468.876-28.549,4.326-55,5v3a19.194,19.194,0,0,1,20,18l-2,1c-9.548,2.238-45.327,7.328-52-1,0.841-.808,2.1-0.853,0-3h-4c1.245,1.96.913,3.245-1,6l-4,1v-3c3.708-3.478,2.471-7.354,3-14,6.094-.631,5.426-0.39,9-4-1.666-5.173-1.729-6.928-6-7l3-8Zm120,7,5,1Zm31,4,2,1Zm-41,5-3,13,5,3,17-1,4-4q-0.5-5.5-1-11H891Zm-205,2-11,3c-1.271,27.828,22.452,30.593,48,25q0.5-2.5,1-5l-5-9,4-2v-7A121.39,121.39,0,0,0,686,373Zm66,0q0.5,1,1,2Q752.5,374,752,373Zm30,0c1.6,2.7.339,1.377,3,3ZM659,383h0Zm146,3h0Zm83,8c-0.2,5.1-.019,8.465,2,11l24-5q-1-4.5-2-9C901.042,390.912,896.712,393.251,888,394Zm42,2q-0.5,16.5-1,33c0.36-7.061,1.506-20.305-2-24h-6v-7C925.35,399.435,927.256,398.635,930,396ZM669,406q1.5,14,3,28c3.011-.254,4.972-0.507,10,2l-14,2C670.461,432.109,669.178,416.463,669,406Zm62,0-2,3q0.5,1,1,2h1q0.5-2.5,1-5h-1Zm-34,1q1,6,2,12h1q0.5-4,1-8v18h15q-0.5-11-1-22C707.167,407.111,699.942,408.061,697,407Zm77,4,2,3Zm4,0q0.5,1,1,2Q778.5,412,778,411Zm138,7q0.5,7,1,14l-2-2Q915.5,424,916,418Zm-97,5c41.176-.631,58.386,7.388,82,23,4.5,2.972,6.314,7.794,12,10-0.915,5.608,1.324,19.751-6,26-8.731,7.449-30.781,2.809-44,1-23.436-3.208-50.968.656-77-4l-38-8q-0.5-2.5-1-5c17.043-12.195,44.452-15.475,61-28v-1c-43.566-.317-148.369,2.343-162,29,0.807-9.461,3.64-10.565,0-17,25.374-6.4,55.216-10.272,85-15l87-7v-1c-7.5.2-12.9,1.063-17-2Zm114,0v0Zm-141,1,9,2-14-1Zm105,3,7,1Zm31,2,3,6h-1l-7-2q-0.5-1-1-2v-1Zm35,29q0.5,1,1,2Q963.5,459,963,458Zm-1,2c-0.22,1.467.414,1-1,3Q961.5,461.5,962,460Zm-288,3c7.788,3.6,12.559,10.978,18,17,0.008,6.328-.857,7.582-3,11l-3,1c-0.679-7.166-10.435-13.949-16-22q1-2,2-4Zm71,1v7l-3-3Zm-98,2,2,3Zm5,6,29,16q-1,8-2,16c0.4-9.491-.58-14.1-4-19C666.591,482.688,656.808,478.166,652,472Zm276,16v11l-4,5C926.226,498.748,927.943,496.477,928,488Zm-159,7c46.381-.735,91.851-2.855,114,21-1.367,7.118.747,12.766-1,21-20.111,4.473-46.026-3.051-62-9-8.83,2.34-8.383,11.554-15,15-7.352,3.829-18.4,2.267-27,7q0.5,1,1,2l5,1v1l-84,10c0.518-2.062-3.571-50.812-5-56-7.559.5-12.261,0.542-15-4C686.157,506.453,758.562,499.439,769,495Zm153,9h0Zm-6,8v0ZM775,562c57.714-.848,98.983,10.433,141,21,0.2,23.1,5.3,94.866-1,106-41.688-12.062-91.439-14-143-14l-69,3c-1.149-21.642,6.345-92.178-3-106v-1C712.285,569.9,764.258,566.4,775,562Zm-55,32c-7.986,8.066-10.128,46.329,1,53h13c0.61-13.41.618-41.7-6-52Zm162,3c-5.791,5.448-14.477,46.353-3,54,4.5,2.122,11.672.717,15-1,3.472-16.857,1.824-42.856-5-53h-7Zm142,111V888c-16-.326-44.745-9.489-55-1h2c14.568,12.155,33.18,8.984,53,12v60c-18.17-1.585-52.644-2.927-65-16-3.062,1.647-5.637,5.025-11,4l-32-15c-20.849-7.868-43.182-2.593-64,1-13.175,2.274-26.15-8.029-39-3l35,7c20.966,3.478,34.579-8.777,54-3,41.62,12.382,62.215,36.726,122,37v53H2V982c31.527,4.536,50.538-6.693,75-14l36-5,77-21q-0.5-2.5-1-5c-52.372.861-134.209,27.627-187,13V940c60.711,0.906,124.423,1.749,179-9,30.668-6.04,56.662-2.614,73-22q-0.5-1-1-2c-38.419,2.6-87.926,8.289-124,18H98c-34.1,0-65.156-2.067-96-4V910c84.185,3.668,160.245,3.859,233-11l29-3c8.013-2.25,11.3-9.569,17-14a128.609,128.609,0,0,1,58-26c18.875-3.421,33.046,7.542,49,4l37-13c24.746-6.67,47.859-12.247,71-18l17-1,52-20c20.526-6.234,43.5-4.456,66-11,23.393-6.8,53.034-22.918,72-36-0.179-17.733-3.668-65.6,2-78,55.2-1.147,187.14-9.279,217,18l21-8C972.457,686.556,997.311,705.59,1024,708Zm-213-6-7,4q-1,30-2,60l-2,3c-34.784-.624-93.494,1.274-103,27q-2.5,24.5-5,49c-2.923,19.353-4.125,36.895,5,50,37.421,5.074,83.149,4,126,4l70-1c17.667-2.64,38.922-6.118,54-3v-3c-5.942-23.059-2.445-105.554-16-116-19.586-15.093-64.434-3.141-92-10,0.418-15.632,3.71-54.064-6-60C828.355,701.806,820.3,701.654,811,702Zm8,78a235.761,235.761,0,0,0,38,22c16.629,7.832,35.464-6.818,44,8,9.166,8.554,12.685,56.561-5,54-15.748,4.2-30.78-3.647-41-2-13.3,2.144-23.49,8.719-37,13-20.91,6.626-63.637,9.518-83,13-14.093,2.534-29.612-.049-34-8-11.382-15.993-1-75.26,3-79,0.761,1.192-.4,1.229,1,1l12-4-7-2C730.265,794.6,815.769,785.852,819,780Zm-105,9h10v1l-5,2-7-2h2v-1Zm-34,1-19,7q0.5,2.5,1,5c10.01,0.4,12.968,4.705,21,3,1.359-6.091,2.645-7.383,2-14Zm25,18-2,5h1v-2C705.371,808.855,705.822,810.461,705,808ZM458,849c-13.014,7.127-47.759,18.574-63,14l2,4,60,34c-7.76-12.449-27.229-14.158-35-27l2-3c8.539-3.076,35.747-13.557,39-22h-5Zm66,44v0Zm-4,2-7,3v1C518.722,898.105,520.312,896.528,520,895ZM398,981l2,1Zm-274,6-44,9q-26,13-52,26v1c31.611-7.38,54.475-24.4,90-31,37.5-6.966,65.885,9.23,95,14C191.711,991.207,159.14,986.932,124,987Zm177,28q-11.5,1-23,2h27C303.667,1016.33,302.333,1015.67,301,1015Zm-26,1c0.667,0.33,1.333.67,2,1C276.333,1016.67,275.667,1016.33,275,1016Z"/>
  <path id="Color_Fill_4" data-name="Color Fill 4" class="cls-3" d="M796,68l2,2L784,89h-1V86C788.272,75.053,791.894,75.08,796,68Zm-4,11c-0.151,3.6-.539,5.189-4,8Zm-6,8c25.6,29.043-55.888,95.346-91,97q0.5-1,1-2l10-6v-1h-6l86-58c0.219-11.153-.444-23.073-3-25C784.88,87.5,784.792,91.719,786,87Zm90,65h0Zm2,1,3,2Zm6,4h0Zm10,1c3.827,1.321,2.08,0,4,3q0.5,2.5,1,5l-11-7Zm21,249c-12.26-.013-16.85,3.891-27,5v-8c5.248,0.847,18.819-.5,26-4q-1-4.5-2-9c-10.958-.088-15.288,2.251-24,3q0.5-5,1-10c5.865,3.716,14.917,2.907,21,2l4-4q-0.5-5.5-1-11H891l-3,6c-0.314-18.117,3.92-26.389,8-35-4.888-6.388-9.919-12.378-21-16-0.156-15.841,3.018-29.7,5-40l-1-1h-4c0.319,10.938-.767,40.579-6,43-0.934,2.184.428,1-3,3l-4-7c2.407-18.049,11.91-74.205,6-90q-4.5,45-9,90c-20.3,10.134-41.353-3.117-68,1-13.955,2.156-22.1,6.838-38,7l-7-6q-6-46.995-12-94h-1c0.01,32.162,15.068,80.562,7,103h-4c-1.349-4.023.878-3.4-3-3,4.858-33.149-25.209-113.382-15-136,40.105-10.541,86.946-16.213,132-7,10.833,2.215,29.818.054,36,7v24l4-21,2-1,14,5q-4.5,9-9,18l9,11c-8.431,13.635-17.706,28.655-13,53l10,6-9-2v3c2.269,1.816,3.457,1.908,8,2q-0.5,1-1,2c-13.192.742-25.32,14.073-22,26,6.286,11.206,28.933,9.49,34,22v8l-3-9h-8a36.826,36.826,0,0,1-12,11q0.5,6,1,12l20-1,3-8h1v50ZM709,199c3.273,1.152,2.718,1.381,5,3,3.738,24.73,20.579,120.531,12,136l-10,1-3-4c5.422-.575,8.144-2.017,11-5-1.336-4.281-3.761-3.543-5-6q-0.5-13-1-26l-8-1q1-2.5,2-5l7-3c-0.6-10.47-5.933-14.3-8-22-4.44-16.546-.515-52.659-7-64l-4-2Zm109,21h0Zm64,5v4h6l2-2-2-1Zm1,11c-2.919,8.957-7.561,33.028-4,42Q881,257,883,236ZM709,335l3,1c-2.569,4.684-3.889,10.291-1,16l4,3h13c-2.388,14.549,3.213,36-3,48-8.89,1.909-23.951,1.576-31-2h29q0.5-2.5,1-5l-5-9,4-2v-7c-6.433-1.681-17.345-2.819-25-6l12-2H675q-1-11.5-2-23C677.342,346.78,706.859,337.591,709,335Zm200,2c12.476,0,34.732,3.973,40,12-8.21-4.276-16.389-5.859-28-8q0.5,1,1,2l9,4c-5.895.174-5.927,0.072-8,4-1.512,4.612-.525,9.144,1,13l9,1-9,3,7,1q-0.5,1-1,2l-9,1c0.386-12.389-.357-25.633-5-33Zm22,10h0ZM667,364h-6v-4l-9,7v-4l19-15-3,22h-1v-6Zm29-16c-5.576,2.907-14.638,2.688-18,8v6h5q-0.5,1-1,2c-3.33-.219-2.3-0.933-5,1v2l1,1c17.2,0.566,35.3,1.848,44-7Zm239,0h0Zm2,1h0Zm14,2,3,4Zm3,4a11.063,11.063,0,0,1,2,12Q955,361,954,355Zm-10,3c0.469,2.725.2,2.246-1,5H933C939.3,362.437,941.483,360.7,944,358Zm-43,4,5,1Zm40,5,4,2v4q-1-2-2-4C940.27,368.261,939.653,369.487,941,367Zm14,1q0.5,1,1,2Q955.5,369,955,368Zm-306,1-3,10v-7Zm8,0,9,3h-2l-8,4Q656.5,372.5,657,369Zm296,6q0.5,1.5,1,3h-1v-3Zm-298,1q0.5,1,1,2Q655.5,377,655,376Zm4,1,8,1v1C661.211,379.158,656.9,380.6,659,377Zm15,0v0Zm263,12v-8c6.2-.517,5-0.947,8-4q-0.5,6.5-1,13ZM654,378l2,2-2,1v-3Zm298,0q0.5,1.5,1,3h-1v-3Zm-30,3h9q-0.5,4-1,8h-8v-8Zm29,1q0.5,1,1,2Q951.5,383,951,382Zm-292,1h0Zm291,5v0Zm-304,1v0Zm11,0c4.617,1.466,6.128,1.553,12,1l-4,5Zm18,2q1,3,2,6l13,4h-6c-4.171-1.407-5.863-1.421-8-5Q675.5,393.5,675,391Zm268,2c5.107,8.849,5.292,40.664-5,40v-1l6-1q-0.5-16-1-32l-2,1c-1.408,1.764-3.242,2.707-5,4v8h-1C934.539,400.565,936.284,397.226,943,393Zm-21,11v-5l8-2q-0.5,6-1,12c-0.722-3.59-.7-2.873-2-5h-5Zm-261-5,5,3Zm-14,3q0.5,1,1,2Q647.5,403,647,402Zm30,1h0Zm2,1h0Zm12,2h0Zm24,1h15q0.5,9.5,1,19l-2,2-14,2V407Zm-40,2v0Zm20,0q0.5,1,1,2Q695.5,410,695,409Zm-26,6q1,9.5,2,19l-2-1V415Zm-21,2v0Zm49,3v0Zm-48,9a13.075,13.075,0,0,1,0,12V429Zm51,0,15,2-18,1q0.5-1,1-2Zm102,1c13.934-.282,35.523-2.676,46,2v1c-65.325,3.493-147.268,2.9-199,23q-1-3-2-6c28.822-11.292,67.029-11.394,103-17Zm122,0h4v3h-1l-3-1v-2Zm27,2q0.5,1.5,1,3h-1v-3Zm-277,2h2c-2.286,1.525-1.215,1.826-4,1Zm-19,5h0Zm301,0h0Zm5,4c1.923,1.392.6,0.1,2,2Zm3,3q0.5,1,1,2Q964.5,447,964,446ZM647,457q0.5,1,1,2Q647.5,458,647,457Zm11,20h0Zm6,3h0Zm4,2h0Zm11,7v0Zm87,7c13.91-.43,37.274-2.6,45,4,2.042,1.8.707,0.015,2,3l-3,10c-10.7,4.868-18.34,1.2-28,2l-3,26c-12.706-.089-37.541,4.209-44,13,3.268,0.4,1.665-.19,2,3l-36,6c-0.384-11.68-4.252-19.426-6-28V508c-6.944.366-11.718,0.11-15-3C692.967,507.521,753.254,501.407,766,496Zm162,0q0.5,1.5,1,3h-1v-3Zm-12,21v0ZM703,678c-0.888-14.41-2.854-103.292-1-106,30.156-15.461,131.416-11.734,167-3l47,15c0.145,20.759,4.146,94.43,0,104l-47-8-75-6Zm19-85c-11.833,8.032-10.854,34.7-7,53l3,1c5.077,2.691,12.045,2,17,0,0.114-15.723.224-41.265-6-52Zm161,3-6,4c-3.174,12.062-6.577,40.964,0,52h14l4-2c2.838-13.1,3.98-46.559-5-52Zm141,112v21c-24.212-1.2-67.687-6.249-78,10,7.1-.475,11.23,11.826,20,14l58-10v46c-16.91-.244-40.516-2.5-54,2,0.064,16.856-7.428,25.28-4,43,18.257,5.013,40.35-1.9,58-3v57l-48-5-21,5v-2l-3-11q1,10.5,2,21l-4,1c-5.139-18.342-7.866-115.6-17-123-14.187-11.5-70.118-3.4-92-9q-1.5-27-3-54c-4.222-10.912-16.95-13.781-30-10l-4,6c-4.447,17.97,3.023,45.89-4,61-28.936-.086-90.452,2.066-102,21-8.72,14.3-4.138,42.161-7,61-2.154,14.182-5.213,33.538,1,45,51.944,5.071,115.967,4.016,174,4l68-3c6.658,5.042,8.292,18.1,11,27-27.874-7.313-68.591-8.645-98-3-15.827,3.038-48.936-3.931-72,4-26.449,9.1-44.722,30.374-76,36v2h3c27.747-9.344,74.722-37.863,109-32l36,9c18.778,1.775,28.237-9.386,46-6,47.124,8.983,66,38.954,131,39v52H493c-9.354-3.13-14.02-16.49-18-22l6-3c-0.5-4.758-3.274-6.087,2-5,5.611-1.547,11.632-1.83,14-7-3.325-.185-4.9.459-7-3,2.5-1.191.984,0.64,2-2-7.539.619-16.606-18.536-28-26-12.333-8.079-36.437-5.684-53-12-10.6-4.041-16.9-14.649-30-17l-1,2c1.39,5.452.508,13.614,0,14l8,4v2h-2c-14.867,6-32.109,6.275-44,15,1.792,1.337,1.519-.175,1,2-5.474,4.074-10.876,2.426-15,5,0.219,3.33.933,2.3-1,5-0.635-1.9-.538-1.365-2,0,2.769,1.156.525,0.309,0,3-17.118.144-29.547,17.33-54,13-19.917-3.527-40.451-14.4-52-16,1.231-3.014,1.3-1.83,1-5h-3v-1c-45.015-12-105.115,3.618-153,18-19.12,5.743-40.018,16.22-62,18V983c33.749,0.9,50.157-7.861,76-15,48.465-13.389,93.948-16.421,133-36,15.861-7.952,40.407-10.2,46-28h-1c-18.55,6.861-40.709,6.922-63,11-57.632,10.545-127.053,10.089-191,6V911c75.772,5.026,161.258,5.026,226-10l33-2c27.5-8.216,45.043-52.364,98-43,48.076,8.5,68.5,38.488,108,52,42.621,14.578,53.3-27.6,93-7,9.1,4.722,18.016,9.246,24,17-3.043,1.509-4.014,4.252-5,9,24.338,5.181,40.668,31.585,67,31,0.894-19.457,13.711-45.975,7-67-5.231-16.39-50.76-33.394-80-28l-30,10c-9.525,2.982-72.372,22.246-78,9,19.291,0.112,53.62-5.861,65-16-18.938,5.428-43.359,10.776-65,8v-3c4.054-1.37,2.957-.985,5-4l-1-2-31,4v-1l1-3c36.519-16.927,69.3-38.046,110-52,25.33-8.685,53.093-7.5,82-16,23.524-6.922,52.909-22.889,72-36q0.5-38.5,1-77c51.507-3.748,185.24-7.909,216,14,0.456,2.674-.615,1.509,2,4C961.009,685,983.838,704.243,1024,708Zm-46,45q0.5,2.5,1,5c1.921-2.843.58,0.115,3-2C980.085,753.576,981.358,754.384,978,753Zm-5,1v0ZM680,790l-26,7q0.5,1,1,2l26,7,2-3c2.67-4.077,2.723-6.461,2-12Zm60,24c13.746,4.1,32,13,32,13,0.2,8.964-.208,13.69-4,20l-3-12v11l-4-5-3,4q-0.5-2-1-4-0.5,4-1,8h-1q-0.5-2.5-1-5c0.012,6.273-.254,9.071-5,11,0,0-8.673,2.385-10,5q-1-2-2-4c-0.784,4.987-6.7,4.089-11,3C719.885,832.158,721.938,825.994,740,814ZM494,830h3l-1,2c-14.389,5.668-57.809,31.762-77,25l-6-4v-1Zm25,14v0Zm-41,18v0Zm-5,2-2,4,5-2-1-2h-2Zm476,33c3.514,2.289,3.389,1.444,4,7h-1l-2-1Q949.5,900,949,897ZM174,933l6,1v1c-41.241,7.071-132.12,27.731-178,15V940H3C28,946.757,154.494,940.913,174,933Zm354,8c-11.036,12.032-13.873,20.008-13,31,6.914,7.109,23.275,19.406,34,14l-1-1c0.412-3.446.646-5.525-1-9-7.438-3.015-16.894-9.464-20-17C525.518,953.377,529.258,943.4,528,941Zm176,5-3,3v8h1c1.918-3.65-.045-0.2,4-1q0.5-2,1-4C706.735,948.745,707.753,948.386,704,946ZM216,968l2,1Zm117,3h0ZM225,981h0Zm162,2c50.037-.467,61.812,28.2,96,40v1q-224.978-.5-450-1h2c30.618-19.41,84.178-39.718,134-28,39.456,9.28,81.988,33.29,137,24,26.333-4.45,33.195-16.24,51-27C365.829,986.662,376.283,987.389,387,983Z"/>
  <path id="Color_Fill_3" data-name="Color Fill 3" class="cls-4" d="M795,70c1.233,2.711-6.984,10.789-10,13V80l3-7C792.439,72.425,792.668,72.234,795,70Zm-9,29v0Zm-1,18c0.269,9.924-64.37,66.629-78,62h2Zm109,41v4l-5-3ZM791,184c27.194-.586,61.89.486,80,11,0.189,12.133-3.78,20.308-6,28-5.777,20.016,7.352,51.3-9,63v1c3.635,0.644,3.027.4,5,2q-1.5,17-3,34l-111,3q-7-58.494-14-117h-2c0.125,32.9,2.2,62.539,8,90,1.624,7.691,5.424,24.788,1,30l-5,1q-9-64.994-18-130c8.572-11.143,50.6-17.5,69-14q0.5,15,1,30,0.5-1,1-2V186Zm83,10,11,3q-1,12.5-2,25h4c0.041-8.181,1.906-18.47,6-23,5.117,2.832,4.792,5.061,11,6l-7,16,8,10c-9.439-6.141-21.061-5.2-32-9Q873.5,208,874,194Zm-167,6c4.526,0.859,2.975-.116,5,3,5.308,9.58,5.958,28.094-6,30,0.491-13.49,1.97-24.855-4-31Zm98,18-11,2v1l1,1c12.348,0.332,60.49,2.875,63-1Zm-29,1-21,3q0.5,1,1,2c7.548-.705,18.661-0.827,24-4Zm11,6v19h1C788.405,236.546,789.931,229.6,787,225Zm84,3c6.193,0.044,6.779.762,10,3q-2.5,25.5-5,51l4,1c-0.274-12.678,2.325-51.311,12-51,2.115,4.591,3.2,5.045,10,5-5.608,6.309-18.573,43.983-4,50v1l-29-5h-2Q869,255.5,871,228Zm-158,7h4c0.8,10.994,10.376,49.994,4,55l-4,1c1.043-2.308-6.71-45.3-10-54h2Zm72,48-23,3v1c16.278,0.195,74.679,3.018,84-2q-0.5-1-1-2H785Zm82,5,7,3q-2,18-4,36l-5-1C861.7,314.258,865.679,299.24,867,288Zm-152,3h0Zm-3,1h0Zm167,0,19,3q-0.5,1-1,2c-14.787.8-21.408,20.458-15,30l-5-1C874.212,316.248,876.992,301.537,879,292Zm-155,2c5.294,7.242,10.8,35.683-1,38,0,0-3.589-28.986-5-34-4.03-.4-3.912-0.327-6-2Zm167,35h0Zm2,1h0Zm-172,2h0Zm175,0,3,2Zm-187,3h2l-3,2Q708.5,336,709,335Zm200,2,7,1Zm-206,1h4c-3.38,5.425-3.457,9.7,0,15l-8-5c-6.657.813-17.993,3.087-21,8v6h5q-0.5,1-1,2h-7q-0.5-8.5-1-17C674.929,346.919,702.517,338.451,703,338Zm214,0h0Zm2,1,11,2Zm-19,2,10,1,3,2v5h-1q-1-3-2-6h-8c-2.758,4.043-4.922,7.08-10,9Zm30,0h4v1Zm-10,1,8,5c-6.35,2.17-4.674,5.222-7,11Q920.5,350,920,342Zm15,0,7,1v1Zm7,2h0Zm2,1h0Zm-13,2h0Zm16,0c1.923,1.392.6,0.1,2,2Zm-278,2q-1,9.5-2,19c-1.478-4.866.315-3.052-5-4,1.255-3.154,2.318-5.652,1-9l-5,6C660.13,354.207,665,353.62,669,349Zm244,0q0.5,1.5,1,3h-1v-3Zm-24,7q1,5,2,10l20-1,3-8v42c-0.215-4.513-.708-5.391-2-8l-8-1c4.538-.056,5.747-0.2,8-2l-5-2c8.15-.58,7.809-5.984,6-15H891q-0.5,2.5-1,5h-1V356Zm-163,1c0.428,12.318,4.991,39.6-3,45H706l17-1q0.5-2.5,1-5l-5-9,4-2v-7l-17-6c4.936-.236,6.468-0.713,9-3l-11-2c8.793,0.213,13.907-1.651,18-6l-3-2-5-2h12Zm213,2c4.143,1.892,3.46-1.042,5,3h-2l-4,1Q938.5,361,939,359Zm17,0q0.5,1,1,2Q956.5,360,956,359Zm-33,6q-0.5,2.5-1,5,0.5-5,1-10c2.055,4.959,3.4,3.111,8,5h-8Zm-22-3,5,1Zm32,1h0Zm-40,4c2.674,2.58,14.181,2.692,19,0H893Zm-212,1,14,1Zm-23,3,6,1Zm-12,1v0Zm297,7v10h-2Q942,384,943,379Zm-20,2h7q-0.5,4-1,8h-4C924.785,384.487,924.292,383.609,923,381Zm-264,2h0Zm230,1,4,3,13-1c-3.912,3.393-11.5,2.14-15,6h4c-2.079,2.125-2.59,1.842-7,2Q888.5,389,889,384Zm-232,5,3,2Zm3,2h4v2h-1Zm-14,4q0.5,1.5,1,3h-1v-3Zm294,0h0Zm0,2c3.006,1.284,2.245.628,4,3-2.515.411-2.121,0.746-6,2v-1C940.066,399.037,939.035,400.625,940,397Zm-261,1h0Zm248,0c2.125,2.079,1.842,2.59,2,7h-1l-4-1v-5Zm-245,1h4v1Zm231,1v7h-3Zm-215,1h0Zm190,11v-8l23-2q-0.5,1-1,2l-15,3C893.724,410.209,896.6,411.707,888,412Zm48-7v0Zm8,0v0Zm-229,3h8l-2,3c4.406,0.112,4.935-.091,7,2v12c-1.392,1.923-.1.6-2,2l-11,3V408Zm185,0h0ZM669,422v0Zm-21,3v0Zm52,4h0Zm93,2,44,1v1c-53.252,4.1-151.31,1.1-188,23q-0.5-3-1-6c24-6.988,52.806-10.421,82-15Zm-144,2v0Zm114,64,24,2-2,1c-3.143,4.2-4.1,9.034-6,16-35.553-1.821-42.519,24.211-71,26l-1-1c0-6.231.729-8.5-2-12,0.653,12.886,4.147,28.923-4,33-0.582-11.115-4.315-18.723-6-27V508l-12-1Zm-82,9h0Zm22,172c0.116-19.928,5.288-93.77-3-106,77.154-9.2,151.854-12.44,216,13,0.075,31.264-4.5,82.871-2,101L809,674C773.135,668.332,735.2,676.586,703,678Zm17-85-6,7c-3.424,11.847-2.4,38.757,2,48h19q-1.5-25-3-50l-6-5h-6Zm162,3-6,7c-4.48,8.511-4.08,40.44,0,49h16l4-2c0.456-19.607,1.921-42.893-6-54h-8Zm-41,1c-2.974,14.862-5.2,45.648,0,60l13,1C847.074,639.234,861,608.133,841,597Zm183,111v15c-45.771-1.338-82.936-2.659-104,15-0.169,7.052.794,11.753,3,16,13.432,3.6,20.916,13.488,32,17,16.516,5.233,51.47-.953,69-3v21c-12.03-3.737-70.479-2.9-70,5q2.5,20.5,5,41c22.6,0.832,43.17-1.766,65-2v38h-12v1h2l10,4v11c-27.025-.228-44.987-5.521-68,0v-2l-4-25h-1q-0.5,15-1,30-0.5-1-1-2c-15.01-31.208.2-85.89-16-115-24.2-3.369-58.334-2.814-85-8-14.165-10.728-5.652-37.756-10-57-8.6-6.776-16.458-10.948-31-7-10.157,16.466,4.186,57.114-14,66-29.524,12.341-71.172,2.227-96,17-1.955,13.693-13.7,104.684-7,110,18.373,10.121,49.011,1.084,74,5,51.941,8.14,100.923-.547,153-1q-0.5,1.5-1,3c-59.591,2.6-166.763,11.323-205,34-0.117-5.561-3.24-22.615-6-21l-2-1v2c-7.154,15.973-2.934,36.63-14,48h2c29.5,11.888,77.644-41.186,125-32,13.9,2.7,27.545,12.279,48,8,10.041-2.1,23.124-7.831,37-4,17.988,4.967,31.25,16.187,47,23,21.263,9.2,46.966,13.77,76,15v15H968c-24.862-4.752-38.071-11.456-60-11l-41-11c-24.86,7.253-49.679,20.147-75,25H741c-9.529,1.376-19.421,6.568-26,7,0.912,3.65-.038,2.04,2,4,18.693,17.68,57.793,8.1,83,20-0.333.67-.667,1.33-1,2-31.987.13-68.23,0.68-97-2q-16,1-32,2c-12.935-4.05-13.6-22.72-24-29-13.7-8.277-29.112-1.514-43-6h3c-19.254-9.57-78.418-5.355-79-37,5.272-12.876,8.345-11.014,23-15,9.34-2.541,27.044-12.069,40-7,14.477,5.665,37.222,34.866,57,28q4-36.5,8-73c-9.5-18.816-78.69-28.649-114-23l-45,7v-1c21.544-16.162,38.351-30.517,72-36,22.063-3.6,62.464,12.331,74,3-31.091-3.577-69.1-10.978-102-2-27.826,7.593-52.706,25.945-84,27l1-2c32.66-12.693,61.087-35.011,99-47,23.353-7.385,48.735-6.6,75-14,24.855-7.007,52.4-22.529,72-36V685c59.094-8.781,172.73-7.52,215,12l-2,3,3-2q-1,5.5-2,11C953.619,680.461,980.133,704.332,1024,708Zm-2,38h0ZM681,789c-7.931,4.66-20.489,5.018-31,7v2c9.949,2.82,23.873,10.529,34,6,1.02-5.618,1.7-8.092,1-14Zm-2,63-3,32,2-1Q678.5,867.5,679,852Zm-343,5c48.807-.833,70.214,14.952,99,33,14.019,8.789,31.616,26.029,58,21,15.619-2.977,24.3-13.736,38-17,17.969-4.28,42.553,11.965,46,23-11.115-2.207-22.16-10.2-38-7-23.668,4.784-57.739,21.688-84,10-9.676,2.771-15.565,1.39-22,9h-2c0.413,1.809-.805,7.231,2,5-16.7,23.073-71.032-34.886-113-26-23.11,4.893-38.9,17.9-59,26-56.147,22.643-116.617,31.441-178,48L2,1004V983c32.289,4.706,52.456-8.4,79-15,57.491-14.3,114.3-19.015,159-46l50-46C303.739,866.224,319.039,864.913,336,857Zm647,1c-0.614,6.528-1.588,12.682,1,18C984.991,870.1,985.571,862.682,983,858ZM529,871h8v1c-20.262,3.549-35.957,12.459-61,13l1-2ZM2,921v-9c42.675,0.571,94.828,10.3,141,3l102-14v3l-3,2c-12.354,6.795-31.2,5.172-47,8C136.712,924.431,67.375,921.5,2,921Zm319,2c11.533,3.339,12.264-.6,19,5v1a22.525,22.525,0,0,0-12,7l-14-3h4l-15-1,3-5c3.1,1.448.854,1.21,5,1l-4-2ZM2,950v-9c46.653,0.254,108.111,6.517,147-4C135.572,953.746,30.509,950.926,2,950Zm318-10,4,1v1l-17,2,2-3Zm561,28,2,1Zm8,5h0Zm-230,4-3,1c1.868,2.262,1.817,1.4,3,5-7.581-1.529-11.716,2.261-14,1l-2,1,2,3c8.782,0.834,22.747,3.907,32-4-0.388-.922-0.009-1.232,0-1,1.806-4.344,3.243-1.383,8-4Zm15,3q0.5,1,1,2Q674.5,981,674,980Zm-294,4c62.959-1.053,61.529,24.81,99,39v1q-222.477-.5-445-1c29.89-6.35,52.694-23.917,88-30,68.626-11.823,119.533,43.4,198,25,16.461-3.86,23.447-17.36,36-25Zm343,11h0Zm-142,6h0Zm15,0h0Zm-17,1h2C579.255,1002.98,580.78,1002.91,579,1002Zm4,0c11.519,2.42,20.91.04,29,11-3-.67-6-1.33-9-2v1c4.619,1.45,6.968,2.91,9,7-4.271-1.1-5.757-2.13-9-1l6,6-10-6,5,6c-9.477-2.76-49.18-.07-61-4-0.667-1.33-1.333-2.67-2-4,1.333-.67,2.667-1.33,4-2-0.667-1.33-1.333-2.67-2-4l8,3c-0.011-.12-0.122-5.96,1-3,8.035-2.65,12.906-2.32,17,0-0.333-1.33-.667-2.67-1-4,7.342,2.21,7.25-.82,14,1C582.068,1003.54,580.978,1005.13,583,1002Zm10,2c0.667,0.33,1.333.67,2,1C594.333,1004.67,593.667,1004.33,593,1004Zm3,1c2.666,1.33,5.334,2.67,8,4C601.334,1007.67,598.666,1006.33,596,1005Zm3,5c1,0.67,2,1.33,3,2C601,1011.33,600,1010.67,599,1010Zm1,5c0.667,0.33,1.333.67,2,1C601.333,1015.67,600.667,1015.33,600,1015Zm-61,2c0.333,0.67.667,1.33,1,2C539.667,1018.33,539.333,1017.67,539,1017Zm70,3c0.333,0.67.667,1.33,1,2C609.667,1021.33,609.333,1020.67,609,1020Zm380,0c10.257-.52,31.11-2.4,35,4H974v-1Zm-379,2c0.333,0.67.667,1.33,1,2C610.667,1023.33,610.333,1022.67,610,1022Z"/>
  <path id="Color_Fill_2" data-name="Color Fill 2" class="cls-5" d="M792,72h2l-8,11h-1V80l3-7Zm-6,35v0Zm-6,18c-0.973,6.523-53.43,50.053-65,52l2-3,33-28Zm10,93V185c28.935-.622,61.333.113,80,11q-2,13-4,26C844.112,219.722,817.012,218.044,790,218Zm-5-32c0.822,10.418.977,21.9-1,32l-47,6v-2q-2.5-9.5-5-19h-2c-0.141,29.647.136,52.994,5,81,2.33,13.412,7.443,29.38,5,44h-4q-7-50.495-14-101c-1.681-7.507-6.205-24.084,0-29C738.38,189.217,760.4,185.971,785,186Zm93,11c3.067,1.494,3.215,1.115,5,4,2.893,6.633-.458,16.023-2,22h-4l-3-2q1-10,2-20Q877,199,878,197Zm16,4,4,4a23.928,23.928,0,0,0,4,22l-14-5C888.109,212.968,890.438,206.39,894,201Zm-184,2c8.276,6.813,6.163,27.212-4,29,0.239-9.813,1.523-22.3-1-28Zm138,2c-0.2,5.61-.557,8.944,1,11C849.367,210.219,850.084,207.918,848,205Zm52,5q0.5,1,1,2Q900.5,211,900,210Zm-1,3q0.5,1,1,2Q899.5,214,899,213ZM742,287c-1.048-17.158-10.435-45.471-2-60,12.8-1.978,30.55-5.427,44-3,1.58,15.136,5.562,45.92,0,58Zm48-64c16.222-.381,68.17-1.947,75,5,3.681,10.91-.358,45.632-5,55l-71-2Q789.5,252,790,223Zm84,6,5,1c3.35,11.018-.145,50.914-9,54v-2l-2,1C867.655,264.342,868.87,243.248,874,229Zm-26,5q-2,23-4,46l3-2C847.945,266.166,852.692,245.5,848,234Zm38,0c5.823,1.707,6.7,3.722,15,4-7.1,7.932-12.516,34.79-7,48h-4c-2.722-.826-5.267-1.191-7-3l-2-1Q883.5,258,886,234Zm-178,3c4.513,0.215,5.391.708,8,2l7,48c-1.987,2.649-1.127,1.963-5,3C719.88,281.841,709.747,253.016,708,237Zm186,49h0Zm-34,2q-1.5,17-3,34l-109,3q-2.5-18-5-36l37-2Zm10,1c6.5,7.025.788,25.951-1,35h-1l-3-2C864.57,309.081,865.252,296.619,870,289Zm-27,1v23h1C844.7,306.8,847.063,294.214,843,290Zm37,3,17,3v1c-13.659.772-21.467,19.224-16,29l-4-1Zm-159,2,4,1c1.358,9.033,9.3,31.192-1,35-1.185-5.576-3.482-3.961-5-7q-0.5-13-1-26l-5-1Zm-18,43h3c-2.483,4.149-3.225,7.069-2,13-5.325-3.037-13.714-2.376-20-1v-4C688.25,344.757,699.738,341.166,703,338Zm218,1h0Zm5,1h4v1Zm-24,1,7,1v1c-10.024.5-8.771,4.531-15,8Zm10,6q0.5,1,1,2Q912.5,348,912,347Zm-245,4q0.5,7,1,14l-5-2Q665,357,667,351Zm246,6q0.5,1.5,1,3h-1v-3Zm-189,1c0.328,11.106,1.953,17.819,0,27h-1v-7l-11-5v-1l6-3-14-2c8.793,0.213,13.907-1.651,18-6l-3-3h5Zm177,4,5,1Zm11,0v7c-2.276-3.256-4.269-2.362-8-4C909.555,365.086,909.977,365.67,912,362Zm13,2h0Zm-29,6,14,1Zm17,6q0.5,1.5,1,3h-1v-3Zm-192,9h2l-4,4Q720,387,721,385Zm171,2,5,1Zm-168,2v10l-3-8Zm171,2h0Zm-3,1h3v1l-3,1v-2Zm-171,9h0Zm-10,1,10,1Zm188,0,9,1C905.338,403.266,896.3,405.736,899,402Zm-8,2h4v2l-3,1Q891.5,405.5,891,404Zm5,0h0ZM716,424v-8l2,1h10v6q-0.5,1-1,2Zm69,8c9.065-.323,26.516-2.1,32,2L690,444c-10.547,2.017-36.713,11.013-42,8q0.5-1,1-2c25.332-7.655,55.907-10.2,87-15Zm-36,67,24,1v1c-7.467.888-68.55,18.352-69,19-3.555,9.865,5.125,28.487-3,37h-1c-0.034-10.469-3.473-14.512-5-22V508l-7-1Zm-66,8h0Zm20,170V576l18-8c39.218-9.363,99.775-8.093,139,0l56,17c-2.5,28.394,5.336,72.37-10,88q-0.5-1-1-2v-4l-9-2s3.258-56.906-5-69l-16-3c6.913,15.721-9.313,46.52,7,70h-4c-18.776-17.346-12-44.964-16-68-7.946-3.02-15.539-10.53-23-8-0.279,22.471-5.917,78.988,6,87l20,3v1l-47-4C779.078,668.163,738.91,676.931,703,677Zm20-85-8,4c-3.262,11.473-3.917,35.794-1,51,7.131,2.74,14.634,2.591,22,1q-2-25.5-4-51Zm170,68v0Zm-11,3h0Zm32,7q0.5,1,1,2Q914.5,671,914,670Zm110,118-69-1-15,6c-0.733-5.936-2.638-17.161-7-20-23.767-10.74-69.768.334-90-14-3.564-12.423-1.322-34.134-4-49-5.421-8.636-27.3-19.52-35-5-7.606,14.436,3.393,44.777-6,57-10.094,13.136-83.506,10.172-102,22-1.11,22.742-15.166,94.8-8,111,23.861,4.873,53.669,5,83,5l45,2v1c-37.813-.009-82.922,20.517-110,4l-6,3c-2.349,29.4-19.056,32.748-34,44l-11-2v3q-0.5,3-1,6l2,2c67.456,6.935,86.721-22.808,141-32,19.486-3.3,32.623,6.334,47,9,22.079,4.1,33.931-9.6,55-5,34.069,7.44,57.9,30.4,96,38v1l-24,3-50-14c-23.823-5.13-60.648-4.789-79-6l-34-4c-35.843,5.584-71.1,16.236-110,23-44.26,7.7-82.474-15.466-110-16-7.259-.141-9.6,10.351-14,13-15.179,9.142-35.624-4.681-44-10q-1-6.5-2-13c8.328-17.418,21.519-9.093,37-6,1.869-6.638,4.624-10.75,11-13,7.71-3.131,57.163,24.8,69,30l2-3c9.047-20.623.865-53.756,12-72l5-2q-0.5-1-1-2l-11-9c-37.674-18.632-102.511-8.743-147-7v-4c37.426-28.39,66.427-32.526,122-21,10.067,2.088,18.649.423,26,3q0.5-5.5,1-11c-30.3-8.862-87.241-9.689-119,0-16.724,5.1-42.027,22.183-61,18v-1l3-3,40-21c24.482-10.75,51.679-18.777,80-25l47-4c10.537,2.044,27.606,12.48,38,9,1.923-1.392.6-.1,2-2,2.42-4.166,3.175-14.087,0-18l-9,4q0.5-2.5,1-5c-1.139-4.182-1.43-2.209,0-6l27-18V686h2c24.765-13.634,125.329-2.013,154,1v1l-10,1c-0.036.9,12,46.048,16,53,15.457,4.452,35.307,8.187,53,11,4.876,11.445,16.531,18.418,27,24,7.661-6.155,65.95-6.562,79-8v19Zm-82-93c33.29-.592,53.4,8.176,82,14v12c-28.349,3.592-52.151-4.452-78-7-11.156-1.1-22.965,5.133-28,6q0.5-4.5,1-9C923.426,700.259,931.866,700.031,942,695ZM682,828c-2.826,19.079-8.542,40.608-6,61q0.5-1,1-2C681.94,877.448,686.683,839.516,682,828Zm342,6c0.01,16.19-.98,25.339,0,36l-22-1c0.67,0.333,1.33.667,2,1q10,3.5,20,7v9a135.425,135.425,0,0,1-37-4c-2.156-9.493.335-23.738-5-30v2c-1.953,5-1.441,21.321,2,27-11.8.471-18.143,1.7-27,5h-1q-2-15-4-30h-2c0.328,8.286,1.677,23.118-2,28-1.444-12.358-10.887-42.083-3-53C963.161,842.883,996.926,834.406,1024,834ZM2,1003V988H6l-4-2c33.853-3.6,55.3-11.507,85-19,55.267-13.945,109.069-18.144,152-44,34.92-21.031,56.718-77.732,122-66,47.352,8.51,67.518,40.572,107,53,44.141,13.894,71.473-41.838,106,4l-27-7c-22.738,2.042-40.683,16.642-70,11-23.636-4.549-44.667-26.909-68-23-1.178,3.257-.868,6.112-6,8q4,16.5,8,33h-3c-21.629-11.321-40.614-25.369-69-30-38.671-6.308-67.041,21.115-95,31-54.135,19.14-112.133,29.6-171,47ZM961,871l-1,1,2,2,14-2v-1H961ZM2,920l1-7,71,3c31.77,0,57.947,3.693,90-2l62-8-2,1c-10.717,6.074-25.4,4.446-40,7C129.015,923.62,64.883,920.192,2,920Zm0,23,40,2c-12.7,1.667-22.987,4.032-40,4v-6Zm383,41c42.788-.892,71.233,18.42,92,40q-220.979-.5-442-1h2c30.077-19.09,83.379-39.344,133-27,38.547,9.59,80.735,32.98,135,24,28.369-4.69,33.314-15.65,52-27C365.339,987.935,374.978,988.193,385,984Zm286,5c27.282-.16,41.38,16.38,63,23l56,9q0.5,1.5,1,3c-34.123.43-65.341-.67-91-6-13.181-2.74-21.012,12.96-33,2-5.972-3.64-8.668-10.74-9-20C662.309,993.577,664,992.848,671,989Zm328,31q12.5,1,25,2v2q-23.5-.5-47-1Z"/>
  <path id="Color_Fill_1" data-name="Color Fill 1" class="cls-6" d="M774,129c-1.135,7.644-38.49,37.083-49,41C737.938,152.589,762.031,141.706,774,129Zm17,88q-0.5-15.5-1-31c27.342-4.1,64.672,1.73,78,16q-1,9-2,18l-2,1-13-4c0.333-7.513,1.261-19.712-2-24-1.448,8.692-5.03,19.768-1,25Zm-15-31,8,1v25c-7.092,3.6-42.3,16.244-47,5-2.523-5.783.523-9.514,3-13l-6,2c-0.866-6.248-.632-7.758,2-12Zm-50,14c4.3,4.535,3.269,15.734,2,23l-2,2c-2.7-1.6-1.377-.339-3-3C718.631,213.684,722.617,205.816,726,200Zm55,15h2c-1.8,2.042-.015.707-3,2Q780.5,216,781,215Zm96,2h2c-1.782,3.583.531,1.184-3,3Q876.5,218.5,877,217Zm-171,1,3,11-2,2h-1V218Zm66,6c9.032-.67,12.151-0.168,12,9v48l-39,5q-0.5-1.5-1-3c-6.02-11.407-7.9-38.912-5-54Zm32,0c11.944-.379,32.988-2.448,40,3,5.089,5.526,1.534,45.741-2,53-13.072,4.239-38.587,4.066-53,0-0.143-13.7-1.721-41.327,4-51Zm40,1h0Zm3,1,18,2q-2.5,27-5,54l-14-2c5.847-9.628,6.545-39.028,4-52Zm30,7c4.834,8.011-.614,39.554-4,49h-4V271C872.206,257.787,871.259,242.793,877,233Zm-152,3,4,2c2.167,13.822,11.644,67.608,6,75v-2C727.385,297.238,724.988,256.26,725,236Zm-16,6,7,2,7,43-3,2h-1C717.87,272.085,709.279,263.334,709,242Zm178,23h2c-1.922,8.85-1.36,9.984-5,17q-0.5-2-1-4C884.242,273.15,885.121,268.471,887,265Zm4,2c0.4,2.9,1.137,1.654-1,4Q890.5,269,891,267ZM769,288l17,1c-3.1,6.287-1.291,14.765,0,22h2q0.5-11,1-22h50q-0.5,1.5-1,3c2.7,5.841,5.147,25.373,0,29-7.253,3.566-69.051,4.028-83,4-4.238-11.8-9.963-17.125-10-35h1Zm90,1c0.561,14.626-2.665,26.235-10,33l-9-1c9.627-5.12,2.1-23.686,10-30C852.354,289.116,854.258,288.977,859,289Zm-52,2q1,9.5,2,19l6,2c0.558-6.65,1.147-16.654,3-21H807Zm63,4,2,2-3,6v-2l-1-1Q869,297.5,870,295Zm-151,1h5c1.635,9.792.053,19.955-5,26,0.507-10.136,1.089-20.354-4-25Zm165,6q0.5,1,1,2Q884.5,303,884,302ZM780,433l23,1L668,446h2C695.17,429.787,751.009,444.456,780,433Zm-55,70h10v1c-13.375,1.71-25.178,6.4-33,9q0.5,4,1,8l-6,1c-0.126,11.793,4.133,10.073,6,20-2.858,1.806-2.219,2.346-4,5v-2c-5.91-10-.948-24.731-4-37l-4-1ZM705,676c-1.6-30.822-1.972-63.954-2-99,14.486-2.338,24.287-8.5,37-11,42.46-8.34,155.261-1,173,21v5l-9,4c2.393,15.223,1.8,40.138-6,49-1.1-39.824,3.694-46.543-33-59-7.576-2.572-16.708-8.471-25-7-4.027,31.023-1.124,71.285-1,94h-2Zm25-90c-7.3,3.843-12.57,5.3-16,13-5.251,10.156-2.4,37.089,0,49,8.236,2.441,13.475,10.122,24,5v-1c-4.693-3.789-4.688-62.064-2-66h-6Zm184,0,2,2C914.077,586.608,915.4,587.9,914,586ZM788,596c-8.9,9.65-7.086,38.165-3,52l2,1c11.928,0.913,21.3,2.686,27-5C806.387,610.678,824.665,605.229,788,596Zm84,18q0.5,1,1,2Q872.5,615,872,614ZM759,681c30.171-.311,61.542-0.33,87,5v1l-7,2c5.516,22.641,8.876,43.317,20,60,14.673,4.1,35.985,4.5,52,10l14,9v1c-18.662.29-73.167,0.967-80-12-7.808-9.173-2.274-35.071-5-48-9.263-7.424-16.846-13.342-33-9-9.879,15.155,1.293,45.946-10,61-10.053,13.4-81.994,11.106-101,21-3.007,14.709-12.773,108.955-7,113,20.156,11.341,52.392,3.96,77,7v1c-19.215,1.5-81.045,6.424-86-10q1.5-35,3-70h-1c-3.747,23.714-12.563,56.719-2,76-6.714-.067-11.24-0.277-16,2a150.843,150.843,0,0,0-9,49c-8.365-3.107-.621-55.212,4-63l9-1c-1.783-7.29-6.547-9.374-10-15,3.508-10.6,7.682-32.56,5-38-37.168-14.974-96.974-11.179-138,1-13.655,4.054-24.391,11.267-41,12l2-3c36.708-13.992,75.652-34.409,120-43l39-2c10.631,2.026,27.119,11.769,37,9,1.923-1.392.6-.1,2-2,3.531-5.191,3.2-14.752,2-22h-1c-2.984,1.679-2.409,1.674-5,2v-5l24-20c7.626-21.948-6.606-56.17,1-74Zm265,28v12c-23.95.246-42.042-3.707-61-7l-37-1c-1.6-2.916-2.1-2.831-3-7C952.928,684.045,988.882,707.766,1024,709Zm0,78c-23.47.576-66.184,4.3-75-11,25.2-.208,51.74-2.45,75-5v16Zm0,90v9c-12.74.184-28.677-1.216-37-6a105.177,105.177,0,0,0-3-29c-6.727-1.668-12.323,1.2-20,2,1.21-4.427,2.3-6.479,5-11l55-7v14c-4.36,8.8-2.69,12.018,0,20-9.27-1.216-20.16-5.16-29-1q0.5,2.5,1,5Zm-79-41c3.7,4.451,5.24,24.855,2,32C945.9,858.059,942.361,845.926,945,836Zm7,0,5,1v29h-2ZM580,850c24.471,5.71,43.21,1.422,67,17-11.463.864-110.074-8.891-112-10C546.638,855.346,566.15,855.971,580,850Zm384,20V856c6.158,1.426,10.515-1.127,14,2v-5l2,1q1,12.5,2,25l-5,2c-5.783-.877-8.141-2.354-11-6v-1l12-1q0.5-5,1-10h-1q-1,3.5-2,7H964ZM2,1002v-7l76-25c57.014-16.158,117.014-19.207,162-47,31.188-19.268,61.159-76.213,118-66,48.827,8.773,70.086,40.547,110,54,33.865,11.414,71.128-32.111,96-3v1c-30.015-5.007-51.609,15.255-88,8-26.155-5.214-65.181-39.105-86-33,7.192,14.79,15.573,26.193,16,48-23.895-5.8-38.491-22.345-67-27-33.592-5.485-69.755,21.891-95,31-53.248,19.214-110.212,30.582-169,47C51.921,989.446,28.251,1000.27,2,1002ZM533,857l2,2C533.077,857.608,534.4,858.9,533,857Zm261,75c19.428-.223,32.67,5.105,47,8l55-4c26.395,4.672,48.023,20,70,31q-1,3-2,6h-4l-33-12c-17.287-3.545-33.325,2.17-51-1-18.842-3.38-40.589-14.539-65-10-38.16,7.1-75.5,24.61-121,25-37.389.32-57.08-10.922-83-17-17.486-4.1-40.493,1.613-40-17,6.341-11.906,20.378-7.512,31-2,22.885,11.875,53.946,34.4,93,28,30.168-4.945,48.892-17.075,72-27Zm-253,7c16.192-.3,22.768,7.566,29,17-1.45,8.288-6.379,12.974-12,17C535.228,973.806,526.559,952.122,541,939ZM382,985c56.127-.978,59.268,21.88,92,38v1q-218.978-.5-438-1l41-18c16.591-6.626,34.781-8.671,55-12,21.2-3.49,43.124,5.318,58,10,32.746,10.31,83.019,26.49,130,16,16.974-3.79,25.867-18.06,39-26Zm283,10c37.521-.988,53.2,14.01,83,21,10.509,2.46,30.365.38,36,8H715q-9-4-18-8-5,2.5-10,5c-11.584,2.97-22.23-7.05-27-12C659.583,1000.07,660.38,998.617,665,995Zm332,26q13.5,1,27,2v1q-21-.5-42-1Q989.5,1022,997,1021Z"/>
</svg>
