<svg xmlns="http://www.w3.org/2000/svg" width="1024" height="700" viewBox="0 0 1024 700">
  <defs>
    <style>
      .cls-1, .cls-2, .cls-3, .cls-4, .cls-5, .cls-6 {
        fill-rule: evenodd;
      }

      .cls-2 {
        fill: #333;
      }

      .cls-3 {
        fill: #666;
      }

      .cls-4 {
        fill: #999;
      }

      .cls-5 {
        fill: #ccc;
      }

      .cls-6 {
        fill: #fff;
      }
    </style>
  </defs>
  <path id="Color_Fill_6" data-name="Color Fill 6" class="cls-1" d="M420,183h0Zm7,7,1,2Zm1,3,1,3h-1v-3ZM245,624q0.5,1,1,2Q245.5,625,245,624Zm458,9h7q-0.5,1-1,2h-5Q703.5,634,703,633Zm-9,1h0Zm-3,3h0ZM25,638l208,1-47,21v1l21,4,38-1c15.066,2.938,25.222,6.837,43,10,24.555,4.369,57.966-5.205,79-3,28.6,3,57.713,2.011,87,2l37,1c18.31-3.1,46.693-5.22,63-10,8.87-2.6,22.723,1.538,31-1l54,3c14.516-5.822,53.472-7,76-5l-8-9c-5.651-2.667-9.113-8.662-12-14l317,1-71,2v2c33.822-.446,52.49,6.18,76,11v1c-28.522-.451-93.764-13.65-121-3q0.5,1,1,2l24,1q1,2,2,4v1H890c1.989,6.138-6.659,15.371-13,19-20.375,8.18-50.963,1.856-71,1v3c4.313,0.208,4.827.262,7,2l-37,2q0.5-1,1-2l24-3v-1l-125,8-167,2v3h37v1c-102.357.549-190.718-7.972-290-8-27.18-.008-110.511,4.667-125-7l6-3q-0.5-1-1-2c-28.767.332-94.686,6.047-113-4v-1c6.9,0.347,14.442.854,17-4l-17-2c-0.591-3.389-.292-1.859-3-5l4-7c9.673-2.778,9.169-5.114,22-5v-4L9,639Zm648,0h0Zm9,0,6,1Zm256,23h6v1l-6,1v2c6.322-.794,14.129-2.744,18,0h-2l-34,2q0.5-1,1-2C927.06,664.49,934.378,663.916,938,661Zm82,5h4v4c-23.67,1.113-98.715,14.068-117,7v-1c6.593-1.768,8.334-5.637,16-7Z"/>
  <path id="Color_Fill_5" data-name="Color Fill 5" class="cls-2" d="M428,193l1,3h-1v-3ZM245,624q0.5,1,1,2Q245.5,625,245,624Zm458,9h7q-0.5,1-1,2h-5Q703.5,634,703,633Zm-9,1h0Zm-3,3h0ZM25,638l208,1c-8.818,1.871-10.264,8.111-17,11-9.034,3.874-23,6.268-32,9l2,1c18.5,10.167,52.378,3.759,76,8v2l-15,2c8.986-.293,20.964-1,27,2l-34,2,234,7c46.236,7.356,129.339,7.484,179,1v-1c-60.788.373-130.722,6.948-188-2l-55-6c28.622-.264,100.367,15.933,126,6-19.889.182-52.9,2.145-69-5,101.388,0.4,210.72,2.43,298-12v-1c-47.539.3-87.745,9.966-137,10l-32-1,33-1-18-1,38-3c-10.771.343-23.172,2.832-32-1h2c3.841-2.192,82.754-6.3,96-5l-9-9c-0.964-4.872-7.61-8.362-11-14l317,1-71,2v2c33.822-.446,52.49,6.18,76,11v1c-28.522-.451-93.764-13.65-121-3q0.5,1,1,2l24,1q1,2,2,4v1H890c1.928,5.039-1.7,10.537-8,13,2.122-2.606,2.66-2.074,4-6h-2c-18.025-7.408-50.379-3.026-73-3-26.128.03-46.364,5.119-69,9l-85,7v1h78c-70.852,2.986-151.6,9.7-226,10v3h37v1l-103-1c-22.143,3.253-57.443,3.355-76-4,27.775,0.212,104.247,7.591,126-1-64.256-.235-128.119-6-196-6-22.5,0-62-6.235-80,2l10,1c-26.7.442-80.167,6.962-96-6,4.977-1.418,5.079-.946,5-5,18.107,1.021,38.062,10.767,53,4-29.093-6.525-72.111-13.308-107-7v2l53,1c-28.566.333-93.8,5.985-112-4v-1c6.9,0.347,14.442.854,17-4l-17-2c-0.591-3.389-.292-1.859-3-5l4-7c9.673-2.778,9.169-5.114,22-5v-4L9,639Zm648,0h0Zm9,0,6,1ZM163,650l-13,2v2c6.423-.492,18.525-0.089,22-4h-9Zm775,11h6v1l-6,1v2c6.322-.794,14.129-2.744,18,0h-2l-34,2q0.5-1,1-2C927.06,664.49,934.378,663.916,938,661Zm-378,3c11.345,2.906,27.252-3.194,38,1-2.042,1.8-.707.015-2,3-11.371.67-40.126,7.2-50,0Zm460,2h4v1Zm-33,1,10,1Zm-38,1,11,1Zm-26,1,9,1c-14.846.018-14.6,7.344-25,8v-2C912.444,674.625,917.342,671.764,923,669Zm-772,1h0Zm483,0h0Zm-473,1h0Zm830,1h0Zm-14,1,5,1Zm-14,1,5,1Zm-84,1c-0.612,3.451.886,3.037-4,5Zm71,0h4v1Zm-16,1,6,1Zm-14,1,5,1Zm-124,3h10v3h-8l3-1Zm60,0,8,1Zm-72,1h4v1Zm32,0,7,2h-5Zm28,0h4v1Zm-8,1h0Zm-81,1h0Zm39,0h0Zm14,0c3.635,0.644,3.027.4,5,2Zm-76,1,5,1Zm-17,1h4v1Zm62,0,14,2C786.936,687.112,774.709,688.3,777,685Zm21,0,10,1Zm-571,1,36,1Zm475,0,5,1Zm-428,1,28,1Zm412,0,8,1Zm-376,1,26,1Zm357,0,9,1Zm-327,1,23,1Zm291,0,14,1Zm-68,1,45,1Z"/>
  <path id="Color_Fill_4" data-name="Color Fill 4" class="cls-3" d="M428,193l1,3h-1v-3ZM245,624q0.5,1,1,2Q245.5,625,245,624Zm458,9h7q-0.5,1-1,2h-5Q703.5,634,703,633Zm-9,1h0ZM25,638l42,1-4,1,6,1H67l-8,3,65,2c-15.169-.325-76.4-0.031-82,7,5.688,0.91,14.581,3.4,18,7l-20,3v1l72,2c-11.736.175-36.849-1.372-43-8l116-15c-2.733-.9-7.237-1.684-6-4h50c-12.9,12.092-33.265,16.685-55,20v1c27.649,0.488,53.086,7.675,85,8l-1,2-44,2-81-2,7,1c-39.051.013-69.125-3.5-107,0v1l10,2-20-3v-1c6.9,0.347,14.442.854,17-4l-17-2c-0.591-3.389-.292-1.859-3-5l4-7c9.673-2.778,9.169-5.114,22-5v-4L9,639Zm648,0h0Zm10,0h4v1Zm12,0,29,1-15,4q0.5,1,1,2l147,5,40-1-60-1q0.5-1,1-2c15.385-.045,17.387-3.485,27-6l98-2,49,1-71,2v2c33.822-.446,52.49,6.18,76,11v1l-48-5-73,1q0.5,2,1,4l-184-7v1h2l42,3c46.244,7.7,96.872,7.014,153,7q0.5-1.5,1-3v-1l-9-1,19,1q1,2,2,4v1H890c1.138,3.832,1.973,1.571,0,5-54.247-10.466-120.564,2.191-169,10l-75,6h85c-68.986,5.976-149.937,9.725-222,10v3h37v1l-103-1c-16.464,2.412-46.478,3.388-59-3,25.895,0.217,96.444,5.379,115-2l-142-6-101-1c-35.17-5.346-87.712.689-116-11l123,7h70l167,7c23.559,3.73,144.346,5.887,163-2l-182-1c-20.994-3.243-48.693,1.9-65-7,35.911,0.061,63.143,7,101,7l26-1-65-4c70.677,0.475,150.412,6.485,215-4,25.051-4.066,62.079,1.728,78-12L649,672H614a298.983,298.983,0,0,0,48-4l-3-2,56-5v-1l-2-3c-2.042-1.8-.707-0.015-2-3h5c7.384,2.21,24.589,5.135,32,2C726.2,654.4,704.053,652.683,695,638Zm163,6,3,1Zm-691,4c-18.946,7.415-47.315,2.306-65,9l4,5c10.353,1.241,27.407,7.243,38,3-9.514.293-20.168-1.322-25-6l81-9v-1Zm732,1,2,1Zm39,12h6v1l-6,1v2l17-2q-0.5,1.5-1,3c-14.284.137-21.781,0.357-34,1q0.5-1,1-2C927.06,664.49,934.378,663.916,938,661Zm-793,5h0Zm415,0c7.766-.385,15.944-0.342,20,3H551v-1Zm460,0h0Zm-907,1h0Zm12,1h0Zm798,1h4v1Zm-7,1h4v1Zm-32,1h0Zm30,0h0Zm-675,2,25,1ZM46,674l19,1Zm26,0,10,1Zm807,2c1.86,2.573.082,1.584-2,3Zm28,0h3l-2,2Q907.5,677,907,676Zm-770,1,13,4c-9.32.183-16.04,1.175-19-1Zm666,3h3v2h-8Zm14,2h4v1Zm-679,1,6,1v1Zm7,2,11,1Zm12,0,6,1Zm620,0,14,2C786.936,687.112,774.709,688.3,777,685Zm26,0,5,1Zm-576,1,15,1Zm47,1,14,1Zm418,0h0Zm-382,1,16,1Zm363,0h0Zm-333,1,13,1Zm300,0,5,1Zm-273,1,9,1Zm196,0,45,1Z"/>
  <path id="Color_Fill_3" data-name="Color Fill 3" class="cls-4" d="M245,624q0.5,1,1,2Q245.5,625,245,624Zm458,9h7q-0.5,1-1,2h-5Q703.5,634,703,633Zm-9,1h0ZM25,638l4,3L9,639Zm178,0h27q-0.5,1-1,2c-11.8,5.315-36.026,14.79-56,6l39-2Zm492,0,17,1c-7.575-.16-11.862,1.472-15,2Zm256,0,61,1H945Zm-20,2h12l-2,3c33.822-.446,52.49,6.18,76,11v1l-91-6,5-1c-22.276.252-57.955,7.089-77-1l58-2-11-3ZM32,641h4v1Zm14,4H92l-1,2C80.332,647.327,52.211,650.661,46,645Zm-12,1h0Zm678,0,35,2C736.069,648.29,719.683,649.754,712,646Zm-567,2,15,1c-23.029.186-43.787,4.628-63,8v3c16.6,4.79,57.973,14.233,77,6-15.956.556-39.294,1.29-47-7,16.582-1.249,58.686-11.844,74-6l-34,6h2c14.564,5.728,75.973,5.246,84,11-57.846,1.8-125,2.759-175-10l1-2C96.4,653.332,127.853,655.01,145,648Zm605,0,13,1Zm44,2c13.948-.231,99.763.556,103,4C868.978,654.315,815.364,658.692,794,650Zm119,0,7,1Zm-198,1c30.251-.593,63.505.894,85,11h-2c-31.808,14.438-78.732,10.116-117,16l-42,3h23q-0.5,1-1,2c-61.239.362-132.524,6.98-190-2l-47-5c33.782,0.1,61.305,6,98,6l27-1-65-4c74.407,0.351,156.468,6.936,225-4,25.3-4.037,50.049-9.44,73-12ZM24,652c2.883,1.333.427,1.935,0,6H48v1c-7.162,1.146-23.933,2.751-28,0Zm889,2,8,1q1,2,2,4v1h-9l5-1q-0.5-2-1-4Zm-200,2,46,4h-2c-8.9,4.918-100.128,15.274-111,11l24-3-7-2,54-6v-1Zm151,3,28,1c-2.769,1.156-.525.309,0,3-11.633,1.178-23.836.16-35-1q0.5-1,1-2Zm74,2h6v1l-6,1v2l6,2c-11.159-.191-13.577-0.538-24,0q0.5-1,1-2C927.06,664.49,934.378,663.916,938,661Zm13,2h0ZM24,664l5,1Zm918,0,5,1ZM40,666c26.548-.352,65.64-4.878,87,4C115.773,670.248,42.419,669.712,40,666Zm876,4h0Zm-752,3c122.1,2.378,255.158,14,376,14l184-5c-51.153-.466-103.212,6-158,6-11.565,0-53.607.992-57,6h37v1l-103-1c-16.464,2.412-46.478,3.388-59-3,26.836,0.216,100.827,5.662,120-2l-138-6-96-1C233.63,676.493,193.879,685.891,164,673Zm637,8,5,1Zm16,1h0Zm-590,4h0Zm47,1,7,1Zm36,1,11,1Zm30,1,7,1Zm27,1h0Zm196,0,11,1Zm41,0h4v1Zm-198,3h0Z"/>
  <path id="Color_Fill_2" data-name="Color Fill 2" class="cls-5" d="M703,633h7q-0.5,1-1,2h-5Q703.5,634,703,633Zm-9,1h0Zm-470,4h6v1h-2C224.412,640.531,226.734,641.086,224,638Zm769,0,19,1H988Zm-64,3,12,1v1C935.883,643.3,931.389,643.39,929,641Zm12,2c33.822-.446,52.49,6.18,76,11v1c-14.47.234-40.017,0.389-50-6l4-1v-1C961.963,646.878,938.586,646.1,941,643Zm-729,2h0ZM49,646l29,1Zm130,0,33,1C202.275,647.672,187.822,649.721,179,646Zm681,1,52,1Zm-734,3,5,1Zm-9,1,9,1Zm610,0h0Zm154,0c7.065-.449,12.913-0.6,16,3-7.23.357-21.188,1.606-25-2Zm-771,1,7,1-25,5,2,1c20.513,13.669,59.436.372,84,10-26.309.522-81.416,0.816-96-10C89.025,656.914,102.37,655.543,110,652Zm621,0,50,5v1Zm-563,2,21,1-29,4h2c25.4,9.982,56.385,6.161,86,10v1c-30.417.27-101.842-.776-117-11Zm548,3,37,2q-0.5,1-1,2l-76,7v-1l-5-2,48-5v-1Zm154,2c8.24-.38,18.008-0.073,22,4-10.274.566-18.29-.212-28-1q0.5-1,1-2Zm44,1,6,1Zm-131,1,8,1v1h-2c-32.515,16.2-85.719,9.9-126,16l-34,2,25,1H494c21.324,0.276,55.651,5.1,73-2l-62-2c71.062-1.105,152.619,3.678,217-7C743.724,667.4,765.261,669.034,783,661Zm141,3h7q-0.5,1-1,2l-10,1ZM46,666l67,3C103.041,669.128,42.792,670.641,46,666Zm69,3h0Zm70,6,5,1Zm6,1c116.135-.042,232.407,11,344,11l170-4-180,7,4,1c-7.1-.52-17.342-1.463-20,3h37v1l-141-1,26-1c-15.65.32-36.657,3.429-47-2,25.62,0.208,112.569,5.642,129-2l-138-6-92-1C251.678,677.294,216.6,686.761,191,676Zm372,14h0Z"/>
  <path id="Color_Fill_1" data-name="Color Fill 1" class="cls-6" d="M883,647h0Zm110,1h0Zm6,3,5,1Zm7,1,11,2v1C1010.99,655.313,1008.32,655.529,1006,652Zm-13,1h0Zm-259,6,15,1v1c-10.035,1.176-55.851,9.359-63,3ZM64,667l24,1Zm135,0,24,2Zm554,1,5,1Zm-8,1,7,1c-52.515,2.5-106.935,10-166,10l-68-2c60.618,0.427,129.494,3.747,185-5Zm-537,8c80,1.435,166.187-4.675,243,7l86,4-214-6C291.4,682,230.7,687.543,208,677Zm359,4,61,1H538Zm29,5,21,1Zm-183,6c31.561-.267,94.578-6.7,119,3l-97-1,5-1Zm128,2,5,1Z"/>
</svg>
