<svg xmlns="http://www.w3.org/2000/svg" width="768" height="768" viewBox="0 0 768 768">
  <defs>
    <style>
      .cls-1, .cls-2, .cls-3, .cls-4, .cls-5, .cls-6 {
        fill-rule: evenodd;
      }

      .cls-2 {
        fill: #333;
      }

      .cls-3 {
        fill: #666;
      }

      .cls-4 {
        fill: #999;
      }

      .cls-5 {
        fill: #ccc;
      }

      .cls-6 {
        fill: #fff;
      }
    </style>
  </defs>
  <path id="Color_Fill_6" data-name="Color Fill 6" class="cls-1" d="M364,10c186.777-.056,309.264,95.494,366,229,27.379,64.427,42.783,169.452,18,251-16.766,55.169-44.483,92.275-71,133,2.879,4.052,2.489,1.705,3,7h-1c-2.431-2.3-.711-1.817-5-3a104.4,104.4,0,0,1-5,11q-0.5-2-1-4c-11.711,5.412-17.672,18.114-27,26l-47,37c-48.146,28.851-97.094,46.943-163,60-64.164,12.712-141.549-5.086-188-25-38.987-16.714-70.68-33-105-58l-9-12C60.633,615.1-17.386,465.644,8,334c5.063-26.257,9.863-52.773,19-76C67.053,156.179,141.557,79.371,242,38c25.195-10.377,52.968-16.731,82-23ZM0,451l1,2ZM554,758h0Z"/>
  <path id="Color_Fill_5" data-name="Color Fill 5" class="cls-2" d="M370,49c117.523-2.21,253.161,61.549,280,145,13.275,1.985,23.022,10.8,29,20v1c-77.024-5.583-32.205,35.4-64,60,5.22-12.624,2.24-26.254,2-38q2.5-8.5,5-17l-7-4c-3.919,2.488-7.4,4.763-12,4l2-3c13.022-5.825,25.758-26.75,21-48l-4-1c-3.246,6.107-38.388,12.159-29,30-9.713-5.1-5.993-16.371-9-24l-3-2c-5.011.946-2.739,2.464-5,1-6.209-.175-13.006-9.212-20-11,1.124,3.88,2.932,6.4,5,11h-1c-18.95-9.19-12.7-24.981-24-34-12.1-9.655-15.28-4.7-29-11l-2,4-7-6q-0.5,4-1,8c-4.062-65.273-103.084-83.092-168-59l-60,25c-8.92,7.165-34.512,32.028-44,34-12.134,2.522-17.291-22.471-17-35,26.206-19.686,61.559-32.031,100-42ZM329,79c3.534,1.064-.841,3.729-3,5Zm269,0,1,2Zm3,2c2.148,2.21,1.979,1.939,1,5V84Zm3,2c2.859,2.322,2.718,1.729,3,7l-2,2Q604.5,87.5,604,83ZM158,85l1,2Zm35,0c10.739,15.117.928,54.67,9,68l26,4q-0.5,1-1,2c-9.965,1.815-23.7,4.291-28,12-9.964,11.631-5.438,54.869-5,72,3.535-1.172,4.479-.919,7,1-5.376.317-2.96-1.992-5,2,6.573,1.673,8.875,4.955,9,8l3-2q4-15,8-30h2c1.794,23.7-6.537,60.274-16,77l-15,1c-1.448-6.584-8.387-20.263-5-37,2.657-13.129,6.809-26.331,4-43-2.8-16.6-6.429-41.726-7-52-6.326,3.069-50.213,2.976-57-3v-1c14.508-4.117,52.655-2.966,60-15C191.462,133.5,185.936,101.668,193,85Zm415,1a8.035,8.035,0,0,1,1,9Q608.5,90.5,608,86ZM154,89v4l-1-2Zm458,0,3,1q-1,4-2,8Q612.5,93.5,612,89ZM148,92h3l-4,18h-1q-0.5-7.5-1-15Zm468,0,2,1q-0.5,5-1,10v-2Q616.5,96.5,616,92Zm67,281v-8c-5.925-3.624-18.856-6.519-22-13-6.193-12.766-.219-36.854-12-44-11-8.067-42.926-.644-55,0,5.971-14.226,41.558-7.793,54-16,15.562-10.265,9.991-48.149,13-72h4v2c8.076,19.849-1.159,53.564,9,70,10.077,2.656,32.506,2.713,40,9l-2,3c-12.6-.536-36.188-4.054-42,9-5.706,9.576-3.933,34.748,1,43l10,2c-3.165-18.032,20.649-58.079,34-38,9.794,17,10.031,62.935,6,87-12.86,76.773-23.123,119.452-60,170-41.3,56.616-93.887,98.129-165,125-167.4,63.255-322.913-32.059-392-127C71.66,530.558,44.037,471.489,44,396c-0.013-26.757.13-77.73,13-90h1c3.8,36.674,25.554,28.105,33,45,3.624,8.223-3.028,20.029-5,29l3-1c4.46-11.377,3.615-21.921,8-35l8-1c0.855,17.333,15.973,1.059,25,8l-8,1,8,1-3,5h7c1.465-6.323,17.508-16.923,25-21l3,1c-7.886,11.085-18.635,19.49-27,31-0.3.41-2.462,4.987-3,2-1.926,4.666,2.194,12.589-3,20-5.288,7.545-13.6,10.132-19,19,21.929,23.027,17.581,50.877,27,93,4.542,20.313-2.5,28.2,5,42l-11,12,39,25c17.385,13.552,25.416,38.105,43,51,11.848,8.689,30.463,9,45,15,21.2,8.741,37.352,24,69,18v-1c-2.35-4.257-9.606-11.215-11-11,2.929-4.7,7.027-4.8,12-6-5.743-20.416-62.8-40.827-83-51-31.611-15.919-72.184-32.457-86-66-6.539-15.875-6-37.286-6-60,0-24.073-4.608-49.369,1-71,9-34.7,52.795-58.547,91-63l9,13c-8.56-27.02-5.4-100.133,24-96-11.746-18.2-35.069-35.119-29-70,11.236-64.575,80.132-77.864,147-88,16.228-2.46,41.339-2.4,54,3,17.522,7.467,11.7,26.382,20,43,4.34,8.685,12.023,18.971,17,28-18.493-.962-83.9-22.551-81-32q-0.5-6.5-1-13c-4.611-.914-4.159-0.236-6-4-30.173,6.826-15,40.436,3,49,45.586,21.683,189.622,24.129,174,98-15.875,75.07-130.478,16.3-183,49-32.805,20.424-5.169,141.664-23,186-11.791,29.318-34.125,44.544-69,51-20.813,3.853-47.286-5-65,2l39,4c-6.676-.173-9.946-0.914-12,4,17.386,2.73,31.284,13.734,51,11l43-8c47.1,2.417,79.667,21.141,124-5,27-15.923,37.145-44.047,55-69-6.649,2.864-11.2,11.045-15,12l3-9c-6,1.139-11.428,3.159-15,1v-1l3,1c-6.686-14.97,2.106-47.462,0-57,3.6-.277,1.952.605,2-3,4.926-3.381,2.882-12.733,5-19,8.081-2.307,11.578-1.36,22-1q-0.5-1-1-2c-27.979-12.465-57.443-34-79-54l1-2c34.318,12.781,79.223,24.32,99,52,7.867,11.011,11.016,24.013,11,43q-0.5,8.5-1,17c8.881,36.431,3.563,91.174-22,111-20.247,15.7-107.833,44.249-110,68,5.463,1.713,3.884,1.749,4,7-3.645,2.022-4.083,3.229-5,8h2c22.836,11.038,49.89-8.907,64-15,16.752-7.234,37.6-8.592,51-19l24-33c13.1-16.814,33.966-28.1,54-38q-0.5-1-1-2c-35.148-.012-55.462,17.648-72,39-4.879,6.3-8.74,21.967-17,28-5.256,3.839-39.966,14.372-43,1l19-16c10.351-6.327,21.588-8.981,30-17,30.336-28.916,32.787-79.053,45-128,4.227-16.94-1.029-39.266,4-48,2.951-.6,1.071,1.046,3-2,8,2.978,14.907,10.45,23,16h1c0.56-15.958,1.337-31.169-6-43-13.9-4.821-49.672-1.514-59-12,40.452,1.226,61.588,3,67-34,0.952-6.511,1.541-16.722-1-22l7,3C640.626,361.272,633.7,374.515,683,373ZM621,96l2,1q-0.5,6-1,12Q621.5,102.5,621,96Zm-481,4q0.5,1,1,2Q140.5,101,140,100Zm486,0,4,2c-0.841,2.581-1.526,5.236-3,7Q626.5,104.5,626,100Zm-491,3c1.336,4.97-2.134,10.156-6,13q-0.5-2.5-1-5Zm501,6c3.437,2.8,3.289,6.446,3,13l-2-1Q636.5,115,636,109ZM116,121h2l-18,19,7-8Zm541,8,7,8-4-4C657.6,131.249,658.33,131.972,657,129Zm8,9,4,5Zm7,8,3,4ZM513,167l6,1q0.5,1.5,1,3v6l-4,2-3-1-3-5v-1Zm-390,8c5.024,1.128,12.644,1.942,18,0,0.373,6.986,8.715,6.275,14,11,5.335,4.77,7.041,16.212,8,20l4-4-4,10-2-1v-2c-28.972-7.358-61.112,14.438-73,26-1.847-2.992-.939.629-4-2C94.526,208.919,107.781,193.31,123,175Zm477,5h0Zm-6,17q0.5,1,1,2h-2Q593.5,198,594,197Zm37,6c0.024,3.062-.962,1.4,1,4q0.5-1,1-2Zm-495,4,3,1Zm-3,5h0Zm539,6q0.5,1,1,2Q672.5,219,672,218Zm4,4c5.146,3.731,7.538,10.673,10,17-2.042,1.8-.707.015-2,3q-0.5-1-1-2C679.735,235.662,677.222,229.042,676,222Zm-506,5c1.668,4.47.013,5.881-2,9-4.91,1.235-39.112,9.361-41,9-4.521-.865-5.329-6.086-14-5l-31,6,3-3c9.688-20.616,59.174-7.012,83-12Q169,229,170,227Zm257,16c-6.548,4.388-19.217,1.822-28,4-22.959,5.695-95.186,34.688-86,62l5,2c-2.308,25.529-17.3,43.065-18,73l-19-8-1,1v1c2.946,2.677,14.074,18.341,15,18-2.479,7.907-13.069,11.351-19,16l-16,18c-10.717,6.74-55.477-1.817-62-3,16.392,20.793,75.98,32.437,84,47,1.8,5.764.972,6.281,0,11-20.386,5.652-42.744,7.288-49,19,28.376-17.123,65.6,9.272,85-23,9.306-15.479,5-50.639,5-74-0.006-52.961-.76-94.519,22-123,12.407-15.525,34.212-24.962,58-29,30.088-5.107,83.768,9.025,108-2l-34-2,3-3-41-3,8-1Zm-262,1h3c-12.739,18.219-8.669,43.379-16,65h-2C151.213,279.853,150.694,265.859,165,244ZM92,281c16.373-.49,20.773,5.487,25,17-0.453,18.244-13.467,25.111-31,20C73.95,303.178,75.845,290.677,92,281Zm250,0c0.077,3.773-2.218,6.345-6,9l3-4ZM182,297h0Zm-17,29c6.328-.008,7.582.857,11,3v5c-1.255,4.422-1.266,4.2-5,6l-5,1-4-3q-0.5-3.5-1-7Zm278,6h6l2,3q-0.5,3-1,6l-6,2-3-6Q442,334.5,443,332Zm-59,26c33.633,16.685,92.074,30.947,113,61,7.685,11.036,5.938,18.073,9,32,13.152,59.823-26.529,94.946-73,103-25.488,4.417-49.714-7.128-72-3-14.245,2.639-22.381,11.663-40,12l1-2,6-3c-2.518-2.3-.063-2.794-3-2,9.712-10.673,55.5-35.874,61-59,28.946,3.333,80.631,5.149,65-38-8.943-24.687-41.024-18.978-55-37C386.572,406.128,385.8,378.294,384,358Zm270,26c-5.615,3.454-10.1,4.75-13,11-5.128,8.962-3.992,26.171-3,38,4.691-1.271,6.189-.326,8-5,9.647-3.835,17.662-33.137,34-42v-2H654Zm-55,30q0.5,1,1,2Q599.5,415,599,414Zm-93,26,1,2ZM0,451l1,2Zm654,0-11,16c5.968-1.251,8.82-4.069,11-9C655.92,454.776,656.445,453.612,654,451ZM264,496h0Zm6,0h0Zm3,0h0Zm4,0h0Zm3,0h0Zm-31,1,6,1Zm259,1,1,2ZM322,558h0Zm-96,56,8,5q-1-2-2-4v-1l24,7q0.5,3,1,6c4.792-.589,2.279-2.3,6,0,1.835,5.26-.047,2.957,3,7-6.947-1.527-17.111-1.31-23-3h3c-8.475-4.311-20.766-.522-23-15h1c1.751,2.4,1.028,1.67,4,3C226.321,616.016,226.326,616.591,226,614Zm450,8,5,4q-0.5,2-1,4h-1c-4.812-3.891-3.3-1.562-9,1Zm-443,4,2,1Zm4,3h0Zm14,2h0Zm258,1h0Zm160,0v6q-0.5-1.5-1-3Q668.5,633.5,669,632ZM123,659l2,2C123.077,659.608,124.4,660.9,123,659Zm63,46,2,2C186.077,705.608,187.4,706.9,186,705Zm368,53h0Z"/>
  <path id="Color_Fill_4" data-name="Color Fill 4" class="cls-3" d="M297,66h4l-1,2-8,1,1-2C295.289,66.772,294.529,67.483,297,66Zm-7,2,2,2C290.077,68.608,291.4,69.9,290,68ZM147,93l1,3h-1V93Zm252,2c54.8-.934,51.557-1.231,66,39,3.219,8.968,9.657,13.228,11,25h-3c-9.643-3.554-16.5-7.8-24-13-1.149,3.515-1.314,4.1-4,6,0.919-16.74-14.676-37.469-33-37-26.39,8.162-50.089,34.51-16,53,43.77,23.741,192.548,25.727,180,96-9.3,52.078-73.171,45.011-134,45-21.058,0-39.041.163-51,9-29.719,21.959-6.881,109.231-15,157-10.6,62.369-43.143,79-117,79-22.59,0-44.662,1.935-62-3,21.211,32.381,79.06,35.736,121,39,14.6,1.136,45.393-2.974,59,4,19.456,9.972,59.086,3.151,75-3,70.906-27.4,92.763-51.982,120-106,0.527,18.291,4.29,48.3-2,66-13.463,37.891-62.563,50.936-96,69-14.052,7.591-63.9,28.689-52,49,43.633,9.764,59.654-9.615,86-20,16.381-6.457,35.507-7.084,48-17,15.951-12.661,22.6-36.194,39-49,16.43-12.829,51.37-19.841,62-38v-7l-10,3,4-5c3.978-9.389,11.81-36.921-1-43-5.453-8.045-33.873-16.709-48-13q-0.5-1-1-2l2-2c23.8-4.413,46.838.309,55-20,4.923-12.249.493-36.1,9-45q3.5,26,7,52l3-3q0.5-26.5,1-53c8.023-5.742,17.558-12.867,23-24v-1c-83.225,3.042-51.224,5.989-70,70l-4,2c1.317-63.466,7.268-63.727-48-74,7.335-7.695,29.162-4.035,38-10,10.345-6.982,9.165-24.474,15-36l2,1c0.864,30.992,13.743,39.889,46,40,7.1,0.024,16.954,1.092,21-2-1.418-3.666-2.727-30.93,1-28,0.161-1.049,13.879-10.567,15-11,22.678,201.061-89.029,327.526-238,373C287.565,765.437,124.459,640.772,71,516,52.246,472.228,32.481,397.308,50,337c3.692-.531,2.275-3.047,4,0,11.076,7.621,11.77,54.64,14,65h8c-1.774-2.811-1.459-1.7-2-4,17.445-4.91,20.07-19.832,24-39l2,1c0.079,12.631-1.4,20.9,2,31l16,6-2,3-13,6c-1.166,11.762-6.7,25.213-3,39,7.951,1.263,3.344,11.388,13,14l-6,3c4.273,5.98-6.234,13.241-4,26,1.311,7.486,9.245,41.918,11,44,1.078,1.279-5.137,11.007-3,16q2.5,2.5,5,5c26.464,10.129,54.886,26.1,71,47,8.4,10.891,13.947,25.853,25,34,14.167,10.442,38.992,10.86,55,19,16.756,8.521,53.1,29.79,79,13q-0.5-5-1-10c-42.488-54.4-159.039-60.64-186-127-7.06-17.378-6-41.686-6-66,0-54.723,1.142-82.889,36-104,9.156-5.545,19.545-11.9,33-13v1h-2l-5,3v1c9.4-.073,24.91-5.522,26-5,2.771,4,5.548,9.792,5,14-21.731-7.055-74.485,28.432-60,59,10.529,22.22,56.306,38.433,81,46v1l-11-1c1.356,3.071,1.544,2.518,1,6-4.688,1.418-8.337,3.332-10,8l-35-9v1l8,4-1,2H204c0.484,3.141-2.672,7.219-7,8v4c15.741,4.22,8.49,36.3-3,40l3,4h2c5.729,1.71,12.052.376,17-1,5.064-7.6,12.386-25.514,21-29,28.96-11.722,62.243,4.843,79-18,19.608-26.729-1.827-136.165,13-174,34.721-88.6,128.3-33.6,213-64q-0.5-1.5-1-3c-31.163-12.636-49.631-18.125-83-29-7.855-2.56-14.16-8.159-25-9,3.094,4.312,3.065,1.309,2,6,4.984-2.153,7.773-1.581,13,0l3,8c4.288-2.1,18.09,2.46,20,11l-2-1-33-2q-2.5-5-5-10c-3.265,5.518-56.81-28.376-61-29h-4c3.325,1.677,3.521,2.546,5,7-2.629-1.043-1.657-1.563-4-1,11.16,5.947,5.567,17.285,13,31h-4c-6.788-4-8.339-9.972-12-17l3-2c-12.525-3.145-15.537-25.578-25-32q-1,3.5-2,7l-3-2v-6c-6.5,3.169-16.268,7.775-14,17,9.119,0.328,10.261,6.42,12,12h-4c1.463,5.173,1.062,5.483,0,10-4.731-3.437-5.539-.94-12-1l2,1,11,13v-2l2-5c3.43,4.346,3.593,4.274,9,7h-7c2.622,6.14.387,2.817-3,7l3,2c-4.957-.2-2.2-0.777-6,4l4,2-3,4c2.639,1.426,1.212.256,0,3-7,3.7-3.6,16.464-6,22l-4,1c-13.5-4.453-27.653-7.339-38-15-37.126-27.49-46.751-88.316-6-120,22.35-17.377,52.483-28.03,84-36Zm125,1,5,3Zm5,3,2,2-2,1V99Zm2,2q0.5,1,1,2Q531.5,102,531,101Zm-340,8h3c-0.239,23.975-.861,43.726,22,49q-0.5,2-1,4c-37.237,9.573-9.865,33.465-26,56v-2c-6.2-16.2-1.349-36.832-10-49l-38-3q0.5-1,1-2C192.932,153.4,176.808,151.476,191,109Zm345,0q0.5,1.5,1,3h-1v-3Zm2,11,6,1c2.322,1.664,2.374,2.782,4,5q-0.5,2-1,4l-2,3c-4.891.591-5.2,0.183-9-2v-7Q537,122,538,120Zm56,45c5.61,0.645,4.624.516,7,4-1.852,4.04-2.37,4.789-6,7l-3-2v-5Q593,167,594,165Zm-81,3,7,1v7h-1l-8-5Zm114,25c2.209,5.686,2.475,11.633,5,16l13,5c-11.947,1.672-17.171,8.254-18,21l-2-1c0.037-17.295-9.636-14.767-16-21C620.541,210.887,624.472,204.085,627,193Zm-255,5,1,2Zm-45,21,2,2C327.077,219.608,328.4,220.9,327,219Zm-112,9,5,1c-0.215,4.513-.708,5.391-2,8l-2,1-3-2v-5Zm124,0c3.023,1.259,1.2-.018,3,2Zm-212,1c6.476,0.83,7.455,2.487,10,7q-0.5,2.5-1,5l-9,3-1-1c-3.748-1.817-3.709-2.972-6-6v-1Zm210,3,3,1-2,2Zm-8,8v0Zm333,5c7.754,6.1,2.437,22.438,5,34,3.575,16.129,19.416,18.223,37,20q-0.5,1-1,2c-31.685,3.027-38.506,11.5-39,45l-2-1c-3.224-12.349-6.732-26.853-10-38-12.1-1.655-32.141-5.678-42-1l3-6c2.95,2.3,9.878-.738,15-2C664.646,288.974,653.22,279.235,662,245ZM268,267l6,1c4.98,15.782,18.978,17.031,27,30-1.363,1.773-1.037,1.278-1,2,6.513,16.973-23.149,33.908-19,71-36.211-9.538-35.668-69.3-20-100C264.932,271.722,264.747,271.514,268,267Zm-114,3c4.455,0.747,4.2,1.25,7,3q-0.5,3-1,6c-1.392,1.923-.1.6-2,2-3.068,1.6-1.6,1.084-6,1l-1-2q0.5-4.5,1-9ZM94,281c10.415,0.051,16.808,3.767,20,11,3.209,5.34,1.62,13.368,0,19-23.072,19.385-48.575-.592-30-26Zm209,24,1,2Zm-3,8,1,2ZM166,326l8,1,1,3v6c-2.067,3.426-5.361,5.248-10,3-3.843-2.649-3.755-4.177-3-9Zm221,34c31.245,18.474,83.76,26.377,105,55,40.416,54.465,4.466,123.935-49,137-30.266,7.4-64.579-3.726-92,0l1-3,3-1-4-2,1-2c19.8-8.5,24.037-35.141,42-44,26.895-5.489,48.033,5.137,57-21,2.63-7.666,2-18.372-2-25-11.45-18.99-39.662-16.5-51-30C392.974,418.015,387.494,370.5,387,360Zm86,6c43.632,10.052,89.041,26.427,97,73,4.412,25.818-6.484,36.132-21,46l-2-1c0.924-16.051,6.62-32.5-1-53q0.5-1,1-2c1.923,1.392.6,0.1,2,2l8,10C548.546,399.249,496.431,395.7,473,366Zm228,13v0Zm-463,8c4.313,0.208,4.827.262,7,2-1.221.714-1.075,0.7-1,1,2.476,2.293,7.428.825,10,3,0,0-.435,2.577,4,2,6.1,2.716,16.9,7.414,27,9l-1,2c-9.3,3.962-13.646,11.565-21,17-21.507,15.894-43.5-3.551-54-11q0.5-5,1-10h2v-3C218.692,401.065,228.466,392.15,238,387Zm7,2h0Zm9,5h0ZM86,405l1,16,1-2,5-6C90.5,409.15,90.383,407.162,86,405Zm446,44c3.827,1.321,2.08,0,4,3v7h-1l-5-1v-6ZM0,451l1,2Zm671,14c1.83,3.483.844,2.688,5,4ZM220,476h0Zm452,4-3,4,5-4h-2Zm-20,1c1.6,2.7.339,1.377,3,3Zm-29,15,14,3c-0.131,2.9-.17,2.913,1,6-5.314-2.966-4.3-3.3-13-3-7.32,9.662-12.742,24.616-18,38h-2l7-38,3-5Zm12,10h0Zm41,117,5,3q-0.5,2-1,4h-1a37.614,37.614,0,0,0-5-4Zm-3,4q0.5,1.5,1,3h-1l-1-1Q672.5,628,673,627ZM516,651l-3,1v1C516.511,652.182,515.567,651.581,516,651Zm-5,1v0Zm-2,1v0Zm-3,1c-5.291,3.178-12.039,4.477-16,9l18-9h-2Zm48,104h0Z"/>
  <path id="Color_Fill_3" data-name="Color Fill 3" class="cls-4" d="M404,95c52.735-1.057,51.881,9.264,64,48-14.146-3.936-12.973-23-26-28-28.568-10.968-80.77,14.691-60,43,23.142,31.542,141.925,32.091,176,64,14.124,13.227,25.9,48.261,6,65,5.558-13.108,9.664-25.67,5-43h-1c-0.4,3.8,1.124,1.244-1,4h-1c-8.631-18.652-46.521-22.31-73-30-31.2-9.061-90.3-18.592-114-36-10.564-7.761-17.007-24.634-23-37l-34,9c-20.4,8.528-40.209,22.16-56,32-0.385-2.177-.271-7.337-2-12-0.671,10.036-4.2,9.442-8,13l1,3,2-1,3-4v5l-7,9-1-1c-0.454-26.834,16.187-43.3,30-61-21.466,11.739-36.433,41.959-29,73l-2-1c-10.893-71.671,51.49-94.522,105-108Zm135,25,7,2q0.5,4,1,8l-4,3-5-1C536.729,125.523,535.719,124.554,539,120Zm-349,8c4.692,4.737,3.174,15.363,7,21,4.074,6,13.755,6.188,19,11v1c-21.282,5.361-14.965,15.518-26,30h-1c-6.915-31.59-17.406-18.076-25-32C182.288,153.85,183.93,145.378,190,128Zm405,37,5,1c-0.377,5.656-.96,6.357-4,9-3.4-1.346-2.069-.607-4-3ZM270,182l1,2Zm93,13c4.571,0.667,4.376,1.065,7,3-0.215,4.513-.708,5.391-2,8h-1l-6-2q-0.5-3-1-6Zm263,2c1.884,2.354,2.023,4.258,2,9l-12,10-5-1,2-3C620.849,209.96,624.712,205.6,626,197Zm-371,7q0.5,1,1,2Q255.5,205,255,204Zm376,5,11,4q-0.5,1-1,2c-10.012,1.841-11.919,7.37-14,17l-2-1c-0.572-6.312-1.975-8.77,0-12Zm-194,2,8,1c6.865,3.22,5.4,10.587,2,16h-7c-7.012-1.36-8.212-5.55-7-12ZM122,233l15,2v1q-0.5,2-1,4l-15-1Q121.5,236,122,233Zm421,17c4.48,0.7,5.188-.614,4,3q0.5,1,1,2c-4.074,1.487-18.982,10.425-20,21l12,12v8c-29.4,28.839-118.121-2.448-151,23-27.074,20.955-6,110.438-13,154-9.738,60.611-40,81-111,81-24.7,0-59.129,4.308-71-9l18-1c6.538-15.962,16.985-36.011,35-41,26.21-7.258,55.118,1.91,69-17,24.359-33.183-6.028-146.119,20-189,14.642-24.122,38.345-36.516,72-42C450.554,248.066,508.84,265.936,543,250Zm6,2q0.5,1,1,2h-2Q548.5,253,549,252Zm112,14c6.666,4.353,8.287,20.944,12,28l20,5-2,3c-25.1,2.2-18.318,15.45-29,31l-2-1q-4-13-8-26l-22-5,2-3C652.645,292.46,653.542,284.608,661,266Zm-507,5h3c-0.321,4.828-.407,8.981-4,11Q153.5,276.5,154,271ZM92,282c24.7-1.3,27.84,19.624,17,34a37.938,37.938,0,0,1-23,1l-7-10C74.61,292.687,83.6,286.919,92,282Zm471,5q0.5,1,1,2h-2Q562.5,288,563,287Zm68,55c6.889,4.571,6.047,17.523,11,24,7.108,9.3,23.636,7.74,35,13-25.161,3.079-36.769,8.945-43,34-1.986,7.983.147,13.035-4,18-1.527-13.457-1.263-36.252-11-44-5.89-4.687-15.673-2.666-20-9q0.5-1,1-2C621.975,370.1,622.518,361,631,342ZM395,368c36.6,2.667,94.216,36.351,106,65,37.377,90.871-57.246,143.882-143,114l2-3c20.734-9.395,16.729-31.936,32-41,8.263-4.73,24.415-.68,35-3,22.364-4.9,37.334-36.422,16-54-11.229-9.252-35.562-12.183-44-24C395.616,417.536,394.03,369.786,395,368ZM96,374c9.959,18.954,2.577,10.625,18,24l-2,3c-16.148,4.278-21.477,39.106-12,55l9,4h-2c-8.035,5.18-7.731,6.843-12,16H94c-0.438-7.667-2.75-9.619-6-14l-11-2c7.251-1.32,10.329-4.437,15-8,0.884-26.88,7.613-46.155-17-52l2-3C89.98,393.564,91.35,385.567,96,374Zm623,10c5.155,12.23,1.354,39.928-1,52-8.829,45.267-21.336,102.444-50,129l3-10c-1.923-1.392-.6-0.1-2-2H656l6-1v-1l-9,2c17.378-23.051,31.358-49.458,42-80C705.578,442.641,707.626,408.494,719,384ZM47,385l12,45c11.312,40.447,28.74,88.679,55,123l-8-2v1l4,2-13,3q2.5,6.5,5,13C70.737,542.736,39.129,445.174,47,385Zm633,26,5,2q-0.5,4.5-1,9l-4,1V411Zm-17,34c3.5,8.829,1.881,19.042,9,24l13,6v1c-8.416,1.114-12.741,4.106-18,8q-2.5,19-5,38h-1l-1-1c0.534-14.246.823-35.219-8-40-4.709-3.957-12.392-2.452-19-5h3c3.5-4.4,7.745-3.163,13-6C656.847,465.763,659.913,453.877,663,445Zm-130,4,2,1v9l-3-1q-0.5-3-1-6ZM0,451l1,2Zm613,58h4v2l1,1-3,6h-3l-1-1C611.215,512.487,611.708,511.609,613,509Zm40,45h0Zm14,11c-0.22,1.467.414,1-1,3Q666.5,566.5,667,565Zm-565,5,2,3Zm2,3,2,3Zm4,5q0.5,1,1,2Q108.5,579,108,578Zm506,49h0Zm-7,6h2l-6,5Zm-6,5h2c-50.987,66.191-214.3,102.043-322,65-16.871-5.8-38.413-9.639-50-21l14,4c2.906-8.693,30.791-10.685,44-6,40.809,14.474,87.11,35.969,145,22,21.038-5.076,51.271-14.269,74-24l31-18C562.869,650.052,586.552,656.182,601,638ZM225,679l4,2Zm4,2h0Zm325,77h0Z"/>
  <path id="Color_Fill_2" data-name="Color Fill 2" class="cls-5" d="M397,96c30.881-.862,55.354.047,60,23h-1c-34.493-23.845-68.339,1.969-81,28,0.559-8.813,5.207-18.986,2-24l-6-3-14,9-1-5,9-6q1-4.5,2-9l-7-2,12-4v-1l-18,1ZM190,130c7.041,6.676,7.385,23.861,4,33,4.372-2.667,7.053-4.454,14-5v1c-10.044,10.771-9.815,18.075-18,30h-1v-2c-5.231-9.429-5.255-18.277-3-28-8.156,5.759-11.021,5.069-22,3l2-3C182.711,155.189,184.627,144.955,190,130Zm186,19,1,2Zm14,17h0Zm143,87-25,53c-7.078,3.779-19.271,3-30,3-39.044.007-82.1-5.386-97,19-16.368,26.79,1.228,99.876-5,140-9.755,62.839-36.347,86-109,86-18.614,0-40.453,1.184-56-2v-1l3-4c10.305-2.767,20.39-9.3,26-17q-1-10-2-20c25.781-14.86,71.879-1.844,83-32,4.859-13.176,3-33,3-50-0.008-57.244-3.806-111.77,21-143,24.7-31.092,72.473-30,129-30C491.47,255,519.347,258.945,533,253Zm128,13c6.641,4.459,7.391,19.765,9,29l22,4q-0.5,1-1,2l-20,5-9,26-2-1-6-27c-6.605,1.908-20.63.64-23-5C650.556,293.694,656.249,286.107,661,266ZM95,282c8.244,0.668,12.011,3.443,17,7,4.086,11.741,2.306,18.686-4,27-7.291,2.358-12.824,3.029-21,1a110.828,110.828,0,0,1-9-14C79.027,288.766,84.58,286.8,95,282Zm536,61h3q4,13,8,26l24,9-2,3c-33.393,7.374-16.158,18.886-33,35l-11-30-21-7,2-3C623.291,370.806,622.773,361.747,631,343ZM401,371c39.8,1.924,90.124,36.4,102,68,31.308,83.308-52.275,130.5-130,110v-4c7.838-4.257,13.4-9.976,20-15,0.341-12.606,1.575-17.758-1-24l3-2c15.3-7.092,36.9-1.791,49-11,5.334-4.059,7.265-10.061,9-18,7.713-35.285-37.5-38.5-54-54,1.9-7.565,8.225-15.575,8-25C406.75,385.509,400.88,377.317,401,371ZM95,379h2a39.834,39.834,0,0,1-12,24l-5-2C84.681,392.83,90.585,388.513,95,379Zm9,20h2L96,420H95l-1-7ZM94,446c4.3,4.365.53,14.765-1,20l-8-6C89,455.108,92.433,453.829,94,446Zm567,4h3c1.253,13,10.849,41.9-4,50a45.9,45.9,0,0,0-6-22c-4.808,1.06-8.906-.635-14-2v-3C652.589,470.025,658.989,463.5,661,450ZM0,451l1,2Zm55,11,1,2Zm1,3c14.76,20.589,27.784,51.761,29,77H84v-2C70.064,523.336,59.1,490.687,56,465Zm650,11q0.5,1.5,1,3h-1v-3Zm-1,3c3.06,9.587-17.026,55.208-23,61C685.711,515.665,696.505,504.172,705,479ZM396,526v0Zm-151,3-2,5,2-1v-4Zm149,2-2,6h1Q393.5,534,394,531ZM566,664h0Zm-4,2h3v1l-29,15Zm-28,16h0Zm-2,1h0Zm-2,1h0Z"/>
  <path id="Color_Fill_1" data-name="Color Fill 1" class="cls-6" d="M421,103l15,1-1,2-30,7c7.468-2.363,6.128-5.3,10-9Zm-18,11h0Zm16,141c19.492-.229,101.739-5.315,112,2-6.331,12.561-16.655,43.509-29,50-42.494,10.891-102.931-11.879-122,22-15.092,26.813,1.881,93.693-4,132-13.234,86.2-47.577,96.883-146,92v-1l2-3c14.927-5.792,19.856-33.1,26-45,20.2-3.88,44.785-1.3,56-14,24.531-27.77,1.141-131.071,14-173,8.833-28.8,31.06-49.259,60-58Zm245,22c3.079,5.728,4.243,16.376,3,23,3.792-2.39,4.467-3.515,9-1v1c-12.928,3.248-8.362,16.023-15,25v-2c-5.855-10.824-2.272-21.52,0-32h-1c-1.1,5.422-2.559,7.009-7,9h-8v-1c8.1-5.65,10.381-13.169,17-20q0.5,2.5,1,5Q663.5,280.5,664,277ZM92,283c10.836-.212,14.24,2.7,20,7l3,13c-3.129,5.978-3.742,10.09-10,13-8.419,5.157-17.727-.141-23-4-2.347-7.226-3.128-13.012-1-21Zm569,5v0Zm-29,60c4.843,8.391,2.545,20.132,11,25l20,5c-5.842,5.129-18.414,3.6-23,10-5.408,7.543-3.69,20.535-10,27v-2c-7.6-17.014.139-28.805-21-33q0.5-1,1-2C623.231,374.091,630.5,363.38,632,348ZM406,374c79.906,3.079,145.617,110.043,68,164-11.157,7.756-72.6,26.582-92,11l2-3c16.66-4.989,12.157-30.17,20-41,2.014-2.782,33.339-6.964,39-11,5.339-3.806,7.948-9.667,10-17,9.665-34.541-31.949-39.575-48-53C408.919,410.59,406.844,388.968,406,374ZM0,451l1,2Z"/>
</svg>
